<svg width="469" height="500" viewBox="0 0 469 500" fill="none" xmlns="http://www.w3.org/2000/svg">
<g clip-path="url(#clip0_1_2)">
<path d="M18.89 384.63L268.96 240.23C272.47 238.23 275.31 232.77 275.31 228.1V34.63C275.31 29.95 272.47 27.8 268.96 29.83L18.89 174.23C15.38 176.23 12.54 181.69 12.54 186.36V379.83C12.5 384.51 15.34 386.66 18.89 384.63Z" fill="#B1B4C4"/>
<path d="M17.56 386.63L14.79 385.03L15.99 376.82L17.56 386.63Z" fill="#B1B4C4"/>
<path d="M275.76 31L273.03 29.42L269.11 31.66C269.11 31.66 273.29 32.29 273.39 32.27C273.49 32.25 275.76 31 275.76 31Z" fill="#B1B4C4"/>
<path d="M21.14 386L271.25 241.56C274.76 239.56 277.61 234.1 277.61 229.42V36C277.61 31.32 274.76 29.17 271.25 31.2L21.14 175.6C17.63 177.6 14.79 183.06 14.79 187.74V381.16C14.79 385.83 17.63 388 21.14 386Z" fill="#E4E7F2"/>
<path d="M21.58 386.21L271.69 241.81C275.2 239.81 278.05 234.35 278.05 229.67V36.2C278.05 31.53 275.2 29.38 271.69 31.4L21.58 175.8C18.08 177.8 15.23 183.26 15.23 187.94V381.41C15.23 386.09 18.08 388.24 21.58 386.21Z" fill="#D6D8E5"/>
<path d="M18.67 374.44L274.89 226.53L274.74 37C274.74 35.06 273.38 34.27 271.74 35.24L21.63 179.64C20.7519 180.222 20.0229 181.002 19.5018 181.917C18.9807 182.833 18.682 183.858 18.63 184.91L18.67 374.44Z" fill="white"/>
<path opacity="0.5" d="M18.75 374.45L274.89 226.54L274.81 37C274.81 35.06 273.45 34.27 271.81 35.24L21.7 179.64C20.8225 180.222 20.0939 181.003 19.5728 181.918C19.0518 182.833 18.7528 183.858 18.7 184.91L18.75 374.45Z" fill="url(#paint0_linear_1_2)"/>
<path opacity="0.4" d="M210.22 498.63L460.33 354.23C463.84 352.23 463.4 348.67 459.33 346.33L291.78 249.59C287.78 247.26 281.6 247 278.1 249.03L27.98 393.43C24.48 395.43 24.92 398.99 28.98 401.33L196.54 498.07C200.59 500.4 206.72 500.66 210.22 498.63Z" fill="#D6D8E5"/>
<path d="M204.76 495.35L454.89 351C458.4 349 457.96 345.44 453.89 343.1L286.34 246.37C282.34 244.03 276.16 243.77 272.65 245.8L22.54 390.2C19.03 392.2 19.47 395.76 23.54 398.1L191.07 494.79C195.12 497.12 201.25 497.38 204.76 495.35Z" fill="#B1B4C4"/>
<path d="M457.24 347.69V342.97L451.94 345.19L457.24 347.69Z" fill="#B1B4C4"/>
<path d="M20.17 393.68V389.07L24.09 390.42L21.49 394.24L20.17 393.68Z" fill="#B1B4C4"/>
<path d="M204.76 491.38L454.89 347C458.4 345 457.96 341.44 453.89 339.1L286.34 242.36C282.34 240.02 276.16 239.77 272.65 241.8L22.54 386.2C19.03 388.2 19.47 391.76 23.54 394.1L191.07 490.81C195.12 493.15 201.25 493.41 204.76 491.38Z" fill="#E4E7F2"/>
<path d="M204.76 490.77L454.89 346.37C458.4 344.37 457.96 340.8 453.89 338.47L286.34 241.73C282.34 239.39 276.16 239.14 272.65 241.16L22.54 385.57C19.03 387.57 19.47 391.13 23.54 393.47L191.07 490.2C195.12 492.54 201.25 492.79 204.76 490.77Z" fill="#D6D8E5"/>
<path d="M290.98 274.36L302.62 267.64C303.62 267.09 303.45 266.13 302.36 265.5L291.24 259.08C290.678 258.767 290.051 258.591 289.408 258.565C288.765 258.539 288.125 258.664 287.54 258.93L275.89 265.65C274.94 266.2 275.06 267.16 276.16 267.79L287.27 274.21C287.834 274.523 288.463 274.699 289.107 274.725C289.751 274.751 290.393 274.626 290.98 274.36V274.36Z" fill="#2B303F"/>
<path d="M274.49 283.88L286.14 277.15C287.09 276.61 286.97 275.65 285.87 275.01L274.76 268.6C274.196 268.287 273.567 268.111 272.923 268.085C272.279 268.059 271.637 268.184 271.05 268.45L259.41 275.17C258.41 275.72 258.58 276.68 259.67 277.31L270.79 283.72C271.35 284.037 271.978 284.216 272.621 284.244C273.264 284.272 273.904 284.147 274.49 283.88Z" fill="#2B303F"/>
<path d="M257.82 293.51L269.46 286.78C270.46 286.23 270.29 285.27 269.2 284.64L258.08 278.23C257.52 277.913 256.892 277.734 256.249 277.706C255.606 277.678 254.966 277.803 254.38 278.07L242.73 284.8C241.73 285.34 241.9 286.3 243 286.94L254.11 293.35C254.674 293.661 255.303 293.838 255.946 293.866C256.59 293.894 257.231 293.772 257.82 293.51V293.51Z" fill="#2B303F"/>
<path d="M241.52 302.91L253.17 296.19C254.12 295.64 254 294.68 252.9 294.05L241.79 287.63C241.226 287.317 240.597 287.141 239.953 287.115C239.309 287.089 238.667 287.214 238.08 287.48L226.43 294.2C225.48 294.75 225.6 295.71 226.7 296.34L237.81 302.76C238.374 303.073 239.003 303.249 239.647 303.275C240.291 303.302 240.933 303.176 241.52 302.91V302.91Z" fill="#2B303F"/>
<path d="M225.03 312.43L236.68 305.71C237.68 305.16 237.51 304.2 236.41 303.57L225.3 297.15C224.736 296.837 224.107 296.661 223.463 296.635C222.819 296.609 222.177 296.734 221.59 297L209.95 303.72C209 304.27 209.12 305.23 210.22 305.86L221.33 312.28C221.892 312.593 222.52 312.769 223.162 312.795C223.805 312.821 224.445 312.696 225.03 312.43V312.43Z" fill="#2B303F"/>
<path d="M208.55 322L220.19 315.28C221.14 314.73 221.03 313.77 219.93 313.14L208.82 306.72C208.256 306.407 207.627 306.231 206.983 306.205C206.339 306.179 205.697 306.304 205.11 306.57L193.46 313.29C192.51 313.84 192.63 314.8 193.73 315.43L204.84 321.85C205.404 322.163 206.033 322.339 206.677 322.365C207.321 322.392 207.963 322.266 208.55 322V322Z" fill="#2B303F"/>
<path d="M192.06 331.47L203.71 324.75C204.66 324.2 204.54 323.24 203.44 322.61L192.33 316.19C191.766 315.877 191.137 315.701 190.493 315.675C189.849 315.649 189.207 315.774 188.62 316.04L176.98 322.76C176.03 323.31 176.15 324.27 177.24 324.9L188.36 331.31C188.92 331.627 189.548 331.806 190.191 331.834C190.834 331.862 191.474 331.737 192.06 331.47Z" fill="#2B303F"/>
<path d="M175.58 341L187.22 334.27C188.17 333.72 188.05 332.77 186.96 332.13L175.84 325.72C175.28 325.403 174.652 325.224 174.009 325.196C173.366 325.168 172.726 325.293 172.14 325.56L160.49 332.29C159.49 332.84 159.66 333.79 160.76 334.43L171.89 340.83C172.449 341.145 173.074 341.325 173.715 341.354C174.356 341.384 174.995 341.262 175.58 341V341Z" fill="#2B303F"/>
<path d="M159.09 350.5L170.74 343.78C171.69 343.23 171.57 342.27 170.47 341.64L159.36 335.23C158.798 334.913 158.169 334.734 157.524 334.706C156.88 334.678 156.237 334.803 155.65 335.07L144.01 341.8C143.06 342.34 143.18 343.3 144.27 343.94L155.38 350.35C155.944 350.663 156.573 350.839 157.217 350.865C157.861 350.892 158.503 350.766 159.09 350.5V350.5Z" fill="#2B303F"/>
<path d="M142.61 360L154.25 353.28C155.2 352.73 155.08 351.77 153.99 351.14L142.89 344.74C142.328 344.427 141.7 344.251 141.058 344.225C140.415 344.199 139.775 344.324 139.19 344.59L127.54 351.31C126.59 351.86 126.71 352.82 127.81 353.45L138.89 359.87C139.457 360.181 140.088 360.355 140.735 360.378C141.381 360.4 142.023 360.271 142.61 360V360Z" fill="#2B303F"/>
<path d="M126.12 369.54L137.77 362.82C138.72 362.27 138.6 361.31 137.5 360.68L126.39 354.26C125.826 353.947 125.197 353.771 124.553 353.745C123.909 353.719 123.267 353.844 122.68 354.11L111.03 360.83C110.08 361.38 110.2 362.34 111.3 362.97L122.41 369.39C122.974 369.703 123.603 369.879 124.247 369.905C124.891 369.932 125.533 369.806 126.12 369.54Z" fill="#2B303F"/>
<path d="M109.63 379.06L121.28 372.34C122.23 371.79 122.11 370.83 121.01 370.2L109.89 363.78C109.326 363.467 108.697 363.291 108.053 363.265C107.409 363.239 106.767 363.364 106.18 363.63L94.54 370.35C93.54 370.9 93.71 371.86 94.81 372.49L105.89 378.91C106.457 379.229 107.092 379.409 107.742 379.436C108.392 379.462 109.039 379.333 109.63 379.06V379.06Z" fill="#2B303F"/>
<path d="M93.15 388.58L104.79 381.85C105.79 381.3 105.63 380.35 104.53 379.71L93.42 373.3C92.857 372.986 92.2282 372.807 91.584 372.78C90.9398 372.752 90.298 372.875 89.71 373.14L78.06 379.87C77.11 380.42 77.23 381.37 78.33 382.01L89.44 388.42C90.0022 388.737 90.6312 388.916 91.2758 388.944C91.9205 388.972 92.5626 388.847 93.15 388.58V388.58Z" fill="#2B303F"/>
<path d="M68.72 402.68L88.31 391.37C89.26 390.82 89.14 389.86 88.04 389.23L76.89 382.82C76.3278 382.503 75.6988 382.324 75.0542 382.296C74.4095 382.268 73.7674 382.393 73.18 382.66L53.64 394C52.69 394.55 52.81 395.51 53.9 396.14L65.02 402.56C65.5844 402.868 66.2131 403.039 66.8557 403.06C67.4983 403.081 68.1369 402.951 68.72 402.68V402.68Z" fill="#2B303F"/>
<path d="M282.5 297.7L294.15 291C295.15 290.45 294.98 289.49 293.88 288.86L282.77 282.44C282.206 282.127 281.577 281.951 280.933 281.925C280.289 281.899 279.647 282.024 279.06 282.29L267.42 289C266.47 289.55 266.59 290.51 267.68 291.14L278.8 297.56C279.363 297.871 279.991 298.046 280.633 298.07C281.276 298.095 281.915 297.968 282.5 297.7V297.7Z" fill="#2B303F"/>
<path d="M265.99 307.24L277.63 300.52C278.58 299.97 278.46 299.01 277.37 298.38L266.25 292C265.688 291.687 265.06 291.511 264.418 291.485C263.775 291.459 263.135 291.584 262.55 291.85L250.89 298.53C249.94 299.08 250.06 300.04 251.16 300.67L262.27 307.09C262.835 307.404 263.466 307.582 264.112 307.608C264.758 307.634 265.402 307.508 265.99 307.24V307.24Z" fill="#2B303F"/>
<path d="M249.47 316.77L261.12 310.05C262.12 309.5 261.95 308.54 260.85 307.91L249.74 301.49C249.176 301.177 248.547 301.001 247.903 300.975C247.259 300.949 246.617 301.074 246.03 301.34L234.39 308.06C233.44 308.61 233.56 309.57 234.65 310.2L245.77 316.62C246.332 316.933 246.96 317.109 247.602 317.135C248.245 317.161 248.885 317.036 249.47 316.77V316.77Z" fill="#2B303F"/>
<path d="M232.96 326.31L244.61 319.58C245.56 319.04 245.44 318.08 244.34 317.44L233.23 311C232.667 310.686 232.038 310.507 231.394 310.48C230.75 310.452 230.108 310.575 229.52 310.84L217.89 317.6C216.94 318.15 217.06 319.1 218.16 319.74L229.27 326.15C229.83 326.463 230.455 326.641 231.096 326.669C231.737 326.697 232.375 326.574 232.96 326.31V326.31Z" fill="#2B303F"/>
<path d="M216.58 335.77L228.22 329C229.17 328.45 229.05 327.5 227.96 326.86L216.84 320.45C216.28 320.133 215.652 319.954 215.009 319.926C214.366 319.898 213.726 320.023 213.14 320.29L201.49 327.02C200.49 327.56 200.66 328.52 201.76 329.16L212.89 335.61C213.45 335.921 214.076 336.098 214.716 336.126C215.357 336.153 215.995 336.032 216.58 335.77Z" fill="#2B303F"/>
<path d="M200.06 345.3L211.71 338.58C212.66 338.03 212.54 337.07 211.44 336.44L200.33 330C199.766 329.687 199.137 329.511 198.493 329.485C197.849 329.459 197.207 329.584 196.62 329.85L184.98 336.57C184.03 337.12 184.15 338.08 185.24 338.71L196.36 345.13C196.92 345.446 197.547 345.626 198.19 345.655C198.832 345.685 199.473 345.563 200.06 345.3Z" fill="#2B303F"/>
<path d="M183.55 354.83L195.2 348.11C196.15 347.56 196.03 346.6 194.93 345.97L183.82 339.56C183.258 339.243 182.629 339.064 181.984 339.036C181.339 339.008 180.697 339.133 180.11 339.4L168.46 346.13C167.51 346.67 167.63 347.63 168.73 348.27L179.84 354.68C180.404 354.993 181.033 355.169 181.677 355.195C182.321 355.222 182.963 355.096 183.55 354.83Z" fill="#2B303F"/>
<path d="M167.04 364.37L178.68 357.65C179.63 357.1 179.51 356.14 178.41 355.51L167.3 349.09C166.738 348.777 166.11 348.601 165.468 348.575C164.825 348.549 164.185 348.674 163.6 348.94L151.95 355.66C151 356.21 151.12 357.17 152.22 357.8L163.33 364.22C163.894 364.533 164.523 364.709 165.167 364.735C165.811 364.762 166.453 364.636 167.04 364.37Z" fill="#2B303F"/>
<path d="M150.52 373.9L162.17 367.18C163.17 366.63 163 365.67 161.9 365.04L150.79 358.62C150.226 358.307 149.597 358.131 148.953 358.105C148.309 358.079 147.667 358.204 147.08 358.47L135.44 365.19C134.49 365.74 134.6 366.7 135.7 367.33L146.81 373.75C147.374 374.063 148.003 374.239 148.647 374.265C149.291 374.292 149.933 374.166 150.52 373.9V373.9Z" fill="#2B303F"/>
<path d="M134.01 383.44L145.65 376.71C146.6 376.17 146.48 375.21 145.39 374.57L134.27 368.16C133.708 367.848 133.081 367.671 132.439 367.643C131.797 367.615 131.157 367.738 130.57 368L118.89 374.73C117.94 375.28 118.06 376.24 119.16 376.87L130.27 383.28C130.836 383.602 131.47 383.784 132.121 383.812C132.771 383.84 133.419 383.712 134.01 383.44Z" fill="#2B303F"/>
<path d="M117.49 393L129.14 386.28C130.09 385.73 129.97 384.77 128.87 384.14L117.76 377.72C117.196 377.407 116.567 377.231 115.923 377.205C115.279 377.179 114.637 377.304 114.05 377.57L102.41 384.29C101.46 384.84 101.58 385.8 102.67 386.43L113.79 392.85C114.352 393.163 114.98 393.339 115.622 393.365C116.265 393.391 116.905 393.266 117.49 393Z" fill="#2B303F"/>
<path d="M100.98 402.51L112.62 395.78C113.57 395.23 113.46 394.28 112.36 393.64L101.25 387.23C100.687 386.916 100.058 386.737 99.414 386.71C98.7697 386.682 98.128 386.805 97.54 387.07L85.89 393.8C84.94 394.35 85.06 395.3 86.16 395.94L97.27 402.35C97.8322 402.667 98.4612 402.846 99.1059 402.874C99.7505 402.902 100.393 402.777 100.98 402.51Z" fill="#2B303F"/>
<path d="M299.02 288.17L318.6 276.86C319.55 276.31 319.43 275.36 318.34 274.72L307.22 268.31C306.66 267.993 306.032 267.814 305.389 267.786C304.746 267.758 304.106 267.883 303.52 268.15L283.89 279.46C282.94 280.01 283.06 280.97 284.16 281.6L295.31 288C295.872 288.316 296.501 288.496 297.145 288.526C297.789 288.555 298.431 288.433 299.02 288.17V288.17Z" fill="#2B303F"/>
<path d="M69.52 403.29L81.16 396.57C81.6956 396.296 82.2885 396.153 82.89 396.153C83.4915 396.153 84.0845 396.296 84.62 396.57L96.36 403.35C97.36 403.9 97.36 404.79 96.36 405.35L95.43 405.89C94.55 406.39 94.56 407.22 95.43 407.73L107.89 414.89C108.89 415.45 108.89 416.34 107.89 416.89L100.48 421.17C99.9455 421.441 99.3545 421.583 98.755 421.583C98.1555 421.583 97.5645 421.441 97.03 421.17L85.41 414.47L83.01 413.08L81.28 412.08L79.54 411.08L69.54 405.31C68.57 404.73 68.57 403.84 69.52 403.29Z" fill="#2B303F"/>
<path d="M354.83 311.3L366.47 304.58C367.47 304.03 367.3 303.07 366.21 302.44L355.09 296C354.528 295.687 353.9 295.511 353.258 295.485C352.615 295.459 351.975 295.584 351.39 295.85L339.74 302.57C338.79 303.12 338.91 304.08 340.01 304.71L351.12 311.13C351.682 311.446 352.311 311.626 352.955 311.656C353.599 311.685 354.241 311.563 354.83 311.3V311.3Z" fill="#2B303F"/>
<path d="M338.39 320.79L350.03 314.07C351.03 313.52 350.86 312.56 349.77 311.93L338.65 305.51C338.088 305.197 337.46 305.021 336.818 304.995C336.175 304.969 335.535 305.094 334.95 305.36L323.3 312.08C322.35 312.63 322.47 313.59 323.57 314.22L334.68 320.64C335.244 320.953 335.873 321.129 336.517 321.155C337.161 321.181 337.803 321.056 338.39 320.79V320.79Z" fill="#2B303F"/>
<path d="M321.95 330.28L333.59 323.56C334.59 323.01 334.43 322.05 333.33 321.42L322.22 315C321.656 314.687 321.027 314.511 320.383 314.485C319.739 314.459 319.097 314.584 318.51 314.85L306.89 321.57C305.94 322.12 306.06 323.08 307.16 323.71L318.27 330.13C318.83 330.438 319.454 330.612 320.092 330.638C320.731 330.664 321.367 330.541 321.95 330.28V330.28Z" fill="#2B303F"/>
<path d="M181.95 411.11L193.6 404.38C194.6 403.84 194.43 402.88 193.33 402.24L182.22 395.83C181.657 395.516 181.028 395.337 180.384 395.31C179.74 395.282 179.098 395.405 178.51 395.67L166.89 402.4C165.89 402.95 166.06 403.9 167.16 404.54L178.25 411C178.814 411.309 179.444 411.48 180.087 411.499C180.73 411.518 181.368 411.385 181.95 411.11V411.11Z" fill="#2B303F"/>
<path d="M165.52 420.6L177.16 413.88C178.16 413.33 177.99 412.37 176.9 411.74L165.78 405.32C165.218 405.007 164.59 404.831 163.948 404.805C163.305 404.779 162.665 404.904 162.08 405.17L150.43 411.89C149.43 412.44 149.6 413.4 150.7 414.03L161.81 420.45C162.374 420.763 163.003 420.939 163.647 420.965C164.291 420.991 164.933 420.866 165.52 420.6Z" fill="#2B303F"/>
<path d="M149.08 430.09L160.72 423.37C161.67 422.82 161.55 421.86 160.46 421.23L149.34 414.81C148.778 414.497 148.15 414.321 147.508 414.295C146.865 414.269 146.225 414.394 145.64 414.66L133.99 421.38C132.99 421.93 133.16 422.89 134.26 423.52L145.37 429.94C145.934 430.253 146.563 430.429 147.207 430.455C147.851 430.482 148.493 430.356 149.08 430.09Z" fill="#2B303F"/>
<path d="M132.64 439.58L144.28 432.86C145.23 432.31 145.11 431.35 144.02 430.72L132.89 424.3C132.328 423.987 131.7 423.811 131.058 423.785C130.415 423.759 129.775 423.884 129.19 424.15L117.54 430.87C116.54 431.42 116.71 432.38 117.81 433.01L128.89 439.43C129.459 439.749 130.095 439.93 130.747 439.956C131.399 439.982 132.048 439.853 132.64 439.58V439.58Z" fill="#2B303F"/>
<path d="M301.28 342.22L317.16 333.05C318.11 332.5 317.99 331.54 316.89 330.91L305.78 324.49C305.216 324.177 304.587 324.001 303.943 323.975C303.299 323.949 302.657 324.074 302.07 324.34L286.19 333.51C285.19 334.06 285.36 335.01 286.46 335.65L297.57 342.06C298.132 342.377 298.761 342.556 299.406 342.584C300.051 342.612 300.693 342.487 301.28 342.22Z" fill="#2B303F"/>
<path d="M198.39 401.62L214.27 392.45C215.27 391.9 215.1 390.94 214.01 390.31L202.89 383.89C202.328 383.577 201.7 383.401 201.058 383.375C200.415 383.349 199.775 383.474 199.19 383.74L183.31 392.91C182.36 393.46 182.48 394.41 183.57 395.05L194.69 401.46C195.25 401.777 195.878 401.956 196.521 401.984C197.164 402.012 197.804 401.887 198.39 401.62Z" fill="#2B303F"/>
<path d="M219.07 389.68L296.48 345C297.43 344.45 297.31 343.49 296.22 342.86L285.1 336.44C284.538 336.127 283.911 335.951 283.268 335.925C282.625 335.899 281.985 336.024 281.4 336.29L203.98 381C203.03 381.55 203.15 382.51 204.25 383.14L215.36 389.56C215.926 389.868 216.557 390.039 217.201 390.06C217.845 390.081 218.485 389.951 219.07 389.68V389.68Z" fill="#2B303F"/>
<path d="M294 309.52L305.64 302.8C306.59 302.25 306.47 301.29 305.37 300.66L294.26 294.24C293.698 293.927 293.071 293.751 292.428 293.725C291.785 293.699 291.145 293.824 290.56 294.09L278.89 300.81C277.89 301.36 278.06 302.32 279.16 302.95L290.27 309.37C290.836 309.686 291.469 309.864 292.117 309.89C292.765 309.917 293.41 309.79 294 309.52Z" fill="#2B303F"/>
<path d="M277.53 319L289.17 312.27C290.12 311.72 290 310.77 288.91 310.13L277.79 303.72C277.229 303.406 276.602 303.227 275.959 303.2C275.316 303.172 274.676 303.295 274.09 303.56L262.44 310.29C261.44 310.84 261.61 311.79 262.71 312.43L273.82 318.84C274.382 319.157 275.011 319.336 275.656 319.364C276.301 319.392 276.943 319.267 277.53 319V319Z" fill="#2B303F"/>
<path d="M261.06 328.53L272.71 321.81C273.71 321.26 273.54 320.3 272.44 319.67L261.33 313.25C260.766 312.937 260.137 312.761 259.493 312.735C258.849 312.709 258.207 312.834 257.62 313.1L245.98 319.82C244.98 320.37 245.14 321.33 246.24 321.96L257.35 328.38C257.914 328.693 258.543 328.869 259.187 328.895C259.831 328.922 260.473 328.796 261.06 328.53Z" fill="#2B303F"/>
<path d="M244.59 338L256.24 331.28C257.24 330.73 257.07 329.77 255.97 329.14L244.89 322.76C244.326 322.447 243.697 322.271 243.053 322.245C242.409 322.219 241.767 322.344 241.18 322.61L229.54 329.33C228.54 329.88 228.71 330.84 229.8 331.47L240.89 337.89C241.455 338.196 242.084 338.366 242.727 338.385C243.37 338.404 244.008 338.272 244.59 338V338Z" fill="#2B303F"/>
<path d="M228.13 347.55L239.77 340.83C240.77 340.28 240.6 339.32 239.51 338.69L228.39 332.27C227.828 331.957 227.2 331.781 226.558 331.755C225.915 331.729 225.275 331.854 224.69 332.12L213.04 338.84C212.04 339.39 212.21 340.35 213.31 340.98L224.42 347.4C224.984 347.713 225.613 347.889 226.257 347.915C226.901 347.942 227.543 347.816 228.13 347.55V347.55Z" fill="#2B303F"/>
<path d="M211.66 357.06L223.3 350.33C224.3 349.78 224.14 348.83 223.04 348.19L211.89 341.78C211.328 341.463 210.699 341.284 210.054 341.256C209.41 341.228 208.767 341.353 208.18 341.62L196.53 348.35C195.58 348.9 195.7 349.85 196.8 350.49L207.91 356.9C208.477 357.223 209.113 357.407 209.766 357.434C210.418 357.462 211.067 357.334 211.66 357.06V357.06Z" fill="#2B303F"/>
<path d="M195.19 366.56L206.84 359.84C207.79 359.29 207.67 358.33 206.57 357.7L195.46 351.28C194.896 350.967 194.267 350.791 193.623 350.765C192.979 350.739 192.337 350.864 191.75 351.13L180.11 357.85C179.11 358.4 179.28 359.36 180.37 359.99L191.49 366.41C192.052 366.723 192.68 366.899 193.322 366.925C193.965 366.951 194.605 366.826 195.19 366.56Z" fill="#2B303F"/>
<path d="M178.72 376.07L190.37 369.35C191.32 368.8 191.2 367.84 190.1 367.21L178.99 360.79C178.426 360.477 177.797 360.301 177.153 360.275C176.509 360.249 175.867 360.374 175.28 360.64L163.64 367.36C162.69 367.91 162.81 368.87 163.91 369.5L175.02 375.92C175.582 376.233 176.21 376.409 176.852 376.435C177.495 376.461 178.135 376.336 178.72 376.07V376.07Z" fill="#2B303F"/>
<path d="M162.26 385.58L173.89 378.86C174.84 378.31 174.72 377.35 173.63 376.72L162.51 370.3C161.948 369.987 161.32 369.811 160.678 369.785C160.035 369.759 159.395 369.884 158.81 370.15L147.16 376.87C146.21 377.42 146.33 378.38 147.43 379.01L158.54 385.43C159.105 385.744 159.736 385.922 160.382 385.948C161.028 385.974 161.672 385.848 162.26 385.58V385.58Z" fill="#2B303F"/>
<path d="M145.79 395.09L157.44 388.36C158.39 387.81 158.27 386.86 157.17 386.22L146.06 379.81C145.498 379.493 144.869 379.314 144.224 379.286C143.58 379.258 142.937 379.383 142.35 379.65L130.7 386.38C129.75 386.92 129.87 387.88 130.97 388.52L142.08 394.93C142.643 395.244 143.272 395.423 143.916 395.451C144.56 395.478 145.202 395.355 145.79 395.09Z" fill="#2B303F"/>
<path d="M129.32 404.59L140.97 397.87C141.92 397.32 141.8 396.36 140.7 395.73L129.59 389.31C129.026 388.997 128.397 388.821 127.753 388.795C127.109 388.769 126.467 388.894 125.88 389.16L114.24 395.88C113.24 396.43 113.41 397.39 114.5 398.02L125.62 404.44C126.182 404.753 126.81 404.929 127.452 404.955C128.095 404.981 128.735 404.856 129.32 404.59V404.59Z" fill="#2B303F"/>
<path d="M112.89 414.1L124.53 407.38C125.48 406.83 125.36 405.87 124.26 405.24L113.15 398.82C112.588 398.507 111.96 398.331 111.318 398.305C110.675 398.279 110.035 398.404 109.45 398.67L97.8 405.39C96.85 405.94 96.97 406.9 98.07 407.53L109.15 414C109.722 414.31 110.358 414.48 111.008 414.498C111.658 414.515 112.303 414.379 112.89 414.1V414.1Z" fill="#2B303F"/>
<path d="M310.46 300L334.55 286.1C335.55 285.55 335.38 284.59 334.28 283.96L323.17 277.54C322.606 277.227 321.977 277.051 321.333 277.025C320.689 276.999 320.047 277.124 319.46 277.39L295.38 291.29C294.38 291.84 294.55 292.8 295.64 293.43L306.76 299.85C307.322 300.163 307.95 300.339 308.592 300.365C309.235 300.391 309.875 300.266 310.46 300V300Z" fill="#2B303F"/>
<path d="M318.15 314L329.79 307.3C330.74 306.75 330.63 305.8 329.53 305.16L318.42 298.75C317.858 298.433 317.229 298.254 316.584 298.226C315.94 298.198 315.297 298.323 314.71 298.59L303.06 305.32C302.11 305.86 302.23 306.82 303.33 307.46L314.44 313.87C315.005 314.18 315.635 314.353 316.28 314.375C316.924 314.398 317.564 314.269 318.15 314V314Z" fill="#2B303F"/>
<path d="M301.68 323.53L313.33 316.81C314.28 316.26 314.16 315.3 313.06 314.67L301.95 308.25C301.386 307.937 300.757 307.761 300.113 307.735C299.469 307.709 298.827 307.834 298.24 308.1L286.6 314.82C285.6 315.37 285.77 316.33 286.86 316.96L297.98 323.38C298.542 323.693 299.17 323.869 299.812 323.895C300.455 323.921 301.095 323.796 301.68 323.53V323.53Z" fill="#2B303F"/>
<path d="M285.22 333L296.89 326.31C297.89 325.76 297.72 324.81 296.62 324.17L285.51 317.76C284.947 317.446 284.318 317.267 283.674 317.24C283.03 317.212 282.388 317.335 281.8 317.6L270.15 324.33C269.15 324.88 269.32 325.83 270.42 326.47L281.53 332.88C282.093 333.187 282.72 333.358 283.361 333.379C284.002 333.4 284.638 333.27 285.22 333Z" fill="#2B303F"/>
<path d="M268.76 342.54L280.4 335.82C281.4 335.27 281.23 334.31 280.13 333.68L269.02 327.26C268.458 326.947 267.831 326.771 267.188 326.745C266.545 326.719 265.905 326.844 265.32 327.11L253.67 333.83C252.72 334.38 252.84 335.34 253.94 335.97L265.05 342.39C265.614 342.703 266.243 342.879 266.887 342.905C267.531 342.931 268.173 342.806 268.76 342.54V342.54Z" fill="#2B303F"/>
<path d="M252.29 352.05L263.89 345.33C264.84 344.78 264.72 343.82 263.62 343.19L252.51 336.77C251.946 336.457 251.317 336.281 250.673 336.255C250.029 336.229 249.387 336.354 248.8 336.62L237.16 343.34C236.21 343.89 236.32 344.85 237.42 345.48L248.53 351.89C249.098 352.215 249.736 352.399 250.391 352.427C251.045 352.455 251.696 352.326 252.29 352.05Z" fill="#2B303F"/>
<path d="M235.83 361.55L247.47 354.83C248.42 354.28 248.3 353.32 247.21 352.69L236.09 346.27C235.528 345.957 234.9 345.781 234.258 345.755C233.615 345.729 232.975 345.854 232.39 346.12L220.74 352.84C219.79 353.39 219.91 354.35 221.01 354.98L232.12 361.4C232.684 361.713 233.313 361.889 233.957 361.915C234.601 361.942 235.243 361.816 235.83 361.55V361.55Z" fill="#2B303F"/>
<path d="M219.36 371.06L231.01 364.34C231.96 363.79 231.84 362.83 230.74 362.2L219.63 355.78C219.066 355.467 218.437 355.291 217.793 355.265C217.149 355.239 216.507 355.364 215.92 355.63L204.28 362.35C203.33 362.9 203.45 363.86 204.54 364.49L215.65 370.91C216.214 371.223 216.843 371.399 217.487 371.425C218.131 371.452 218.773 371.326 219.36 371.06V371.06Z" fill="#2B303F"/>
<path d="M202.89 380.57L214.53 373.84C215.48 373.29 215.36 372.34 214.27 371.7L203.15 365.29C202.59 364.973 201.962 364.794 201.319 364.766C200.676 364.738 200.036 364.863 199.45 365.13L187.8 371.86C186.85 372.4 186.97 373.36 188.07 374L199.18 380.41C199.743 380.724 200.372 380.903 201.016 380.931C201.66 380.958 202.302 380.835 202.89 380.57Z" fill="#2B303F"/>
<path d="M186.43 390.07L198.08 383.35C199.03 382.8 198.91 381.84 197.81 381.21L186.7 374.79C186.136 374.477 185.507 374.301 184.863 374.275C184.219 374.249 183.577 374.374 182.99 374.64L171.35 381.36C170.4 381.91 170.52 382.87 171.61 383.5L182.73 389.92C183.292 390.233 183.92 390.409 184.562 390.435C185.205 390.461 185.845 390.336 186.43 390.07V390.07Z" fill="#2B303F"/>
<path d="M169.97 399.58L181.61 392.85C182.56 392.31 182.44 391.35 181.35 390.71L170.23 384.3C169.669 383.986 169.042 383.807 168.399 383.78C167.756 383.752 167.116 383.875 166.53 384.14L154.89 390.87C153.94 391.42 154.06 392.37 155.16 393.01L166.27 399.42C166.831 399.735 167.458 399.914 168.101 399.942C168.744 399.969 169.384 399.846 169.97 399.58Z" fill="#2B303F"/>
<path d="M153.5 409.08L165.15 402.36C166.1 401.81 165.98 400.85 164.88 400.22L153.77 393.8C153.206 393.487 152.577 393.311 151.933 393.285C151.289 393.259 150.647 393.384 150.06 393.65L138.42 400.37C137.47 400.92 137.59 401.88 138.68 402.51L149.8 408.93C150.362 409.243 150.99 409.419 151.632 409.445C152.275 409.471 152.915 409.346 153.5 409.08V409.08Z" fill="#2B303F"/>
<path d="M116.66 430.36L148.66 411.87C149.61 411.32 149.5 410.36 148.4 409.73L137.29 403.31C136.726 402.997 136.097 402.821 135.453 402.795C134.809 402.769 134.167 402.894 133.58 403.16L101.58 421.65C100.63 422.19 100.75 423.15 101.85 423.79L112.96 430.2C113.522 430.513 114.149 430.69 114.791 430.718C115.433 430.746 116.073 430.623 116.66 430.36V430.36Z" fill="#2B303F"/>
<path d="M334.61 304.52L350.49 295.35C351.49 294.8 351.32 293.84 350.23 293.21L339.11 286.8C338.55 286.483 337.922 286.304 337.279 286.276C336.636 286.248 335.996 286.373 335.41 286.64L319.53 295.81C318.58 296.36 318.7 297.32 319.79 297.95L330.89 304.37C331.455 304.686 332.086 304.864 332.732 304.89C333.378 304.916 334.022 304.79 334.61 304.52Z" fill="#2B303F"/>
<path d="M52.18 393.13L286.02 258.13C287.02 257.59 286.85 256.63 285.75 255.99L280.19 252.79C279.629 252.476 279.002 252.297 278.359 252.27C277.716 252.242 277.076 252.365 276.49 252.63L42.65 387.63C41.7 388.18 41.82 389.13 42.92 389.77L48.47 393C49.0354 393.31 49.6654 393.483 50.3096 393.505C50.9538 393.528 51.5944 393.399 52.18 393.13V393.13Z" fill="#2B303F"/>
<path d="M197.04 408.48C197.374 409.208 197.945 409.8 198.66 410.16L263 447.31C264.083 447.912 265.292 448.252 266.531 448.302C267.769 448.353 269.002 448.112 270.13 447.6L380.13 384.11C380.6 383.866 380.979 383.477 381.21 383C381.61 382 381.05 380.89 379.59 380.05L315.24 342.89C314.157 342.288 312.948 341.948 311.709 341.898C310.471 341.847 309.238 342.088 308.11 342.6L198.11 406.09C197.665 406.283 197.309 406.635 197.111 407.077C196.913 407.52 196.888 408.02 197.04 408.48V408.48Z" fill="#B1B4C4"/>
<path d="M197.04 408.48C197.374 409.208 197.945 409.8 198.66 410.16L263 447.31C264.083 447.912 265.292 448.252 266.531 448.302C267.769 448.353 269.002 448.112 270.13 447.6L380.13 384.11C380.6 383.866 380.979 383.477 381.21 383C380.869 382.28 380.3 381.693 379.59 381.33L315.24 344.18C314.157 343.577 312.949 343.236 311.711 343.184C310.473 343.132 309.239 343.37 308.11 343.88L198.11 407.38C197.643 407.62 197.267 408.007 197.04 408.48V408.48Z" fill="#C3C6D1"/>
<path d="M34.38 382.89L268.22 247.89C268.735 247.509 269.154 247.014 269.444 246.442C269.734 245.871 269.887 245.24 269.89 244.6V241.85C269.89 240.58 269.12 240 268.17 240.55L34.33 375.55C33.8061 375.923 33.3774 376.415 33.0786 376.985C32.7798 377.555 32.6193 378.187 32.61 378.83V381.58C32.66 382.86 33.43 383.44 34.38 382.89Z" fill="#2B303F"/>
<path d="M232.89 234.56L255.99 221.25C258.88 219.58 261.23 215.09 261.23 211.25V186.48C261.23 182.62 258.88 180.85 255.99 182.48L232.89 195.83C229.99 197.5 227.65 201.99 227.65 205.83V230.6C227.69 234.46 230.03 236.23 232.89 234.56Z" fill="#E9EAF2"/>
<path d="M232.98 177.83L256.04 164.52C258.93 162.85 261.28 156.02 261.28 152.68V123.76C261.28 119.9 258.93 118.13 256.04 119.76L232.98 133.07C230.08 134.74 227.74 139.23 227.74 143.07V171.99C227.74 175.39 230.08 179.5 232.98 177.83Z" fill="#E9EAF2"/>
<path d="M244.38 158.51C249.07 155.8 252.89 149.18 252.89 143.76C252.89 138.34 249.07 136.13 244.38 138.84C239.69 141.55 235.86 148.17 235.86 153.59C235.86 159.01 239.68 161.22 244.38 158.51ZM244.38 141.36C247.87 139.36 250.71 140.99 250.71 145.02C250.596 147.223 249.963 149.367 248.863 151.279C247.763 153.19 246.227 154.815 244.38 156.02C240.88 158.02 238.04 156.4 238.04 152.37C238.154 150.165 238.787 148.018 239.889 146.104C240.991 144.191 242.53 142.565 244.38 141.36V141.36Z" fill="#E11D48"/>
<path d="M242.04 154.5L245.9 148.36V143.25L243.72 144.51V148.48L240.6 153.43L242.04 154.5Z" fill="#E11D48"/>
<path d="M233.01 116.66L256.07 103.35C258.96 101.67 261.31 94.15 261.31 90.8V64.18C261.31 60.84 258.96 59.48 256.07 61.18L233.01 74.5C231.484 75.4925 230.214 76.8314 229.304 78.4075C228.393 79.9836 227.868 81.7524 227.77 83.57V110.2C227.77 113.51 230.11 118.33 233.01 116.66Z" fill="#E9EAF2"/>
<path d="M244.54 84.7501C245.93 83.9501 247.05 84.6001 247.05 86.2101C247.004 87.0816 246.752 87.9299 246.316 88.6858C245.88 89.4417 245.271 90.0839 244.54 90.5601C243.15 91.3601 242.02 90.7101 242.02 89.1101C242.07 88.2368 242.324 87.3875 242.761 86.6302C243.199 85.873 243.808 85.229 244.54 84.7501V84.7501ZM237.83 85.7501L239.83 84.59C240.154 84.369 240.388 84.039 240.49 83.6601L241.01 81.5501C241.119 81.1718 241.356 80.8431 241.68 80.6201L247.38 77.3301C247.66 77.1701 247.95 77.2401 248.04 77.5001L248.56 79.0001C248.586 79.0606 248.625 79.1144 248.675 79.1573C248.725 79.2002 248.784 79.2311 248.848 79.2475C248.912 79.2639 248.979 79.2655 249.043 79.2521C249.108 79.2386 249.168 79.2106 249.22 79.1701L251.22 78.0101C252.14 77.4701 252.89 77.9101 252.89 79.0101V87.7301C252.858 88.3105 252.691 88.8753 252.401 89.379C252.11 89.8828 251.706 90.3113 251.22 90.6301L237.8 98.3801C236.88 98.9101 236.12 98.4801 236.12 97.3801V88.6301C236.156 88.0447 236.33 87.4762 236.627 86.9706C236.924 86.465 237.336 86.0365 237.83 85.7201V85.7501ZM244.54 92.5301C245.759 91.7329 246.773 90.6606 247.5 89.3995C248.228 88.1384 248.649 86.7239 248.73 85.2701C248.73 82.59 246.85 81.5101 244.54 82.8501C243.319 83.6442 242.303 84.7159 241.574 85.9776C240.846 87.2393 240.427 88.6553 240.35 90.1101C240.35 92.7501 242.22 93.8401 244.54 92.5001V92.5301ZM238.42 88.7001C238.588 88.5906 238.729 88.443 238.829 88.2693C238.93 88.0955 238.989 87.9005 239 87.7001C239 87.3201 238.74 87.1701 238.42 87.3601C238.25 87.4684 238.108 87.6155 238.005 87.7893C237.903 87.9631 237.843 88.1587 237.83 88.3601C237.83 88.7101 238.09 88.8601 238.42 88.6701V88.7001Z" fill="#E11D48"/>
<path d="M237.26 210.35C237.26 214.86 244.33 220.72 244.33 220.72C244.33 220.72 251.41 206.72 251.41 202.18C251.41 197.64 248.24 195.84 244.33 198.09C242.271 199.435 240.558 201.245 239.33 203.375C238.102 205.505 237.393 207.895 237.26 210.35Z" fill="#E11D48"/>
<path d="M241.06 212.622C239.252 211.578 239.251 208.196 241.057 205.068C242.863 201.94 245.792 200.25 247.6 201.294C249.408 202.338 249.41 205.72 247.604 208.848C245.798 211.976 242.868 213.666 241.06 212.622Z" fill="#E9EAF2"/>
<path d="M69.76 271L209.37 190.39C211.73 189.04 213.63 185.39 213.63 182.26V88.43C213.63 85.3 211.73 83.86 209.37 85.22L69.76 165.82C67.41 167.18 65.51 170.82 65.51 173.96V267.78C65.51 270.92 67.41 272.36 69.76 271Z" fill="#E9EAF2"/>
<path d="M85.89 202.79L194.1 140.32C196.72 138.8 198.85 134.74 198.85 131.25V124.18C198.85 120.68 196.72 119.08 194.1 120.59L85.89 183.06C83.27 184.57 81.15 188.63 81.15 192.13V199.2C81.15 202.7 83.27 204.3 85.89 202.79Z" fill="white"/>
<path d="M144.74 200.6L194.1 172.1C196.72 170.59 198.85 166.53 198.85 163.03V156C198.85 152.5 196.72 150.9 194.1 152.41L144.74 180.91C142.12 182.42 140 186.48 140 189.98V197C140 200.5 142.12 202.11 144.74 200.6Z" fill="#E11D48"/>
<path d="M41.03 291.64C41.03 291.64 93.66 303.24 136.21 255.98C178.76 208.72 213.47 214.78 213.47 214.78V244.28L41.03 343.83V291.64Z" fill="url(#paint1_linear_1_2)"/>
<path d="M41.03 291.64C41.03 291.64 93.66 303.24 136.21 255.98C178.76 208.72 213.47 214.78 213.47 214.78" stroke="#CCCEDD" stroke-width="1.06" stroke-miterlimit="10"/>
<path d="M213.7 44.4C215.239 47.1516 217.109 49.704 219.27 52C219.87 52.7 224.5 50.93 223.53 50.43C222.56 49.93 219.53 45.71 218.01 42.89C216.738 39.5233 215.657 36.0879 214.77 32.6C213.82 29.15 213 24.09 212.3 21.71C212.121 20.8309 211.692 20.0224 211.064 19.3818C210.435 18.7413 209.635 18.2961 208.76 18.1C207.09 17.71 206.01 18.17 206.32 20.19C206.89 23.71 209.62 37.45 213.7 44.4Z" fill="#FFCEA9"/>
<path d="M211.05 98.25C212.48 99.42 214.6 98.35 214.71 98.46C216.395 100.021 218.161 101.493 220 102.87C220.9 103.57 222.29 104.51 222 105.87C221.55 108.28 217.68 107.54 216.22 106.8C214.76 106.06 213.56 104.8 212.22 103.98C211.22 103.36 210.22 103.05 210.11 101.8C210.02 101.05 210.79 98.22 211.05 98.25Z" fill="#38226D"/>
<path d="M210.13 101.3C210.32 102.49 211.28 102.82 212.26 103.43C213.66 104.3 214.9 105.56 216.36 106.3C217.82 107.04 221.07 107.66 222.02 105.93C221.51 108.26 217.7 107.53 216.26 106.8C214.82 106.07 213.6 104.8 212.26 103.98C211.26 103.36 210.26 103.05 210.15 101.8C210.13 101.634 210.123 101.467 210.13 101.3V101.3Z" fill="#9C73FF"/>
<path d="M225.61 89.86C227.04 91.03 229.55 89.76 229.66 89.86C231.15 91.3769 232.729 92.8028 234.39 94.13C235.29 94.84 236.68 95.78 236.39 97.13C235.94 99.55 232.07 98.81 230.6 98.07C229.13 97.33 227.95 96.07 226.6 95.24C225.6 94.63 224.6 94.31 224.49 93.07C224.41 92.32 225.35 89.83 225.61 89.86Z" fill="#38226D"/>
<path d="M224.54 92.74C224.73 93.93 225.69 94.26 226.67 94.87C228.07 95.74 229.31 97 230.77 97.74C232.23 98.48 235.49 99.1 236.43 97.37C235.92 99.7 232.12 98.97 230.67 98.24C229.22 97.51 228.02 96.24 226.67 95.41C225.67 94.8 224.67 94.49 224.56 93.24C224.54 93.0741 224.533 92.9069 224.54 92.74V92.74Z" fill="#9C73FF"/>
<path d="M191.89 52.24C190.3 62.18 194.71 65.89 200.45 68C204.57 69.52 210.45 71.86 210.45 71.86C210.45 71.86 210.37 74.04 210.33 78.93C210.33 83.24 210.85 98.93 210.85 98.93C211.531 99.28 212.285 99.4626 213.05 99.4626C213.815 99.4626 214.569 99.28 215.25 98.93C215.25 98.93 217.56 86.88 218.05 81.44C218.72 74.07 219.85 69.24 219.47 67.65C219.14 66.25 211.08 62.29 208.52 60.17L225.41 65.83C225.074 67.6607 224.91 69.5188 224.92 71.38C225.07 77.23 225.4 89.9 225.4 89.9C225.4 89.9 227.71 91.57 229.69 89.9C229.69 89.9 233.94 64.83 233.42 61.51C232.93 58.36 218.05 51.92 215.42 49.7C214.963 49.3286 214.433 49.0575 213.865 48.9042C213.296 48.7508 212.702 48.7188 212.12 48.81L191.89 52.24Z" fill="#E11D48"/>
<path d="M232.35 56.38L221 49.83C220.902 49.771 220.79 49.7397 220.675 49.7397C220.56 49.7397 220.448 49.771 220.35 49.83L200.45 61.32L212.12 68.06L232.35 56.38Z" fill="#F4F4F4"/>
<path d="M211.59 65.65L210.72 66.15C210.65 66.15 210.66 66.26 210.72 66.31L211.55 66.79C211.592 66.8097 211.638 66.8199 211.685 66.8199C211.732 66.8199 211.778 66.8097 211.82 66.79L212.69 66.29C212.76 66.29 212.75 66.18 212.69 66.13L211.86 65.65C211.818 65.6304 211.772 65.6202 211.725 65.6202C211.678 65.6202 211.632 65.6304 211.59 65.65V65.65Z" fill="#3A2C6D"/>
<path d="M212.81 65L211.95 65.49C211.88 65.49 211.89 65.61 211.95 65.65L212.77 66.13C212.813 66.152 212.861 66.1635 212.91 66.1635C212.959 66.1635 213.007 66.152 213.05 66.13L213.91 65.63C213.98 65.63 213.97 65.52 213.91 65.47L213.09 65C213.047 64.9755 212.999 64.9625 212.95 64.9625C212.901 64.9625 212.853 64.9755 212.81 65V65Z" fill="#3A2C6D"/>
<path d="M214.05 64.23L213.19 64.73C213.12 64.73 213.12 64.84 213.19 64.89L214.01 65.36C214.053 65.382 214.101 65.3935 214.15 65.3935C214.199 65.3935 214.247 65.382 214.29 65.36L215.15 64.86C215.22 64.86 215.21 64.75 215.15 64.7L214.33 64.22C214.286 64.1996 214.237 64.1899 214.189 64.1916C214.14 64.1933 214.093 64.2065 214.05 64.23V64.23Z" fill="#3A2C6D"/>
<path d="M215.26 63.53L214.4 64.03C214.33 64.03 214.33 64.14 214.4 64.19L215.22 64.67C215.264 64.6899 215.312 64.7002 215.36 64.7002C215.408 64.7002 215.456 64.6899 215.5 64.67L216.36 64.17C216.43 64.17 216.42 64.06 216.36 64.01L215.54 63.53C215.496 63.5102 215.448 63.4999 215.4 63.4999C215.352 63.4999 215.304 63.5102 215.26 63.53V63.53Z" fill="#3A2C6D"/>
<path d="M216.49 62.82L215.62 63.32C215.55 63.32 215.56 63.44 215.62 63.48L216.45 63.96C216.492 63.9819 216.538 63.9933 216.585 63.9933C216.632 63.9933 216.678 63.9819 216.72 63.96L217.59 63.46C217.66 63.46 217.65 63.35 217.59 63.3L216.76 62.83C216.719 62.8066 216.673 62.7934 216.626 62.7916C216.579 62.7899 216.532 62.7996 216.49 62.82Z" fill="#3A2C6D"/>
<path d="M217.71 62.12L216.84 62.62C216.77 62.62 216.78 62.73 216.84 62.78L217.67 63.25C217.712 63.2719 217.758 63.2833 217.805 63.2833C217.852 63.2833 217.898 63.2719 217.94 63.25L218.81 62.75C218.88 62.75 218.87 62.64 218.81 62.6L217.98 62.12C217.938 62.0981 217.892 62.0867 217.845 62.0867C217.798 62.0867 217.752 62.0981 217.71 62.12V62.12Z" fill="#3A2C6D"/>
<path d="M218.89 61.41L218.03 61.91C217.96 61.91 217.97 62.02 218.03 62.07L218.85 62.55C218.894 62.5699 218.942 62.5802 218.99 62.5802C219.038 62.5802 219.086 62.5699 219.13 62.55L219.99 62.05C220.06 62.05 220.06 61.94 219.99 61.89L219.17 61.41C219.126 61.3902 219.078 61.3799 219.03 61.3799C218.982 61.3799 218.934 61.3902 218.89 61.41V61.41Z" fill="#3A2C6D"/>
<path d="M220.16 60.7L219.29 61.2C219.22 61.2 219.23 61.32 219.29 61.36L220.12 61.84C220.162 61.8619 220.208 61.8734 220.255 61.8734C220.302 61.8734 220.348 61.8619 220.39 61.84L221.26 61.34C221.33 61.34 221.32 61.23 221.26 61.18L220.43 60.71C220.389 60.6866 220.343 60.6734 220.296 60.6716C220.249 60.6699 220.202 60.6796 220.16 60.7V60.7Z" fill="#3A2C6D"/>
<path d="M221.38 60L220.52 60.5C220.45 60.5 220.46 60.61 220.52 60.66L221.34 61.13C221.383 61.152 221.431 61.1634 221.48 61.1634C221.529 61.1634 221.577 61.152 221.62 61.13L222.48 60.63C222.55 60.63 222.54 60.52 222.48 60.48L221.66 60C221.617 59.9781 221.569 59.9666 221.52 59.9666C221.471 59.9666 221.423 59.9781 221.38 60V60Z" fill="#3A2C6D"/>
<path d="M222.61 59.2901L221.74 59.7901C221.67 59.7901 221.68 59.9001 221.74 59.9501L222.57 60.4301C222.612 60.4497 222.658 60.4599 222.705 60.4599C222.752 60.4599 222.798 60.4497 222.84 60.4301L223.71 59.9301C223.78 59.9301 223.77 59.8201 223.71 59.7701L222.88 59.2901C222.838 59.2682 222.792 59.2567 222.745 59.2567C222.698 59.2567 222.652 59.2682 222.61 59.2901V59.2901Z" fill="#3A2C6D"/>
<path d="M223.83 58.58L222.97 59.08C222.9 59.08 222.9 59.19 222.97 59.24L223.79 59.72C223.833 59.742 223.881 59.7534 223.93 59.7534C223.979 59.7534 224.027 59.742 224.07 59.72L224.93 59.22C225 59.22 224.99 59.11 224.93 59.06L224.11 58.59C224.067 58.5665 224.02 58.5533 223.971 58.5516C223.923 58.5499 223.874 58.5596 223.83 58.58V58.58Z" fill="#3A2C6D"/>
<path d="M225.05 57.88L224.19 58.38C224.12 58.38 224.13 58.49 224.19 58.54L225.02 59.01C225.062 59.0319 225.108 59.0434 225.155 59.0434C225.202 59.0434 225.248 59.0319 225.29 59.01L226.16 58.51C226.23 58.51 226.22 58.4 226.16 58.35L225.33 57.88C225.287 57.8581 225.239 57.8466 225.19 57.8466C225.141 57.8466 225.093 57.8581 225.05 57.88V57.88Z" fill="#3A2C6D"/>
<path d="M226.28 57.17L225.41 57.67C225.34 57.67 225.35 57.78 225.41 57.83L226.24 58.3C226.282 58.3219 226.328 58.3334 226.375 58.3334C226.422 58.3334 226.468 58.3219 226.51 58.3L227.38 57.8C227.45 57.8 227.44 57.68 227.38 57.64L226.55 57.16C226.508 57.1397 226.461 57.1299 226.414 57.1317C226.367 57.1334 226.321 57.1466 226.28 57.17V57.17Z" fill="#3A2C6D"/>
<path d="M228.09 56.12L226.64 56.96C226.57 56.96 226.58 57.07 226.64 57.12L227.46 57.6C227.504 57.6199 227.552 57.6302 227.6 57.6302C227.648 57.6302 227.696 57.6199 227.74 57.6L229.19 56.76C229.26 56.76 229.26 56.65 229.19 56.6L228.37 56.12C228.326 56.1001 228.278 56.0898 228.23 56.0898C228.182 56.0898 228.134 56.1001 228.09 56.12V56.12Z" fill="#3A2C6D"/>
<path d="M212.22 63.92L211.35 64.42C211.28 64.42 211.29 64.53 211.35 64.58L212.18 65.05C212.221 65.0747 212.267 65.0878 212.315 65.0878C212.363 65.0878 212.409 65.0747 212.45 65.05L213.32 64.56C213.39 64.56 213.38 64.44 213.32 64.4L212.49 63.92C212.448 63.8981 212.402 63.8867 212.355 63.8867C212.308 63.8867 212.262 63.8981 212.22 63.92V63.92Z" fill="#3A2C6D"/>
<path d="M213.44 63.21L212.58 63.71C212.51 63.71 212.52 63.82 212.58 63.87L213.4 64.35C213.444 64.3699 213.492 64.3802 213.54 64.3802C213.588 64.3802 213.636 64.3699 213.68 64.35L214.54 63.85C214.61 63.85 214.61 63.74 214.54 63.69L213.72 63.21C213.677 63.1881 213.629 63.1766 213.58 63.1766C213.531 63.1766 213.483 63.1881 213.44 63.21V63.21Z" fill="#3A2C6D"/>
<path d="M214.67 62.5L213.81 63C213.73 63 213.74 63.11 213.81 63.16L214.63 63.64C214.674 63.6599 214.722 63.6702 214.77 63.6702C214.818 63.6702 214.866 63.6599 214.91 63.64L215.77 63.14C215.84 63.14 215.83 63.03 215.77 62.98L214.95 62.5C214.906 62.4801 214.858 62.4698 214.81 62.4698C214.762 62.4698 214.714 62.4801 214.67 62.5V62.5Z" fill="#3A2C6D"/>
<path d="M215.89 61.79L215.02 62.29C214.95 62.29 214.96 62.41 215.02 62.45L215.85 62.93C215.892 62.9519 215.938 62.9634 215.985 62.9634C216.032 62.9634 216.078 62.9519 216.12 62.93L216.99 62.43C217.06 62.43 217.05 62.32 216.99 62.27L216.16 61.8C216.119 61.7766 216.073 61.7634 216.026 61.7617C215.979 61.7599 215.932 61.7697 215.89 61.79Z" fill="#3A2C6D"/>
<path d="M217.11 61.09L216.25 61.59C216.18 61.59 216.19 61.7 216.25 61.75L217.07 62.23C217.114 62.2499 217.162 62.2602 217.21 62.2602C217.258 62.2602 217.306 62.2499 217.35 62.23L218.21 61.73C218.28 61.73 218.28 61.62 218.21 61.57L217.39 61.09C217.346 61.0702 217.298 61.0599 217.25 61.0599C217.202 61.0599 217.154 61.0702 217.11 61.09Z" fill="#3A2C6D"/>
<path d="M218.34 60.38L217.47 60.88C217.4 60.88 217.41 61 217.47 61.04L218.3 61.52C218.342 61.5419 218.388 61.5533 218.435 61.5533C218.482 61.5533 218.528 61.5419 218.57 61.52L219.44 61.02C219.51 61.02 219.5 60.91 219.44 60.86L218.61 60.39C218.569 60.3665 218.523 60.3534 218.476 60.3516C218.429 60.3499 218.382 60.3596 218.34 60.38V60.38Z" fill="#3A2C6D"/>
<path d="M219.57 59.68L218.7 60.18C218.63 60.18 218.64 60.29 218.7 60.33L219.53 60.81C219.572 60.8319 219.618 60.8433 219.665 60.8433C219.712 60.8433 219.758 60.8319 219.8 60.81L220.67 60.31C220.74 60.31 220.73 60.2 220.67 60.15L219.84 59.68C219.798 59.6581 219.752 59.6467 219.705 59.6467C219.658 59.6467 219.612 59.6581 219.57 59.68V59.68Z" fill="#3A2C6D"/>
<path d="M220.79 59L219.93 59.5C219.86 59.5 219.87 59.61 219.93 59.66L220.75 60.13C220.793 60.152 220.841 60.1634 220.89 60.1634C220.939 60.1634 220.987 60.152 221.03 60.13L221.89 59.63C221.96 59.63 221.95 59.52 221.89 59.48L221.07 59C221.027 58.9781 220.979 58.9666 220.93 58.9666C220.881 58.9666 220.833 58.9781 220.79 59V59Z" fill="#3A2C6D"/>
<path d="M222.02 58.26L221.15 58.76C221.08 58.76 221.09 58.87 221.15 58.92L221.98 59.39C222.022 59.4119 222.068 59.4233 222.115 59.4233C222.162 59.4233 222.208 59.4119 222.25 59.39L223.12 58.89C223.19 58.89 223.18 58.77 223.12 58.73L222.29 58.25C222.248 58.2296 222.201 58.2199 222.154 58.2216C222.107 58.2234 222.061 58.2365 222.02 58.26Z" fill="#3A2C6D"/>
<path d="M223.24 57.55L222.38 58.05C222.31 58.05 222.32 58.16 222.38 58.21L223.21 58.69C223.252 58.7097 223.298 58.7199 223.345 58.7199C223.392 58.7199 223.438 58.7097 223.48 58.69L224.35 58.19C224.42 58.19 224.41 58.08 224.35 58.03L223.52 57.55C223.476 57.5301 223.428 57.5198 223.38 57.5198C223.332 57.5198 223.284 57.5301 223.24 57.55V57.55Z" fill="#3A2C6D"/>
<path d="M224.47 56.84L223.61 57.34C223.54 57.34 223.54 57.45 223.61 57.5L224.43 57.98C224.473 58.002 224.521 58.0135 224.57 58.0135C224.619 58.0135 224.667 58.002 224.71 57.98L225.57 57.48C225.64 57.48 225.63 57.37 225.57 57.32L224.75 56.84C224.706 56.8202 224.658 56.8099 224.61 56.8099C224.562 56.8099 224.514 56.8202 224.47 56.84V56.84Z" fill="#3A2C6D"/>
<path d="M225.7 56.14L224.83 56.63C224.76 56.63 224.77 56.75 224.83 56.79L225.66 57.27C225.702 57.2919 225.748 57.3034 225.795 57.3034C225.842 57.3034 225.888 57.2919 225.93 57.27L226.8 56.77C226.87 56.77 226.86 56.66 226.8 56.61L225.97 56.14C225.929 56.1153 225.883 56.1022 225.835 56.1022C225.787 56.1022 225.741 56.1153 225.7 56.14V56.14Z" fill="#3A2C6D"/>
<path d="M210.99 64.63L209.54 65.47C209.47 65.47 209.47 65.58 209.54 65.63L210.36 66.1C210.403 66.122 210.451 66.1334 210.5 66.1334C210.549 66.1334 210.597 66.122 210.64 66.1L212.09 65.26C212.16 65.26 212.15 65.15 212.09 65.1L211.27 64.63C211.227 64.6081 211.179 64.5966 211.13 64.5966C211.081 64.5966 211.033 64.6081 210.99 64.63Z" fill="#3A2C6D"/>
<path d="M228.03 56.08L227.17 56.58C227.129 56.5995 227.085 56.6096 227.04 56.6096C226.995 56.6096 226.951 56.5995 226.91 56.58L226.04 56.07C226.025 56.0643 226.012 56.0541 226.002 56.0407C225.993 56.0273 225.988 56.0113 225.988 55.995C225.988 55.9787 225.993 55.9627 226.002 55.9493C226.012 55.9359 226.025 55.9257 226.04 55.92H226.11C226.17 55.92 226.17 55.83 226.11 55.79L225.19 55.26C225.11 55.26 225.11 55.15 225.19 55.11L225.74 54.79C225.781 54.7705 225.825 54.7604 225.87 54.7604C225.915 54.7604 225.959 54.7705 226 54.79L226.86 55.29L227.04 55.39L227.17 55.47L227.3 55.54L228.04 55.97C228.053 55.9861 228.059 56.0065 228.057 56.027C228.055 56.0475 228.046 56.0665 228.03 56.08Z" fill="#3A2C6D"/>
<path d="M206.89 62.91L206.02 63.41C205.95 63.41 205.96 63.52 206.02 63.57L206.85 64.0401C206.891 64.0648 206.937 64.0778 206.985 64.0778C207.033 64.0778 207.079 64.0648 207.12 64.0401L207.99 63.55C208.06 63.5 208.05 63.43 207.99 63.39L207.16 62.91C207.118 62.8882 207.072 62.8767 207.025 62.8767C206.978 62.8767 206.932 62.8882 206.89 62.91V62.91Z" fill="#3A2C6D"/>
<path d="M208.07 62.2L207.2 62.7C207.13 62.7 207.14 62.82 207.2 62.86L208.03 63.34C208.072 63.3619 208.118 63.3734 208.165 63.3734C208.212 63.3734 208.258 63.3619 208.3 63.34L209.17 62.84C209.24 62.84 209.23 62.73 209.17 62.68L208.34 62.21C208.299 62.1866 208.253 62.1734 208.206 62.1716C208.159 62.1699 208.112 62.1796 208.07 62.2V62.2Z" fill="#3A2C6D"/>
<path d="M209.29 61.5L208.42 62C208.35 62 208.36 62.11 208.42 62.16L209.25 62.6301C209.292 62.6519 209.338 62.6634 209.385 62.6634C209.432 62.6634 209.478 62.6519 209.52 62.6301L210.39 62.1301C210.46 62.1301 210.45 62.0101 210.39 61.9701L209.56 61.4901C209.518 61.4697 209.471 61.4599 209.424 61.4617C209.377 61.4634 209.331 61.4766 209.29 61.5Z" fill="#3A2C6D"/>
<path d="M219.68 55.5L218.82 56C218.75 56 218.76 56.11 218.82 56.16L219.64 56.63C219.683 56.652 219.731 56.6634 219.78 56.6634C219.829 56.6634 219.877 56.652 219.92 56.63L220.78 56.13C220.86 56.13 220.85 56.02 220.78 55.97L219.96 55.5C219.917 55.4781 219.869 55.4666 219.82 55.4666C219.771 55.4666 219.723 55.4781 219.68 55.5V55.5Z" fill="#3A2C6D"/>
<path d="M220.89 54.79L220.02 55.29C219.95 55.29 219.96 55.4 220.02 55.45L220.85 55.93C220.892 55.9497 220.938 55.9599 220.985 55.9599C221.032 55.9599 221.078 55.9497 221.12 55.93L221.99 55.43C222.06 55.43 222.05 55.32 221.99 55.27L221.16 54.79C221.118 54.7703 221.072 54.7601 221.025 54.7601C220.978 54.7601 220.932 54.7703 220.89 54.79V54.79Z" fill="#3A2C6D"/>
<path d="M222.13 54.09L221.26 54.59C221.19 54.59 221.2 54.7 221.26 54.75L222.09 55.22C222.132 55.2419 222.178 55.2534 222.225 55.2534C222.272 55.2534 222.318 55.2419 222.36 55.22L223.23 54.72C223.3 54.72 223.29 54.61 223.23 54.57L222.4 54.09C222.358 54.0681 222.312 54.0567 222.265 54.0567C222.218 54.0567 222.172 54.0681 222.13 54.09V54.09Z" fill="#3A2C6D"/>
<path d="M223.35 53.38L222.48 53.88C222.41 53.88 222.42 53.99 222.48 54.04L223.31 54.52C223.352 54.5397 223.398 54.5499 223.445 54.5499C223.492 54.5499 223.538 54.5397 223.58 54.52L224.45 54.02C224.52 54.02 224.51 53.91 224.45 53.86L223.62 53.38C223.578 53.3604 223.532 53.3502 223.485 53.3502C223.438 53.3502 223.392 53.3604 223.35 53.38V53.38Z" fill="#3A2C6D"/>
<path d="M210.82 60.61L209.64 61.29C209.57 61.29 209.58 61.41 209.64 61.45L210.47 61.93C210.512 61.9519 210.558 61.9634 210.605 61.9634C210.652 61.9634 210.698 61.9519 210.74 61.93L211.89 61.26C211.96 61.26 211.96 61.15 211.89 61.1L211.07 60.62C210.991 60.5851 210.902 60.5815 210.82 60.61V60.61Z" fill="#3A2C6D"/>
<path d="M218.46 56.2L217.28 56.88C217.21 56.88 217.22 56.99 217.28 57.04L218.11 57.52C218.152 57.5397 218.198 57.5499 218.245 57.5499C218.292 57.5499 218.338 57.5397 218.38 57.52L219.56 56.84C219.63 56.84 219.63 56.73 219.56 56.68L218.74 56.2C218.696 56.1801 218.648 56.1699 218.6 56.1699C218.552 56.1699 218.504 56.1801 218.46 56.2V56.2Z" fill="#3A2C6D"/>
<path d="M216.89 57.09L211.14 60.41C211.07 60.41 211.08 60.52 211.14 60.57L211.96 61.04C212.003 61.062 212.051 61.0735 212.1 61.0735C212.149 61.0735 212.197 61.062 212.24 61.04L217.99 57.72C218.06 57.72 218.05 57.61 217.99 57.57L217.16 57.09C217.118 57.0681 217.072 57.0567 217.025 57.0567C216.978 57.0567 216.932 57.0681 216.89 57.09Z" fill="#3A2C6D"/>
<path d="M211.36 63L210.5 63.5C210.43 63.5 210.44 63.61 210.5 63.66L211.32 64.14C211.364 64.1599 211.412 64.1702 211.46 64.1702C211.508 64.1702 211.556 64.1599 211.6 64.14L212.46 63.64C212.53 63.64 212.53 63.53 212.46 63.48L211.64 63C211.596 62.9801 211.548 62.9698 211.5 62.9698C211.452 62.9698 211.404 62.9801 211.36 63V63Z" fill="#3A2C6D"/>
<path d="M212.59 62.33L211.72 62.83C211.65 62.83 211.66 62.95 211.72 62.99L212.55 63.47C212.592 63.4919 212.638 63.5034 212.685 63.5034C212.732 63.5034 212.778 63.4919 212.82 63.47L213.69 62.97C213.76 62.97 213.75 62.86 213.69 62.81L212.86 62.34C212.819 62.3166 212.773 62.3034 212.726 62.3017C212.679 62.2999 212.632 62.3096 212.59 62.33V62.33Z" fill="#3A2C6D"/>
<path d="M213.81 61.63L212.94 62.13C212.87 62.13 212.88 62.24 212.94 62.29L213.77 62.76C213.813 62.782 213.861 62.7934 213.91 62.7934C213.959 62.7934 214.007 62.782 214.05 62.76L214.91 62.26C214.98 62.21 214.97 62.14 214.91 62.1L214.08 61.62C214.038 61.5996 213.991 61.5899 213.944 61.5916C213.897 61.5934 213.851 61.6065 213.81 61.63V61.63Z" fill="#3A2C6D"/>
<path d="M215.03 60.9201L214.17 61.4201C214.1 61.4201 214.11 61.5301 214.17 61.5801L214.99 62.0601C215.034 62.0799 215.082 62.0902 215.13 62.0902C215.178 62.0902 215.226 62.0799 215.27 62.0601L216.13 61.5601C216.2 61.5601 216.19 61.4501 216.13 61.4001L215.31 60.9201C215.266 60.9002 215.218 60.8899 215.17 60.8899C215.122 60.8899 215.074 60.9002 215.03 60.9201V60.9201Z" fill="#3A2C6D"/>
<path d="M216.26 60.22L215.39 60.72C215.32 60.72 215.33 60.83 215.39 60.88L216.22 61.35C216.262 61.3719 216.308 61.3834 216.355 61.3834C216.402 61.3834 216.448 61.3719 216.49 61.35L217.36 60.85C217.43 60.85 217.42 60.74 217.36 60.69L216.53 60.22C216.488 60.1982 216.442 60.1867 216.395 60.1867C216.348 60.1867 216.302 60.1982 216.26 60.22V60.22Z" fill="#3A2C6D"/>
<path d="M217.48 59.51L216.61 60.01C216.54 60.01 216.55 60.12 216.61 60.17L217.44 60.65C217.482 60.6697 217.528 60.6799 217.575 60.6799C217.622 60.6799 217.668 60.6697 217.71 60.65L218.58 60.15C218.65 60.15 218.64 60.04 218.58 59.99L217.75 59.51C217.708 59.4904 217.662 59.4802 217.615 59.4802C217.568 59.4802 217.522 59.4904 217.48 59.51V59.51Z" fill="#3A2C6D"/>
<path d="M218.7 58.8L217.84 59.3C217.77 59.3 217.77 59.42 217.84 59.46L218.66 59.94C218.703 59.962 218.751 59.9734 218.8 59.9734C218.849 59.9734 218.897 59.962 218.94 59.94L219.8 59.44C219.87 59.44 219.86 59.33 219.8 59.28L218.98 58.81C218.937 58.7865 218.89 58.7733 218.841 58.7716C218.793 58.7698 218.744 58.7796 218.7 58.8V58.8Z" fill="#3A2C6D"/>
<path d="M219.89 58.1L219.03 58.6C218.96 58.6 218.97 58.71 219.03 58.76L219.85 59.23C219.893 59.2546 219.941 59.2675 219.99 59.2675C220.039 59.2675 220.087 59.2546 220.13 59.23L220.99 58.74C221.06 58.74 221.06 58.62 220.99 58.58L220.17 58.1C220.127 58.078 220.079 58.0666 220.03 58.0666C219.981 58.0666 219.933 58.078 219.89 58.1V58.1Z" fill="#3A2C6D"/>
<path d="M221.15 57.39L220.28 57.89C220.21 57.89 220.22 58 220.28 58.05L221.11 58.53C221.152 58.5497 221.198 58.5599 221.245 58.5599C221.292 58.5599 221.338 58.5497 221.38 58.53L222.25 58.03C222.32 58.03 222.31 57.92 222.25 57.87L221.42 57.39C221.378 57.3704 221.332 57.3602 221.285 57.3602C221.238 57.3602 221.192 57.3704 221.15 57.39V57.39Z" fill="#3A2C6D"/>
<path d="M222.37 56.6901L221.51 57.1901C221.43 57.1901 221.44 57.3001 221.51 57.3401L222.34 57.8201C222.383 57.842 222.431 57.8535 222.48 57.8535C222.529 57.8535 222.577 57.842 222.62 57.8201L223.48 57.3201C223.55 57.3201 223.54 57.2101 223.48 57.1601L222.66 56.6901C222.615 56.6664 222.566 56.6541 222.515 56.6541C222.464 56.6541 222.415 56.6664 222.37 56.6901Z" fill="#3A2C6D"/>
<path d="M223.59 56L222.73 56.5C222.66 56.5 222.67 56.61 222.73 56.66L223.55 57.14C223.594 57.1599 223.642 57.1702 223.69 57.1702C223.738 57.1702 223.786 57.1599 223.83 57.14L224.69 56.64C224.76 56.64 224.75 56.53 224.69 56.48L223.89 56C223.844 55.9746 223.792 55.9613 223.74 55.9613C223.688 55.9613 223.636 55.9746 223.59 56V56Z" fill="#3A2C6D"/>
<path d="M224.82 55.27L223.95 55.77C223.88 55.77 223.89 55.89 223.95 55.93L224.78 56.41C224.822 56.4319 224.868 56.4434 224.915 56.4434C224.962 56.4434 225.008 56.4319 225.05 56.41L225.92 55.91C225.99 55.91 225.98 55.8 225.92 55.75L225.09 55.28C225.049 55.2566 225.003 55.2434 224.956 55.2417C224.909 55.2399 224.862 55.2496 224.82 55.27V55.27Z" fill="#3A2C6D"/>
<path d="M210.14 63.75L208.35 64.75C208.28 64.75 208.29 64.86 208.35 64.91L209.18 65.39C209.222 65.4097 209.268 65.4199 209.315 65.4199C209.362 65.4199 209.408 65.4097 209.45 65.39L211.24 64.39C211.31 64.39 211.3 64.28 211.24 64.23L210.42 63.76C210.377 63.7365 210.33 63.7233 210.281 63.7216C210.233 63.7198 210.184 63.7296 210.14 63.75V63.75Z" fill="#3A2C6D"/>
<path d="M209.57 62.71L208.71 63.21C208.63 63.21 208.64 63.3201 208.71 63.3601L209.53 63.84C209.573 63.862 209.621 63.8735 209.67 63.8735C209.719 63.8735 209.767 63.862 209.81 63.84L210.67 63.34C210.74 63.34 210.73 63.23 210.67 63.18L209.85 62.71C209.807 62.6881 209.759 62.6766 209.71 62.6766C209.661 62.6766 209.613 62.6881 209.57 62.71Z" fill="#3A2C6D"/>
<path d="M210.79 62L209.93 62.5C209.86 62.5 209.87 62.61 209.93 62.66L210.75 63.14C210.794 63.1599 210.842 63.1702 210.89 63.1702C210.938 63.1702 210.986 63.1599 211.03 63.14L211.89 62.64C211.96 62.64 211.95 62.53 211.89 62.48L211.07 62C211.027 61.9781 210.979 61.9666 210.93 61.9666C210.881 61.9666 210.833 61.9781 210.79 62V62Z" fill="#3A2C6D"/>
<path d="M212.02 61.29L211.15 61.79C211.08 61.79 211.09 61.91 211.15 61.95L211.98 62.43C212.022 62.4519 212.068 62.4634 212.115 62.4634C212.162 62.4634 212.208 62.4519 212.25 62.43L213.12 61.93C213.19 61.93 213.18 61.82 213.12 61.77L212.29 61.3C212.249 61.2766 212.203 61.2634 212.156 61.2617C212.109 61.2599 212.062 61.2697 212.02 61.29V61.29Z" fill="#3A2C6D"/>
<path d="M213.24 60.59L212.37 61.09C212.3 61.09 212.31 61.2 212.37 61.25L213.2 61.72C213.241 61.7448 213.287 61.7578 213.335 61.7578C213.383 61.7578 213.429 61.7448 213.47 61.72L214.34 61.23C214.41 61.18 214.4 61.11 214.34 61.07L213.51 60.59C213.468 60.5681 213.422 60.5567 213.375 60.5567C213.328 60.5567 213.282 60.5681 213.24 60.59V60.59Z" fill="#3A2C6D"/>
<path d="M214.46 59.88L213.6 60.38C213.53 60.38 213.53 60.49 213.6 60.54L214.42 61.02C214.464 61.0399 214.512 61.0502 214.56 61.0502C214.608 61.0502 214.656 61.0399 214.7 61.02L215.56 60.52C215.63 60.52 215.62 60.41 215.56 60.36L214.74 59.88C214.696 59.8601 214.648 59.8499 214.6 59.8499C214.552 59.8499 214.504 59.8601 214.46 59.88V59.88Z" fill="#3A2C6D"/>
<path d="M215.68 59.18L214.82 59.68C214.75 59.68 214.76 59.79 214.82 59.83L215.64 60.31C215.683 60.332 215.731 60.3434 215.78 60.3434C215.829 60.3434 215.877 60.332 215.92 60.31L216.78 59.81C216.85 59.81 216.85 59.7 216.78 59.65L215.96 59.18C215.917 59.1581 215.869 59.1466 215.82 59.1466C215.771 59.1466 215.723 59.1581 215.68 59.18V59.18Z" fill="#3A2C6D"/>
<path d="M216.89 58.47L216.02 58.97C215.95 58.97 215.96 59.08 216.02 59.13L216.85 59.61C216.892 59.6297 216.938 59.6399 216.985 59.6399C217.032 59.6399 217.078 59.6297 217.12 59.61L217.99 59.11C218.06 59.11 218.05 59 217.99 58.95L217.16 58.47C217.118 58.4503 217.072 58.4401 217.025 58.4401C216.978 58.4401 216.932 58.4503 216.89 58.47V58.47Z" fill="#3A2C6D"/>
<path d="M218.13 57.76L217.26 58.26C217.19 58.26 217.2 58.38 217.26 58.42L218.09 58.9C218.132 58.9219 218.178 58.9333 218.225 58.9333C218.272 58.9333 218.318 58.9219 218.36 58.9L219.23 58.4C219.3 58.4 219.29 58.29 219.23 58.24L218.4 57.77C218.359 57.7466 218.313 57.7334 218.266 57.7316C218.219 57.7299 218.172 57.7396 218.13 57.76Z" fill="#3A2C6D"/>
<path d="M219.35 57.06L218.49 57.56C218.42 57.56 218.43 57.67 218.49 57.72L219.31 58.19C219.353 58.212 219.401 58.2234 219.45 58.2234C219.499 58.2234 219.547 58.212 219.59 58.19L220.45 57.69C220.52 57.69 220.51 57.57 220.45 57.53L219.63 57.05C219.586 57.0296 219.537 57.0198 219.489 57.0216C219.44 57.0233 219.393 57.0365 219.35 57.06V57.06Z" fill="#3A2C6D"/>
<path d="M220.57 56.35L219.71 56.85C219.64 56.85 219.65 56.96 219.71 57.01L220.53 57.49C220.574 57.5099 220.622 57.5202 220.67 57.5202C220.718 57.5202 220.766 57.5099 220.81 57.49L221.67 56.99C221.75 56.99 221.74 56.88 221.67 56.83L220.85 56.35C220.806 56.3302 220.758 56.3199 220.71 56.3199C220.662 56.3199 220.614 56.3302 220.57 56.35Z" fill="#3A2C6D"/>
<path d="M221.8 55.65L220.93 56.15C220.86 56.15 220.87 56.26 220.93 56.31L221.76 56.78C221.802 56.8019 221.848 56.8134 221.895 56.8134C221.942 56.8134 221.988 56.8019 222.03 56.78L222.9 56.28C222.97 56.28 222.96 56.17 222.9 56.13L222.07 55.65C222.028 55.6281 221.982 55.6167 221.935 55.6167C221.888 55.6167 221.842 55.6281 221.8 55.65V55.65Z" fill="#3A2C6D"/>
<path d="M224.53 54.07L222.15 55.44C222.08 55.44 222.09 55.55 222.15 55.6L222.98 56.08C223.024 56.0999 223.072 56.1102 223.12 56.1102C223.168 56.1102 223.216 56.0999 223.26 56.08L225.63 54.7C225.7 54.7 225.7 54.59 225.63 54.55L224.81 54.07C224.767 54.0481 224.719 54.0366 224.67 54.0366C224.621 54.0366 224.573 54.0481 224.53 54.07V54.07Z" fill="#3A2C6D"/>
<path d="M208.35 63.41L207.17 64.09C207.1 64.09 207.11 64.21 207.17 64.25L207.99 64.73C208.033 64.752 208.081 64.7634 208.13 64.7634C208.179 64.7634 208.227 64.752 208.27 64.73L209.45 64.05C209.52 64.05 209.51 63.94 209.45 63.89L208.62 63.41C208.578 63.3903 208.532 63.3801 208.485 63.3801C208.438 63.3801 208.392 63.3903 208.35 63.41V63.41Z" fill="#3A2C6D"/>
<path d="M229.32 56.83L211.96 66.83C211.89 66.83 211.89 66.94 211.96 66.99L212.37 67.22C212.412 67.2419 212.458 67.2534 212.505 67.2534C212.552 67.2534 212.598 67.2419 212.64 67.22L230.01 57.22C230.08 57.22 230.07 57.11 230.01 57.06L229.6 56.82C229.555 56.8017 229.507 56.7931 229.459 56.7948C229.411 56.7966 229.363 56.8086 229.32 56.83V56.83Z" fill="#3A2C6D"/>
<path d="M209 57.28L209.12 57.34L212.12 59.08L217.45 56L217.56 55.93L214.45 54.14L209 57.28Z" fill="#BFBFBF"/>
<path d="M209.12 57.34L212.12 59.08L217.45 56L214.45 54.27L209.12 57.34Z" fill="#E5E5E5"/>
<path d="M200.45 61.32V61.59C200.448 61.7819 200.498 61.9707 200.592 62.1376C200.687 62.3044 200.824 62.4432 200.99 62.54L211.57 68.64C211.735 68.7377 211.923 68.7892 212.115 68.7892C212.307 68.7892 212.495 68.7377 212.66 68.64L231.8 57.64C231.974 57.5396 232.118 57.3932 232.215 57.2169C232.312 57.0406 232.359 56.841 232.35 56.64V56.37L212.12 68.05L200.45 61.32Z" fill="#E5E5E5"/>
<path d="M212.42 68.22C212.601 68.2913 212.795 68.321 212.989 68.3072C213.183 68.2933 213.371 68.2362 213.54 68.14L232.54 57.14C232.706 57.0446 232.849 56.9134 232.958 56.756C233.067 56.5986 233.139 56.419 233.17 56.23L235.26 43.79C235.265 43.7201 235.265 43.6499 235.26 43.58C235.261 43.4083 235.226 43.2382 235.159 43.0801C235.092 42.9219 234.994 42.779 234.87 42.66L215.07 54.09C214.951 54.1633 214.848 54.2608 214.769 54.3762C214.69 54.4916 214.636 54.6224 214.61 54.76L212.42 68.22Z" fill="#F4F4F4"/>
<path d="M212.12 68.06L212.25 68.14L212.42 68.22L214.68 54.76C214.706 54.6224 214.76 54.4916 214.839 54.3762C214.918 54.2608 215.021 54.1633 215.14 54.09L234.89 42.66C234.817 42.5773 234.729 42.5094 234.63 42.46L214.79 53.91C214.669 53.9822 214.564 54.0793 214.483 54.1947C214.402 54.3102 214.347 54.4415 214.32 54.58L212.12 68.06Z" fill="#E5E5E5"/>
<path d="M197.73 14.83C197.73 14.83 197.98 19.56 197.87 19.98C197.76 20.4 195.7 21.79 195.1 22.29C194.5 22.79 198.37 26.61 200.25 27.47C202.13 28.33 208.11 26.06 208.25 23.12C208.39 20.18 207.25 17.73 206.31 17.6C205.37 17.47 197.73 14.83 197.73 14.83Z" fill="#FFCEA9"/>
<path d="M197.21 20.8C197.21 20.8 200.64 25.92 205.43 26.4C206.94 24.91 207.08 19.61 204.99 17.92C204.99 17.92 206.91 16.36 208.23 16.67C209.66 17.5149 210.728 18.8571 211.23 20.44C212.457 23.9737 213.029 27.7012 212.92 31.44C212.84 36.44 212.92 49.15 212.92 49.15C212.639 50.6496 212.044 52.0726 211.173 53.3256C210.303 54.5786 209.177 55.6332 207.87 56.42C204.408 58.384 200.326 58.9493 196.46 58C194.03 57.43 193.13 56.08 192.29 54.31C192.51 50.8 193.9 43.55 193.29 39.12C192.68 34.69 191.77 31.39 191.53 27.82C191.29 24.25 192 24.31 193.8 23.03C194.881 22.2052 196.021 21.4599 197.21 20.8V20.8Z" fill="#F4F4F4"/>
<path d="M202.71 61.59C201.849 61.0168 200.95 60.5023 200.02 60.05C199.153 59.7733 198.364 59.2933 197.72 58.65C196.88 57.83 195.5 54.71 194.51 51.65C193.525 48.2184 193.136 44.6432 193.36 41.08C193.77 36.81 195.31 30.84 195.7 28.39C196.09 25.94 195.3 24.95 194.15 24.05C192.81 22.99 190.96 23.46 189.97 26.9C188.695 31.6593 187.957 36.5464 187.77 41.47C187.729 45.1275 188.293 48.7666 189.44 52.24C190.459 55.2155 191.836 58.0562 193.54 60.7C194.01 61.49 194.17 62.2 194.89 63.82C195.581 65.4478 196.659 66.8826 198.03 68C199.23 68.86 199.8 69 200.09 68.82C200.38 68.64 200.37 68.23 199.86 67.82C199.009 67.1507 198.284 66.3345 197.72 65.41C197.72 65.41 198.77 66.47 199.46 67.05C200.067 67.5631 200.74 67.9935 201.46 68.33C202.16 68.64 203.14 68.04 202.64 67.57C202.14 67.1 201.64 66.86 200.64 65.99C200.102 65.5336 199.622 65.0131 199.21 64.44C199.914 64.9818 200.659 65.4667 201.44 65.89C202.043 66.2548 202.735 66.4452 203.44 66.44C203.81 66.44 204.26 65.9 203.56 65.44C202.598 64.9188 201.701 64.2843 200.89 63.55C200.12 62.79 199.69 62.14 199.89 62.13C200.09 62.12 200.53 62.59 201.43 62.88C202.33 63.17 203.3 62.88 203.43 62.41C203.56 61.94 203.55 62 202.71 61.59Z" fill="#FFCEA9"/>
<path d="M208.45 7.77001C207.88 4.10001 205.23 1.32001 201.45 1.53001C199.925 1.60756 198.464 2.16241 197.272 3.11612C196.08 4.06982 195.218 5.37412 194.808 6.84456C194.397 8.315 194.46 9.87717 194.986 11.3102C195.512 12.7432 196.476 13.9745 197.74 14.83C197.874 15.3876 198.072 15.9278 198.33 16.44C199.66 18 203.71 19 204.89 18.8C205.58 18.7373 206.236 18.4681 206.771 18.0276C207.306 17.587 207.696 16.9954 207.89 16.33C209.15 13.45 208.76 9.59001 208.45 7.77001Z" fill="#FFCEA9"/>
<path d="M197.73 14.83L198.08 11.62C198.08 11.62 195.46 4.84 201.65 6.14C205.73 7 206.76 7.38 208 4.64C209.24 1.9 204.89 -0.569997 199.66 0.120003C197.868 0.305335 196.21 1.15785 195.017 2.50831C193.824 3.85877 193.183 5.60844 193.22 7.41C193.35 9.43 193.89 13.51 197.73 14.83Z" fill="#3A2C6D"/>
<path d="M187.14 33.23C187.14 33.23 190.52 36.59 194.51 35.62C195.08 35.23 196.46 27.38 196.46 27.38C196.46 27.38 196.46 23.03 193.12 23.14C189.78 23.25 187.14 33.23 187.14 33.23Z" fill="#EDEDED"/>
<path d="M212.64 26.71C213.585 26.676 214.481 26.2783 215.14 25.6C215 23.84 212.75 17.16 208.23 16.67C209.46 17.5324 210.434 18.7104 211.05 20.08C211.753 22.2448 212.285 24.4616 212.64 26.71V26.71Z" fill="#EDEDED"/>
<path d="M9.49002 311.15L93.01 262.93C98.26 259.93 102.51 251.78 102.51 244.79V113.38C102.51 106.38 98.26 103.18 93.01 106.2L9.49002 154.43C4.25002 157.43 0 165.58 0 172.57V304C0 311 4.25002 314.18 9.49002 311.15Z" fill="#211B49"/>
<path d="M6.15002 313.07L3.29001 311.66L5.22 307.87L6.15002 313.07Z" fill="#211B49"/>
<path d="M100.95 106.57C100.109 106.07 99.2255 105.645 98.31 105.3L96.19 109.49L100.95 106.57Z" fill="#211B49"/>
<path d="M80.02 134.7L95.21 125.93V120.45L80.02 129.22V134.7Z" fill="#E11D48"/>
<path d="M12.63 173.61L77.17 136.34V130.87L12.63 168.13V173.61Z" fill="#E35272"/>
<path d="M80.02 152.24L95.21 143.47V137.99L80.02 146.76V152.24Z" fill="#E11D48"/>
<path d="M34.46 178.54L77.17 153.88V148.4L34.46 173.06V178.54Z" fill="#F4CE2C"/>
<path d="M80.02 161L95.21 152.24V146.76L80.02 155.52V161Z" fill="#E11D48"/>
<path d="M24.02 193.34L77.17 162.65V157.17L24.02 187.86V193.34Z" fill="#FF8657"/>
<path d="M80.02 169.77L95.21 161V155.52L80.02 164.29V169.77Z" fill="#E11D48"/>
<path d="M40.15 192.79L77.17 171.42V165.94L40.15 187.31V192.79Z" fill="#E11D48"/>
<path d="M80.02 143.47L95.21 134.7V129.22L80.02 137.99V143.47Z" fill="#E11D48"/>
<path d="M44.9 163.75L77.17 145.11V139.63L44.9 158.26V163.75Z" fill="#4D3BFF"/>
<path d="M80.02 178.54L95.21 169.77V164.29L80.02 173.06V178.54Z" fill="#E11D48"/>
<path d="M58.19 191.14L77.17 180.18V174.7L58.19 185.66V191.14Z" fill="#C33AFC"/>
<path d="M80.02 196.07L95.21 187.31V181.83L80.02 190.6V196.07Z" fill="#E11D48"/>
<path d="M17.37 232.24L77.17 197.72V192.24L17.37 226.76V232.24Z" fill="#F4CE2C"/>
<path d="M80.02 204.84L95.21 196.07V190.59L80.02 199.36V204.84Z" fill="#E11D48"/>
<path d="M59.14 216.9L77.17 206.49V201.01L59.14 211.42V216.9Z" fill="#FF8657"/>
<path d="M80.02 213.61L95.21 204.84V199.36L80.02 208.13V213.61Z" fill="#E11D48"/>
<path d="M24.02 245.94L77.17 215.25V209.78L24.02 240.46V245.94Z" fill="#E11D48"/>
<path d="M80.02 187.31L95.21 178.54V173.06L80.02 181.83V187.31Z" fill="#E11D48"/>
<path d="M26.87 218L77.17 188.95V183.47L26.87 212.52V218Z" fill="#4D3BFF"/>
<path d="M80.02 222.38L95.21 213.61V208.13L80.02 216.9V222.38Z" fill="#E11D48"/>
<path d="M70.53 227.86L77.17 224.02V218.54L70.53 222.38V227.86Z" fill="#C33AFC"/>
<path d="M80.02 239.91L95.21 231.15V225.67L80.02 234.44V239.91Z" fill="#E11D48"/>
<path d="M64.83 248.68L77.17 241.56V236.08L64.83 243.2V248.68Z" fill="#F4CE2C"/>
<path d="M80.02 248.68L95.21 239.91V234.43L80.02 243.2V248.68Z" fill="#E11D48"/>
<path d="M44.9 268.96L77.17 250.33V244.85L44.9 263.48V268.96Z" fill="#FF8657"/>
<path d="M80.02 257.45L95.21 248.68V243.2L80.02 251.97V257.45Z" fill="#E11D48"/>
<path d="M25.92 288.69L77.17 259.09V253.61L25.92 283.21V288.69Z" fill="#EA4065"/>
<path d="M80.02 231.15L95.21 222.38V216.9L80.02 225.67V231.15Z" fill="#E11D48"/>
<path d="M12.63 270.06L77.17 232.79V227.31L12.63 264.57V270.06Z" fill="#4D3BFF"/>
<path d="M432.77 211.94L441.89 207.26L461 218.26C465.33 220.76 468.85 218.74 468.85 213.73V192.91C468.702 190.186 467.915 187.535 466.551 185.172C465.187 182.809 463.285 180.801 461 179.31L347.19 113.58C342.86 111.08 339.34 113.11 339.34 118.11V139C339.488 141.724 340.276 144.375 341.639 146.738C343.003 149.101 344.905 151.109 347.19 152.6L423.71 196.74" fill="#B1B4C4"/>
<path d="M342.19 112.77L337.89 114.51L341.53 118.25L344.11 114.12L342.19 112.77Z" fill="#B1B4C4"/>
<path d="M432.77 211.94L428.24 213.76L428.23 209.86L432.24 209.06L432.77 211.94Z" fill="#B1B4C4"/>
<path d="M461.28 221C461.11 221.36 466.19 219.28 466.37 219C466.55 218.72 460.21 215 460.21 215L461.28 221Z" fill="#B1B4C4"/>
<path d="M419.18 198.55L342.66 154.38C340.377 152.888 338.476 150.879 337.113 148.517C335.749 146.154 334.96 143.504 334.81 140.78V119.93C334.81 114.93 338.33 112.93 342.66 115.39L456.51 181.12C458.794 182.612 460.695 184.62 462.059 186.983C463.422 189.346 464.211 191.996 464.36 194.72V215.57C464.36 220.57 460.84 222.57 456.51 220.1L437.4 209.1L428.24 213.79L419.18 198.55Z" fill="#E9EAF2"/>
<path d="M345.02 133.53L454.15 196.53V189.28L345.02 126.27V133.53Z" fill="#E11D48"/>
<path d="M382.7 167.98L454.15 209.23V201.97L382.7 160.72V167.98Z" fill="#E11D48"/>
</g>
<defs>
<linearGradient id="paint0_linear_1_2" x1="147.643" y1="289.532" x2="64.5396" y2="144.932" gradientUnits="userSpaceOnUse">
<stop offset="0.21" stop-color="white" stop-opacity="0"/>
<stop offset="1" stop-color="white" stop-opacity="0.2"/>
</linearGradient>
<linearGradient id="paint1_linear_1_2" x1="126.117" y1="239.828" x2="148.573" y2="278.902" gradientUnits="userSpaceOnUse">
<stop stop-color="#E9EAF2" stop-opacity="0.8"/>
<stop offset="1" stop-color="#E9EAF2" stop-opacity="0"/>
</linearGradient>
<clipPath id="clip0_1_2">
<rect width="468.89" height="500" fill="white" transform="matrix(-1 0 0 1 468.89 0)"/>
</clipPath>
</defs>
</svg>
