<svg width="241" height="269" viewBox="0 0 241 269" fill="none" xmlns="http://www.w3.org/2000/svg">
<g clip-path="url(#clip0_1_2)">
<path d="M139.064 68.053C115.593 68.861 93.205 79.215 77.723 96.874C63.14 113.509 59.686 136.093 60.022 158.213C60.351 179.913 64.84 201.767 79.557 217.719C94.831 234.275 116.561 242.871 139.064 243.886C162.705 244.952 186.077 238.565 204.192 223.339C224.037 206.661 240.882 184.135 241 158.213C241.118 132.212 224.26 109.723 204.783 92.497C186.583 76.4 163.348 67.217 139.065 68.053H139.064Z" fill="white"/>
<path d="M70.432 240.214C70.432 240.214 92.394 267.511 11.685 254.206C11.685 254.206 3.811 237.562 41.323 234.56" fill="#1A1818"/>
<path d="M70.432 240.214C70.432 240.214 92.394 267.511 11.685 254.206C11.685 254.206 3.811 237.562 41.323 234.56" stroke="#1A1818" stroke-miterlimit="20"/>
<path d="M139.755 50.033C139.755 50.033 172.77 21.807 206.873 76.109C240.975 130.411 217.603 231.497 159.128 228.222C159.128 228.222 111.822 238.722 47.624 210.038C47.624 210.038 57.317 93.605 83.787 80.128C110.258 66.652 139.755 50.033 139.755 50.033V50.033Z" fill="white"/>
<path d="M139.755 50.033C139.755 50.033 172.77 21.807 206.873 76.109C240.975 130.411 217.603 231.497 159.128 228.222C159.128 228.222 111.822 238.722 47.624 210.038C47.624 210.038 57.317 93.605 83.787 80.128C110.258 66.652 139.755 50.033 139.755 50.033V50.033Z" stroke="#1A1818" stroke-miterlimit="20"/>
<path d="M134.438 118.02C134.438 118.02 134.762 143.403 103.229 156.772C103.229 156.772 92.996 161.478 89.237 169.6C85.479 177.722 80.009 239.764 80.009 239.764C80.009 239.764 55.001 247.23 49.639 232.768C44.279 218.305 60.357 148.815 60.357 148.815C60.7067 146.3 61.3779 143.839 62.354 141.495C65.966 132.305 75.996 116.812 103.388 109.059C143.825 97.611 133.758 118.001 133.758 118.001" fill="white"/>
<path d="M134.438 118.02C134.438 118.02 134.762 143.403 103.229 156.772C103.229 156.772 92.996 161.478 89.237 169.6C85.479 177.722 80.009 239.764 80.009 239.764C80.009 239.764 55.001 247.23 49.639 232.768C44.279 218.305 60.357 148.815 60.357 148.815C60.7067 146.3 61.3779 143.839 62.354 141.495C65.966 132.305 75.996 116.812 103.388 109.059C143.825 97.611 133.758 118.001 133.758 118.001" stroke="#1A1818" stroke-miterlimit="20"/>
<path d="M136.435 31.783C136.435 31.783 138.426 27.802 139.806 30.931C141.186 34.06 140.741 36.681 138.102 37.507C135.462 38.334 135.443 35.967 135.443 35.967C135.443 35.967 132.06 48.243 117.26 43.88C109.26 41.526 112.426 34.543 112.464 26.103C112.509 17.161 113.361 14.732 113.361 14.732L134.985 11.24L138.878 26.994L139.654 29.105L138.674 28.253L136.435 31.783Z" fill="white"/>
<path d="M136.435 31.783C136.435 31.783 138.426 27.802 139.806 30.931C141.186 34.06 140.741 36.681 138.102 37.507C135.462 38.334 135.443 35.967 135.443 35.967C135.443 35.967 132.06 48.243 117.26 43.88C109.26 41.526 112.426 34.543 112.464 26.103C112.509 17.161 113.361 14.732 113.361 14.732L134.985 11.24L138.878 26.994L139.654 29.105L138.674 28.253L136.435 31.783Z" stroke="#1A1818" stroke-miterlimit="20"/>
<path d="M96.894 250.284C96.894 250.284 118.849 277.581 38.146 264.276C37.6344 262.994 37.4022 261.618 37.4647 260.24C37.5273 258.861 37.8834 257.512 38.509 256.282C40.881 251.562 48.049 246.207 67.765 244.63" fill="#1A1818"/>
<path d="M96.894 250.284C96.894 250.284 118.849 277.581 38.146 264.276C37.6344 262.994 37.4022 261.618 37.4647 260.24C37.5273 258.861 37.8834 257.512 38.509 256.282C40.881 251.562 48.049 246.207 67.765 244.63" stroke="#1A1818" stroke-miterlimit="20"/>
<path d="M140.051 30.917C140.051 30.917 147.931 24.017 141.285 7.28999C134.836 -8.91501 126.785 9.19799 108.945 2.12599C107.183 1.43199 104.88 1.63599 103.914 3.25799C102.947 4.87899 102.057 8.34599 105.237 12.078C118.955 28.074 134.792 11.838 134.792 11.838C134.792 11.838 131.364 22.961 140.052 30.918L140.051 30.917Z" fill="#1A1818"/>
<path d="M140.051 30.917C140.051 30.917 147.931 24.017 141.285 7.28999C134.836 -8.91501 126.785 9.19799 108.945 2.12599C107.183 1.43199 104.88 1.63599 103.914 3.25799C102.947 4.87899 102.057 8.34599 105.237 12.078C118.955 28.074 134.792 11.838 134.792 11.838C134.792 11.838 131.364 22.961 140.052 30.918L140.051 30.917Z" stroke="#1A1818" stroke-miterlimit="20"/>
<path d="M130.77 23.9C130.77 23.9 128.455 19.918 123.774 22.456Z" fill="white"/>
<path d="M130.43 24.097C130.326 23.915 130.2 23.747 130.056 23.594C129.721 23.204 129.326 22.869 128.886 22.602C127.321 21.661 125.515 21.966 123.969 22.799C123.518 23.041 123.117 22.354 123.569 22.112C124.264 21.6913 125.037 21.4154 125.841 21.3008C126.645 21.1861 127.464 21.2352 128.249 21.445C129.211 21.764 130.063 22.3505 130.704 23.136C130.857 23.312 130.995 23.499 131.118 23.696C131.158 23.786 131.163 23.8874 131.132 23.9809C131.102 24.0744 131.038 24.1535 130.953 24.2029C130.868 24.2524 130.768 24.2689 130.672 24.2491C130.575 24.2294 130.49 24.1749 130.431 24.096L130.43 24.097Z" fill="#1A1818"/>
<path d="M119.5 22.55C119.5 22.55 117.694 18.568 114.037 21.106Z" fill="white"/>
<path d="M119.164 22.746C118.98 22.357 118.738 21.999 118.445 21.684C118.177 21.3581 117.838 21.0968 117.455 20.9195C117.072 20.7423 116.654 20.6536 116.232 20.66C115.511 20.736 114.824 21.009 114.247 21.449C113.821 21.741 113.421 21.048 113.84 20.762C114.359 20.3579 114.969 20.0884 115.618 19.9774C116.266 19.8665 116.931 19.9175 117.555 20.126C118.389 20.4917 119.09 21.1043 119.565 21.881C119.67 22.041 119.765 22.206 119.851 22.377C120.061 22.841 119.374 23.248 119.164 22.777V22.746Z" fill="#1A1818"/>
<path d="M119.137 44.607L119.347 48.372C119.347 48.372 113.839 56.482 114.939 59.872C116.039 63.262 122.508 66.486 122.508 66.486C122.508 66.486 131.278 59.668 131.52 59.343C131.762 59.019 132.9 52.143 132.9 52.143L132.334 48.163L130.738 46.643L129.962 43.1C129.962 43.1 126.482 45.593 119.137 44.607V44.607Z" fill="white"/>
<path d="M119.137 44.607L119.347 48.372C119.347 48.372 113.839 56.482 114.939 59.872C116.039 63.262 122.508 66.486 122.508 66.486C122.508 66.486 131.278 59.668 131.52 59.343C131.762 59.019 132.9 52.143 132.9 52.143L132.334 48.163L130.738 46.643L129.962 43.1C129.962 43.1 126.482 45.593 119.137 44.607V44.607Z" stroke="#1A1818" stroke-miterlimit="20"/>
<path d="M125.474 27.731C125.323 27.7355 125.173 27.7097 125.033 27.6552C124.892 27.6006 124.764 27.5184 124.656 27.4135C124.548 27.3085 124.462 27.1829 124.403 27.0441C124.345 26.9053 124.314 26.7562 124.314 26.6055C124.314 26.4548 124.345 26.3056 124.403 26.1669C124.462 26.0281 124.548 25.9025 124.656 25.7975C124.764 25.6926 124.892 25.6104 125.033 25.5558C125.173 25.5013 125.323 25.4755 125.474 25.48C125.767 25.4887 126.044 25.6111 126.248 25.8212C126.452 26.0314 126.566 26.3127 126.566 26.6055C126.566 26.8983 126.452 27.1796 126.248 27.3897C126.044 27.5999 125.767 27.7223 125.474 27.731V27.731Z" fill="#1A1818"/>
<path d="M125.474 27.731C125.323 27.7355 125.173 27.7097 125.033 27.6552C124.892 27.6006 124.764 27.5184 124.656 27.4135C124.548 27.3085 124.462 27.1829 124.403 27.0441C124.345 26.9053 124.314 26.7562 124.314 26.6055C124.314 26.4548 124.345 26.3056 124.403 26.1669C124.462 26.0281 124.548 25.9025 124.656 25.7975C124.764 25.6926 124.892 25.6104 125.033 25.5558C125.173 25.5013 125.323 25.4755 125.474 25.48C125.767 25.4887 126.044 25.6111 126.248 25.8212C126.452 26.0314 126.566 26.3127 126.566 26.6055C126.566 26.8983 126.452 27.1796 126.248 27.3897C126.044 27.5999 125.767 27.7223 125.474 27.731V27.731Z" stroke="#1A1818" stroke-width="0.25" stroke-miterlimit="20"/>
<path d="M115.864 26.601C115.713 26.6055 115.563 26.5797 115.423 26.5251C115.282 26.4706 115.154 26.3884 115.046 26.2835C114.938 26.1785 114.852 26.0529 114.793 25.9141C114.735 25.7753 114.704 25.6262 114.704 25.4755C114.704 25.3248 114.735 25.1756 114.793 25.0368C114.852 24.8981 114.938 24.7725 115.046 24.6675C115.154 24.5626 115.282 24.4804 115.423 24.4258C115.563 24.3713 115.713 24.3455 115.864 24.35C116.157 24.3587 116.434 24.4811 116.638 24.6912C116.842 24.9014 116.956 25.1827 116.956 25.4755C116.956 25.7683 116.842 26.0496 116.638 26.2597C116.434 26.4699 116.157 26.5923 115.864 26.601V26.601Z" fill="#1A1818"/>
<path d="M115.864 26.601C115.713 26.6055 115.563 26.5797 115.423 26.5251C115.282 26.4706 115.154 26.3884 115.046 26.2835C114.938 26.1785 114.852 26.0529 114.793 25.9141C114.735 25.7753 114.704 25.6262 114.704 25.4755C114.704 25.3248 114.735 25.1756 114.793 25.0368C114.852 24.8981 114.938 24.7725 115.046 24.6675C115.154 24.5626 115.282 24.4804 115.423 24.4258C115.563 24.3713 115.713 24.3455 115.864 24.35C116.157 24.3587 116.434 24.4811 116.638 24.6912C116.842 24.9014 116.956 25.1827 116.956 25.4755C116.956 25.7683 116.842 26.0496 116.638 26.2597C116.434 26.4699 116.157 26.5923 115.864 26.601V26.601Z" stroke="#1A1818" stroke-width="0.25" stroke-miterlimit="20"/>
<path d="M120.466 26.755C120.2 27.9833 119.575 29.1052 118.672 29.979C117.954 30.755 116.879 31.41 116.904 32.593C116.926 32.9608 117.04 33.3172 117.236 33.6294C117.432 33.9417 117.703 34.1998 118.024 34.38C118.462 34.585 118.954 34.647 119.429 34.558C119.695 34.5301 119.956 34.4662 120.205 34.368C120.281 34.368 120.358 34.278 120.434 34.253C120.51 34.228 120.542 34.107 120.472 34.253C120.657 33.783 121.426 33.986 121.242 34.463C120.917 35.277 119.48 35.385 118.762 35.347C118.299 35.3143 117.852 35.1685 117.459 34.9223C117.066 34.676 116.74 34.337 116.508 33.935C116.277 33.5331 116.148 33.0804 116.133 32.6169C116.118 32.1534 116.217 31.6933 116.421 31.277C116.78 30.7009 117.231 30.1874 117.756 29.757C118.214 29.3131 118.621 28.8202 118.971 28.287C119.212 27.9186 119.411 27.5241 119.563 27.111L119.658 26.781C119.658 26.723 119.703 26.507 119.658 26.729C119.728 26.227 120.523 26.22 120.453 26.729L120.466 26.755Z" fill="#1A1818"/>
<path d="M125.98 36.79C125.872 37.006 120.46 41.878 115.422 37.172Z" fill="white"/>
<path d="M126.32 37C126.004 37.385 125.62 37.71 125.188 37.96C124.39 38.5089 123.516 38.9375 122.593 39.232C121.306 39.6447 119.93 39.6963 118.616 39.381C117.301 39.0657 116.099 38.3957 115.139 37.444C114.764 37.094 115.324 36.534 115.699 36.884C116.576 37.7494 117.677 38.3527 118.879 38.6258C120.08 38.899 121.334 38.8311 122.499 38.43C123.299 38.1532 124.056 37.7658 124.749 37.279C124.97 37.1303 125.183 36.9691 125.386 36.796L125.576 36.618C125.627 36.567 125.678 36.484 125.621 36.618C125.68 36.5391 125.765 36.4846 125.862 36.4648C125.958 36.4451 126.058 36.4616 126.143 36.511C126.228 36.5605 126.292 36.6396 126.322 36.7331C126.353 36.8266 126.348 36.928 126.308 37.018L126.32 37Z" fill="#1A1818"/>
<path d="M151.335 118.553C145.745 117.529 135.925 118.553 124.947 118.788C120.826 118.878 116.539 118.845 112.227 118.553C96.531 117.465 98.369 114.87 98.369 114.546C98.369 114.222 98.668 102.379 98.668 102.379C98.668 102.379 85.948 98.748 76.096 101.107C76.096 101.107 87.042 57.121 93.942 55.5C100.842 53.878 106.122 54.864 110.752 52.822C115.382 50.78 116.921 48.027 118.218 47.785C119.516 47.543 119.357 48.516 119.357 48.516C118.476 50.3318 117.998 52.3167 117.956 54.3345C117.915 56.3523 118.31 58.3553 119.115 60.206C121.875 66.458 121.71 63.456 121.71 63.456C121.71 63.456 123.662 54.934 128.452 53.471C128.452 53.471 131.95 51.817 131.294 49.019C130.639 46.22 132.853 47.339 133.292 47.747C134.092 48.348 134.925 48.907 135.785 49.419L142.145 50.475C142.145 50.475 151.958 48.695 159.037 58.063C166.116 67.431 167.82 84.972 167.82 84.972C160.757 84.2445 153.619 84.9451 146.832 87.032L153.256 113.388L151.443 118.178L151.335 118.553Z" fill="white"/>
<path d="M151.335 118.553C145.745 117.529 135.925 118.553 124.947 118.788C120.826 118.878 116.539 118.845 112.227 118.553C96.531 117.465 98.369 114.87 98.369 114.546C98.369 114.222 98.668 102.379 98.668 102.379C98.668 102.379 85.948 98.748 76.096 101.107C76.096 101.107 87.042 57.121 93.942 55.5C100.842 53.878 106.122 54.864 110.752 52.822C115.382 50.78 116.921 48.027 118.218 47.785C119.516 47.543 119.357 48.516 119.357 48.516C118.476 50.3318 117.998 52.3167 117.956 54.3345C117.915 56.3523 118.31 58.3553 119.115 60.206C121.875 66.458 121.71 63.456 121.71 63.456C121.71 63.456 123.662 54.934 128.452 53.471C128.452 53.471 131.95 51.817 131.294 49.019C130.639 46.22 132.853 47.339 133.292 47.747C134.092 48.348 134.925 48.907 135.785 49.419L142.145 50.475C142.145 50.475 151.958 48.695 159.037 58.063C166.116 67.431 167.82 84.972 167.82 84.972C160.757 84.2445 153.619 84.9451 146.832 87.032L153.256 113.388L151.443 118.178L151.335 118.553Z" stroke="#1A1818" stroke-miterlimit="20"/>
<path d="M96.373 79.602L106.55 85.49L107.04 71.708C107.052 71.392 106.968 71.0798 106.797 70.8135C106.627 70.5472 106.378 70.3397 106.086 70.219L97.926 66.849C97.8047 66.7997 97.6733 66.7804 97.5429 66.7927C97.4125 66.805 97.2871 66.8486 97.1772 66.9197C97.0672 66.9909 96.9761 67.0875 96.9115 67.2014C96.8469 67.3153 96.8107 67.4431 96.806 67.574L96.373 79.602Z" fill="#F43F5F"/>
<path d="M96.373 79.602L106.55 85.49L107.04 71.708C107.052 71.392 106.968 71.0798 106.797 70.8135C106.627 70.5472 106.378 70.3397 106.086 70.219L97.926 66.849C97.8047 66.7997 97.6733 66.7804 97.5429 66.7927C97.4125 66.805 97.2871 66.8486 97.1772 66.9197C97.0672 66.9909 96.9761 67.0875 96.9115 67.2014C96.8469 67.3153 96.8107 67.4431 96.806 67.574L96.373 79.602Z" stroke="#1A1818" stroke-miterlimit="20"/>
<path d="M99.53 98.39C99.371 98.797 99.066 102.728 99.066 102.728Z" fill="white"/>
<path d="M99.53 98.39C99.371 98.797 99.066 102.728 99.066 102.728" stroke="#1A1818" stroke-miterlimit="20"/>
<path d="M154.638 127.763C154.638 127.763 154.968 153.146 123.429 166.515C123.429 166.515 113.202 171.221 109.469 179.343C105.736 187.464 100.209 249.494 100.209 249.494C100.209 249.494 75.201 256.96 69.846 242.498C64.491 228.035 80.563 158.545 80.563 158.545C80.908 156.029 81.5769 153.569 82.553 151.225C86.173 142.035 96.202 126.542 123.595 118.789C164.025 107.341 153.957 127.731 153.957 127.731" fill="white"/>
<path d="M154.638 127.763C154.638 127.763 154.968 153.146 123.429 166.515C123.429 166.515 113.202 171.221 109.469 179.343C105.736 187.464 100.209 249.494 100.209 249.494C100.209 249.494 75.201 256.96 69.846 242.498C64.491 228.035 80.563 158.545 80.563 158.545C80.908 156.029 81.5769 153.569 82.553 151.225C86.173 142.035 96.202 126.542 123.595 118.789C164.025 107.341 153.957 127.731 153.957 127.731" stroke="#1A1818" stroke-miterlimit="20"/>
<path d="M99.089 102.488C99.089 102.488 84.721 98.856 76.084 101.127L75.868 101.19C75.868 101.19 72.338 114.584 72.904 117.79C73.47 120.995 74.284 121.364 74.284 121.364C74.284 121.364 77.286 123.31 89.549 125.67C101.811 128.03 117.316 130.866 119.263 132.666C121.209 134.466 125.922 142.162 128.198 142.734C130.475 143.306 126.163 133.881 126.163 133.881C126.163 133.881 129.343 143.79 130.386 145.005C131.429 146.219 133.878 145.819 133.636 145.412C133.395 145.005 131.525 137.78 129.82 134.937C128.116 132.094 134.043 145.164 134.775 145.819C135.506 146.474 137.026 147.886 137.007 144.413C136.987 140.94 135.201 134.103 133.961 133.067C132.721 132.03 139.373 146.264 140.27 144.629C141.166 142.995 140.658 128.691 135.627 127.069C127.915 120.592 118.984 115.726 109.36 112.759C93.46 107.887 98.548 108.943 98.548 108.943L99.089 102.488Z" fill="white"/>
<path d="M99.089 102.488C99.089 102.488 84.721 98.856 76.084 101.127L75.868 101.19C75.868 101.19 72.338 114.584 72.904 117.79C73.47 120.995 74.284 121.364 74.284 121.364C74.284 121.364 77.286 123.31 89.549 125.67C101.811 128.03 117.316 130.866 119.263 132.666C121.209 134.466 125.922 142.162 128.198 142.734C130.475 143.306 126.163 133.881 126.163 133.881C126.163 133.881 129.343 143.79 130.386 145.005C131.429 146.219 133.878 145.819 133.636 145.412C133.395 145.005 131.525 137.78 129.82 134.937C128.116 132.094 134.043 145.164 134.775 145.819C135.506 146.474 137.026 147.886 137.007 144.413C136.987 140.94 135.201 134.103 133.961 133.067C132.721 132.03 139.373 146.264 140.27 144.629C141.166 142.995 140.658 128.691 135.627 127.069C127.915 120.592 118.984 115.726 109.36 112.759C93.46 107.887 98.548 108.943 98.548 108.943L99.089 102.488Z" stroke="#1A1818" stroke-miterlimit="20"/>
<path d="M166.54 85.15C160.86 83.153 147.072 87.319 147.072 87.319L145.094 78.535C145.05 79.07 145.628 81.836 146.366 85.137L146.633 86.307C146.691 86.555 146.748 86.803 146.811 87.051C147.975 92.051 149.355 97.521 149.597 98.372C149.697 98.704 149.903 98.994 150.182 99.199L153.54 101.743C148.675 97.373 122.809 88.126 119.533 86.963C119.31 86.883 119.108 86.755 118.942 86.587L114.49 82.091C114.313 81.908 114.095 81.771 113.854 81.69L107.124 79.54L107.252 82.517C107.264 82.7875 107.207 83.0567 107.086 83.299C106.965 83.5414 106.785 83.7488 106.561 83.9016C106.337 84.0545 106.079 84.1477 105.809 84.1724C105.539 84.1972 105.268 84.1526 105.02 84.043L102.78 83.07C100.984 82.2199 99.3795 81.015 98.062 79.528C97.8071 79.2548 97.4642 79.0801 97.0934 79.0345C96.7226 78.989 96.3476 79.0754 96.0342 79.2787C95.7207 79.482 95.4889 79.7892 95.3793 80.1464C95.2698 80.5036 95.2895 80.8879 95.435 81.232L95.473 81.322C96.815 84.285 106.025 89.405 103.513 88.145C101 86.886 95.397 81.9 95.365 81.97C93.985 84.864 99.099 90.753 99.099 90.753C99.099 90.753 95.473 85.315 95.473 87.427C95.473 89.367 97.591 93.787 97.941 94.474C97.973 94.537 98.011 94.601 98.049 94.664C114.184 119.036 161.401 129.403 162.049 129.81C168.982 134.141 170.954 98.957 165.459 73.136C160.199 48.529 143.905 50.24 142.391 50.469C142.306 50.475 142.221 50.475 142.137 50.469C141.157 50.469 135.459 50.157 133.716 48.16" fill="white"/>
<path d="M166.54 85.15C160.86 83.153 147.072 87.319 147.072 87.319L145.094 78.535C145.05 79.07 145.628 81.836 146.366 85.137L146.633 86.307C146.691 86.555 146.748 86.803 146.811 87.051C147.975 92.051 149.355 97.521 149.597 98.372C149.697 98.704 149.903 98.994 150.182 99.199L153.54 101.743C148.675 97.373 122.809 88.126 119.533 86.963C119.31 86.883 119.108 86.755 118.942 86.587L114.49 82.091C114.313 81.908 114.095 81.771 113.854 81.69L107.124 79.54L107.252 82.517C107.264 82.7875 107.207 83.0567 107.086 83.299C106.965 83.5414 106.785 83.7488 106.561 83.9016C106.337 84.0545 106.079 84.1477 105.809 84.1724C105.539 84.1972 105.268 84.1526 105.02 84.043L102.78 83.07C100.984 82.2199 99.3795 81.015 98.062 79.528C97.8071 79.2548 97.4642 79.0801 97.0934 79.0345C96.7226 78.989 96.3476 79.0754 96.0342 79.2787C95.7207 79.482 95.4889 79.7892 95.3793 80.1464C95.2698 80.5036 95.2895 80.8879 95.435 81.232L95.473 81.322C96.815 84.285 106.025 89.405 103.513 88.145C101 86.886 95.397 81.9 95.365 81.97C93.985 84.864 99.099 90.753 99.099 90.753C99.099 90.753 95.473 85.315 95.473 87.427C95.473 89.367 97.591 93.787 97.941 94.474C97.973 94.537 98.011 94.601 98.049 94.664C114.184 119.036 161.401 129.403 162.049 129.81C168.982 134.141 170.954 98.957 165.459 73.136C160.199 48.529 143.905 50.24 142.391 50.469C142.306 50.475 142.221 50.475 142.137 50.469C141.157 50.469 135.459 50.157 133.716 48.16" stroke="#1A1818" stroke-miterlimit="20"/>
<path d="M17.18 146.44C17.18 145.034 1.483 130.094 2.673 118.188C3.863 106.282 0.294006 117.208 0.294006 117.208C0.294006 117.208 -0.0879979 134.966 7.468 140.27C15.024 145.574 17.18 146.44 17.18 146.44Z" fill="white"/>
<path d="M17.18 146.44C17.18 145.034 1.483 130.094 2.673 118.188C3.863 106.282 0.294006 117.208 0.294006 117.208C0.294006 117.208 -0.0879979 134.966 7.468 140.27C15.024 145.574 17.18 146.44 17.18 146.44Z" stroke="#1A1818" stroke-miterlimit="20"/>
<path d="M18.588 146.001C18.912 143.515 22.804 124.784 13.608 107.568C4.41101 90.351 9.385 88.844 9.385 88.844C9.385 88.844 10.402 86.529 8.749 87.159C7.095 87.789 5.092 88.679 5.689 93.519C6.287 98.359 8.017 113.979 13.105 127.023C18.193 140.068 18.588 146.001 18.588 146.001Z" fill="white"/>
<path d="M18.588 146.001C18.912 143.515 22.804 124.784 13.608 107.568C4.41101 90.351 9.385 88.844 9.385 88.844C9.385 88.844 10.402 86.529 8.749 87.159C7.095 87.789 5.092 88.679 5.689 93.519C6.287 98.359 8.017 113.979 13.105 127.023C18.193 140.068 18.588 146.001 18.588 146.001Z" stroke="#1A1818" stroke-miterlimit="20"/>
<path d="M46.198 76.177C46.141 75.961 46.058 75.459 45.944 74.835C45.372 71.77 43.972 65.785 41.002 76.177C37.428 88.681 46.574 106.222 34.343 121.969C22.113 137.717 19.715 144.865 19.715 144.865C19.715 144.865 22.355 147.95 22.679 146.004C23.003 144.058 51.255 116.29 49.633 96.314C48.011 76.336 46.198 76.177 46.198 76.177V76.177Z" fill="white"/>
<path d="M46.198 76.177C46.141 75.961 46.058 75.459 45.944 74.835C45.372 71.77 43.972 65.785 41.002 76.177C37.428 88.681 46.574 106.222 34.343 121.969C22.113 137.717 19.715 144.865 19.715 144.865C19.715 144.865 22.355 147.95 22.679 146.004C23.003 144.058 51.255 116.29 49.633 96.314C48.011 76.336 46.198 76.177 46.198 76.177V76.177Z" stroke="#1A1818" stroke-miterlimit="20"/>
<path d="M21.937 144.204C22.153 143.733 38.174 108.009 23.209 75.516C8.24402 43.022 27.54 28.522 27.54 28.522C27.54 28.522 29.168 23.122 23.266 25.176C17.364 27.231 12.708 45.42 11.252 54.731C9.79602 64.042 16.391 73.888 17.148 91.021C17.905 108.155 20.818 105.911 21.644 124.393C22.471 142.875 21.937 144.204 21.937 144.204V144.204Z" fill="white"/>
<path d="M21.937 144.204C22.153 143.733 38.174 108.009 23.209 75.516C8.24402 43.022 27.54 28.522 27.54 28.522C27.54 28.522 29.168 23.122 23.266 25.176C17.364 27.231 12.708 45.42 11.252 54.731C9.79602 64.042 16.391 73.888 17.148 91.021C17.905 108.155 20.818 105.911 21.644 124.393C22.471 142.875 21.937 144.204 21.937 144.204V144.204Z" stroke="#1A1818" stroke-miterlimit="20"/>
<path d="M5.11 213.355H31.09L26.625 142.88H11.279L5.11 213.355Z" fill="white"/>
<path d="M5.11 213.355H31.09L26.625 142.88H11.279L5.11 213.355Z" stroke="#1A1818" stroke-miterlimit="20"/>
<path d="M195.5 74.76C193.713 74.76 177.635 76.547 169.513 109.676C165.901 124.413 165.824 139.606 166.854 151.926C167.556 160.789 168.998 169.577 171.167 178.199" fill="white"/>
<path d="M195.5 74.76C193.713 74.76 177.635 76.547 169.513 109.676C165.901 124.413 165.824 139.606 166.854 151.926C167.556 160.789 168.998 169.577 171.167 178.199" stroke="#1A1818" stroke-miterlimit="20"/>
<path d="M123.079 173.618C123.079 173.618 132.109 154.036 166.81 151.25Z" fill="white"/>
<path d="M123.079 173.618C123.079 173.618 132.109 154.036 166.81 151.25" stroke="#1A1818" stroke-miterlimit="20"/>
<path d="M163.54 181.123C160.131 179.501 134.608 165.967 110.587 177.307Z" fill="white"/>
<path d="M163.54 181.123C160.131 179.501 134.608 165.967 110.587 177.307" stroke="#1A1818" stroke-miterlimit="20"/>
</g>
<defs>
<clipPath id="clip0_1_2">
<rect width="241" height="269" fill="white" transform="matrix(-1 0 0 1 241 0)"/>
</clipPath>
</defs>
</svg>
