<svg id="visual" viewBox="0 0 960 100" width="960" height="100" xmlns="http://www.w3.org/2000/svg" xmlns:xlink="http://www.w3.org/1999/xlink" version="1.1"><path d="M0 71L14.5 67C29 63 58 55 87.2 49.8C116.3 44.7 145.7 42.3 174.8 44.2C204 46 233 52 262 52.7C291 53.3 320 48.7 349 51.2C378 53.7 407 63.3 436.2 65.7C465.3 68 494.7 63 523.8 58.2C553 53.3 582 48.7 611 47.2C640 45.7 669 47.3 698 50.3C727 53.3 756 57.7 785.2 56.8C814.3 56 843.7 50 872.8 48C902 46 931 48 945.5 49L960 50L960 101L945.5 101C931 101 902 101 872.8 101C843.7 101 814.3 101 785.2 101C756 101 727 101 698 101C669 101 640 101 611 101C582 101 553 101 523.8 101C494.7 101 465.3 101 436.2 101C407 101 378 101 349 101C320 101 291 101 262 101C233 101 204 101 174.8 101C145.7 101 116.3 101 87.2 101C58 101 29 101 14.5 101L0 101Z" fill="#e11d48"></path><path d="M0 68L14.5 67.7C29 67.3 58 66.7 87.2 68.2C116.3 69.7 145.7 73.3 174.8 72.3C204 71.3 233 65.7 262 63.2C291 60.7 320 61.3 349 64C378 66.7 407 71.3 436.2 71C465.3 70.7 494.7 65.3 523.8 65C553 64.7 582 69.3 611 70C640 70.7 669 67.3 698 64.8C727 62.3 756 60.7 785.2 60.7C814.3 60.7 843.7 62.3 872.8 65.8C902 69.3 931 74.7 945.5 77.3L960 80L960 101L945.5 101C931 101 902 101 872.8 101C843.7 101 814.3 101 785.2 101C756 101 727 101 698 101C669 101 640 101 611 101C582 101 553 101 523.8 101C494.7 101 465.3 101 436.2 101C407 101 378 101 349 101C320 101 291 101 262 101C233 101 204 101 174.8 101C145.7 101 116.3 101 87.2 101C58 101 29 101 14.5 101L0 101Z" fill="#e83957"></path><path d="M0 70L14.5 69.3C29 68.7 58 67.3 87.2 67.8C116.3 68.3 145.7 70.7 174.8 70.5C204 70.3 233 67.7 262 67C291 66.3 320 67.7 349 70.8C378 74 407 79 436.2 78.2C465.3 77.3 494.7 70.7 523.8 69.7C553 68.7 582 73.3 611 73.8C640 74.3 669 70.7 698 70.3C727 70 756 73 785.2 75C814.3 77 843.7 78 872.8 75.3C902 72.7 931 66.3 945.5 63.2L960 60L960 101L945.5 101C931 101 902 101 872.8 101C843.7 101 814.3 101 785.2 101C756 101 727 101 698 101C669 101 640 101 611 101C582 101 553 101 523.8 101C494.7 101 465.3 101 436.2 101C407 101 378 101 349 101C320 101 291 101 262 101C233 101 204 101 174.8 101C145.7 101 116.3 101 87.2 101C58 101 29 101 14.5 101L0 101Z" fill="#ef4e67"></path><path d="M0 69L14.5 71.3C29 73.7 58 78.3 87.2 79.7C116.3 81 145.7 79 174.8 77.3C204 75.7 233 74.3 262 76.2C291 78 320 83 349 85C378 87 407 86 436.2 83.3C465.3 80.7 494.7 76.3 523.8 76.2C553 76 582 80 611 83.3C640 86.7 669 89.3 698 88.8C727 88.3 756 84.7 785.2 83C814.3 81.3 843.7 81.7 872.8 80.5C902 79.3 931 76.7 945.5 75.3L960 74L960 101L945.5 101C931 101 902 101 872.8 101C843.7 101 814.3 101 785.2 101C756 101 727 101 698 101C669 101 640 101 611 101C582 101 553 101 523.8 101C494.7 101 465.3 101 436.2 101C407 101 378 101 349 101C320 101 291 101 262 101C233 101 204 101 174.8 101C145.7 101 116.3 101 87.2 101C58 101 29 101 14.5 101L0 101Z" fill="#f56076"></path><path d="M0 81L14.5 82.5C29 84 58 87 87.2 88.8C116.3 90.7 145.7 91.3 174.8 90.3C204 89.3 233 86.7 262 84.7C291 82.7 320 81.3 349 81C378 80.7 407 81.3 436.2 82.7C465.3 84 494.7 86 523.8 87.2C553 88.3 582 88.7 611 88.5C640 88.3 669 87.7 698 88.3C727 89 756 91 785.2 90.8C814.3 90.7 843.7 88.3 872.8 87.5C902 86.7 931 87.3 945.5 87.7L960 88L960 101L945.5 101C931 101 902 101 872.8 101C843.7 101 814.3 101 785.2 101C756 101 727 101 698 101C669 101 640 101 611 101C582 101 553 101 523.8 101C494.7 101 465.3 101 436.2 101C407 101 378 101 349 101C320 101 291 101 262 101C233 101 204 101 174.8 101C145.7 101 116.3 101 87.2 101C58 101 29 101 14.5 101L0 101Z" fill="#fb7185"></path></svg>