<svg width="458" height="500" viewBox="0 0 458 500" fill="none" xmlns="http://www.w3.org/2000/svg">
<g clip-path="url(#clip0_1_228)">
<path opacity="0.4" d="M310.52 385.65L262.7 358C259.25 356 259.7 352.53 263.7 350.23L294.7 332.34L355 367.21L324 385.1C320 387.39 314 387.64 310.52 385.65Z" fill="#D6D8E5"/>
<path d="M314.84 383.12L267 355.51C263.56 353.51 264 350.04 268 347.74L299 329.85L359.32 364.68L328.32 382.57C324.31 384.86 318.29 385.11 314.84 383.12Z" fill="#B1B4C4"/>
<path d="M359.28 364.68V362.85L356.49 364.46L359.28 364.68Z" fill="#B1B4C4"/>
<path d="M264.69 352.22V350.36L267.55 351.55L264.69 352.22Z" fill="#B1B4C4"/>
<path d="M314.84 381.3L267 353.68C263.56 351.68 264 348.22 268 345.92L299 328L359.32 362.82L328.32 380.71C324.31 383 318.29 383.29 314.84 381.3Z" fill="#D6D8E5"/>
<path d="M299.13 328.11L291.66 303.35L352.63 338.32L359.28 362.85L299.13 328.11Z" fill="#9EA1AF"/>
<path d="M357.51 363.87L359.28 362.87L356.65 360.77L357.51 363.87Z" fill="#9EA1AF"/>
<path d="M297.2 329.04L289.74 304.28L350.71 339.25L357.51 363.87L297.2 329.04Z" fill="#B1B4C4"/>
<path d="M452 405.61L216 269.35C212.69 267.44 210 262.35 210 257.89V75.33C210 70.92 212.68 68.89 216 70.8L452 207.06C455.31 208.97 458 214.06 458 218.51V401.08C458 405.49 455.29 407.52 452 405.61Z" fill="#B1B4C4"/>
<path d="M453.19 407.49L455.81 405.98L454.68 398.23L453.19 407.49Z" fill="#B1B4C4"/>
<path d="M209.55 71.9299L212.13 70.4399L215.83 72.5499C215.83 72.5499 211.89 73.1499 211.83 73.1299C211.77 73.1099 209.55 71.9299 209.55 71.9299Z" fill="#B1B4C4"/>
<path d="M449.82 406.86L213.82 270.6C210.51 268.69 207.82 263.6 207.82 259.14V76.58C207.82 72.17 210.51 70.14 213.82 72.05L449.82 208.31C453.13 210.22 455.82 215.31 455.82 219.76V402.33C455.81 406.74 453.13 408.77 449.82 406.86Z" fill="#E4E7F2"/>
<path d="M449.4 407.09L213.4 270.83C210.09 268.92 207.4 263.83 207.4 259.38V76.82C207.4 72.41 210.08 70.38 213.4 72.29L449.4 208.55C452.71 210.46 455.4 215.55 455.4 220V402.56C455.4 407 452.71 409 449.4 407.09Z" fill="#D6D8E5"/>
<path d="M452.15 396L210.39 256.42L210.52 77.5499C210.52 75.7199 211.81 74.9799 213.39 75.8899L449.39 212.15C450.229 212.698 450.926 213.436 451.425 214.305C451.924 215.174 452.21 216.149 452.26 217.15L452.15 396Z" fill="white"/>
<path d="M437.18 240.5L222.88 116.78C222.138 116.248 221.53 115.549 221.107 114.74C220.683 113.931 220.455 113.033 220.44 112.12V96.65C220.44 94.86 221.53 94.03 222.88 94.81L437.18 218.53C437.924 219.063 438.532 219.764 438.956 220.575C439.379 221.386 439.607 222.285 439.62 223.2V238.66C439.62 240.46 438.53 241.28 437.18 240.5Z" fill="#E9EAF2"/>
<path d="M426 281.91L375.63 252.83C374.888 252.298 374.28 251.599 373.857 250.79C373.433 249.981 373.205 249.083 373.19 248.17V215.66C373.19 213.86 374.28 213.04 375.63 213.82L426 242.9C426.743 243.431 427.352 244.13 427.775 244.939C428.199 245.749 428.427 246.646 428.44 247.56V280.07C428.4 281.86 427.31 282.69 426 281.91Z" fill="#E9EAF2"/>
<path d="M359.61 292.47L233.25 219.47C232.877 219.205 232.573 218.856 232.361 218.451C232.149 218.046 232.035 217.597 232.03 217.14V211.55C232.03 210.65 232.57 210.23 233.25 210.62L359.61 283.62C359.981 283.886 360.284 284.236 360.496 284.64C360.708 285.045 360.822 285.493 360.83 285.95V291.55C360.83 292.44 360.28 292.86 359.61 292.47Z" fill="#E9EAF2"/>
<path d="M347.17 298.53L233.61 233C233.24 232.733 232.937 232.383 232.725 231.979C232.513 231.575 232.398 231.126 232.39 230.67V227.88C232.39 226.98 232.94 226.57 233.61 226.96L347.17 292.52C347.541 292.786 347.844 293.136 348.056 293.54C348.268 293.945 348.382 294.393 348.39 294.85V297.63C348.39 298.5 347.84 298.92 347.17 298.53Z" fill="#E9EAF2"/>
<path d="M347.17 309.09L233.61 243.53C233.239 243.264 232.936 242.914 232.724 242.51C232.512 242.105 232.398 241.657 232.39 241.2V238.41C232.39 237.52 232.94 237.1 233.61 237.49L347.17 303.05C347.541 303.316 347.844 303.666 348.056 304.07C348.268 304.475 348.382 304.923 348.39 305.38V308.17C348.39 309.07 347.84 309.48 347.17 309.09Z" fill="#E9EAF2"/>
<path d="M318.14 302.89L233.61 254.09C233.239 253.824 232.936 253.474 232.724 253.07C232.512 252.665 232.398 252.217 232.39 251.76V249C232.39 248.1 232.94 247.69 233.61 248.07L318.14 296.87C318.508 297.141 318.81 297.493 319.021 297.899C319.233 298.304 319.348 298.753 319.36 299.21V302C319.36 302.87 318.81 303.28 318.14 302.89Z" fill="#E9EAF2"/>
<path d="M427.18 295.43L374.37 264.94C373.997 264.675 373.693 264.326 373.481 263.921C373.269 263.516 373.155 263.067 373.15 262.61V259.82C373.15 258.92 373.69 258.51 374.37 258.9L427.18 289.39C427.551 289.656 427.854 290.006 428.066 290.41C428.278 290.815 428.392 291.263 428.4 291.72V294.51C428.4 295.41 427.85 295.82 427.18 295.43Z" fill="#E9EAF2"/>
<path d="M427.18 306L374.37 275.5C373.997 275.235 373.693 274.886 373.481 274.481C373.269 274.076 373.155 273.627 373.15 273.17V270.39C373.15 269.49 373.69 269.07 374.37 269.46L427.18 300C427.552 300.265 427.856 300.615 428.068 301.019C428.28 301.424 428.394 301.873 428.4 302.33V305.11C428.4 306 427.85 306.38 427.18 306Z" fill="#E9EAF2"/>
<path d="M413.35 308.57L374.35 286.06C373.977 285.795 373.673 285.446 373.461 285.041C373.249 284.636 373.135 284.187 373.13 283.73V281C373.13 280.1 373.67 279.69 374.35 280.08L413.35 302.58C413.721 302.846 414.025 303.195 414.237 303.6C414.449 304.004 414.563 304.453 414.57 304.91V307.7C414.57 308.55 414 309 413.35 308.57Z" fill="#E9EAF2"/>
<path d="M426 363.31L375.63 334.23C374.888 333.698 374.28 332.999 373.857 332.19C373.433 331.38 373.205 330.483 373.19 329.57V297.06C373.19 295.27 374.28 294.44 375.63 295.22L426 324.3C426.74 324.841 427.343 325.548 427.76 326.364C428.177 327.18 428.396 328.083 428.4 329V361.51C428.4 363.26 427.31 364.09 426 363.31Z" fill="#E9EAF2"/>
<path d="M427.18 376.83L374.37 346.34C373.997 346.075 373.693 345.726 373.481 345.321C373.269 344.916 373.155 344.467 373.15 344.01V341.23C373.15 340.33 373.69 339.91 374.37 340.3L427.18 370.79C427.548 371.061 427.85 371.413 428.061 371.819C428.273 372.224 428.388 372.673 428.4 373.13V375.91C428.4 376.81 427.85 377.22 427.18 376.83Z" fill="#E9EAF2"/>
<path d="M233.581 115.736C235.413 114.678 235.411 111.246 233.578 108.07C231.744 104.895 228.773 103.177 226.941 104.235C225.109 105.293 225.111 108.725 226.944 111.9C228.778 115.076 231.749 116.793 233.581 115.736Z" fill="#DADCE5"/>
<path d="M341.68 176.35L323.14 165.65C322.954 165.516 322.802 165.34 322.696 165.137C322.59 164.934 322.533 164.709 322.53 164.48V162C322.53 161.55 322.8 161.34 323.14 161.54L341.68 172.24C341.867 172.371 342.02 172.544 342.126 172.746C342.232 172.948 342.288 173.172 342.29 173.4V175.86C342.29 176.34 342 176.55 341.68 176.35Z" fill="#DADCE5"/>
<path d="M371.68 193.68L353.14 183C352.955 182.868 352.803 182.694 352.698 182.492C352.592 182.291 352.534 182.067 352.53 181.84V179.38C352.53 178.93 352.81 178.72 353.14 178.92L371.68 189.62C371.866 189.754 372.018 189.93 372.124 190.133C372.23 190.336 372.287 190.561 372.29 190.79V193.25C372.29 193.66 372 193.87 371.68 193.68Z" fill="#DADCE5"/>
<path d="M401.2 210.72L382.66 200C382.473 199.869 382.32 199.696 382.214 199.494C382.108 199.292 382.052 199.068 382.05 198.84V196.38C382.05 195.93 382.32 195.73 382.66 195.92L401.2 206.62C401.386 206.754 401.538 206.93 401.644 207.133C401.75 207.336 401.807 207.561 401.81 207.79V210.25C401.81 210.71 401.54 210.91 401.2 210.72Z" fill="#DADCE5"/>
<path d="M431.2 228L412.67 217.3C412.484 217.166 412.332 216.99 412.226 216.787C412.12 216.584 412.063 216.359 412.06 216.13V213.67C412.06 213.22 412.33 213.02 412.67 213.21L431.2 224C431.387 224.131 431.54 224.304 431.646 224.506C431.752 224.708 431.808 224.932 431.81 225.16V227.62C431.81 228 431.54 228.24 431.2 228Z" fill="#DADCE5"/>
<path d="M390.28 246.91L386.74 237.8L380.31 246.96L387.37 251.04L393.18 254.39L406.13 261.87L396.75 237.7L390.28 246.91Z" fill="#DADCE5"/>
<path d="M421.012 253.516C422.67 252.563 422.677 249.466 421.028 246.597C419.38 243.729 416.7 242.175 415.042 243.128C413.384 244.081 413.377 247.179 415.025 250.047C416.674 252.916 419.354 254.469 421.012 253.516Z" fill="#DADCE5"/>
<path d="M390.64 329.51L387.11 320.4L380.67 329.56L387.74 333.64L393.55 336.99L406.5 344.47L397.12 320.3L390.64 329.51Z" fill="#DADCE5"/>
<path d="M419.727 335.118C421.378 334.165 421.379 331.078 419.73 328.223C418.082 325.367 415.408 323.825 413.757 324.778C412.107 325.73 412.106 328.817 413.755 331.673C415.403 334.528 418.077 336.071 419.727 335.118Z" fill="#DADCE5"/>
<path d="M271.68 205.33L267 224.07V208.03L271.68 205.33Z" fill="#232733"/>
<path d="M217.17 173.56L212.49 192.31V176.27L217.17 173.56Z" fill="#232733"/>
<path d="M294.14 289.83L182.72 225.5C182.055 225.023 181.511 224.396 181.132 223.67C180.754 222.944 180.551 222.139 180.54 221.32V164.32C180.54 162.71 181.54 161.97 182.72 162.67L294.14 227C294.807 227.474 295.353 228.099 295.733 228.823C296.114 229.548 296.318 230.352 296.33 231.17V288.22C296.33 289.79 295.35 290.53 294.14 289.83Z" fill="#E9EAF2"/>
<path d="M213.73 223L207.69 207.43L196.69 223.08L208.77 230.06L218.69 235.79L240.84 248.58L224.8 207.25L213.73 223Z" fill="#E11D48"/>
<path d="M275.953 239.788C278.77 238.162 278.768 232.885 275.949 228.001C273.129 223.118 268.56 220.478 265.743 222.104C262.926 223.731 262.928 229.008 265.747 233.891C268.566 238.775 273.136 241.415 275.953 239.788Z" fill="#E11D48"/>
<path d="M264.95 201.44L264.94 180.06L258.88 175.51V201.44L252.14 205.33L261.91 210.97L271.68 205.33L264.95 201.44Z" fill="#353C4C"/>
<path d="M261.91 210.97L267 224.07V208.94V208.03L261.91 210.97Z" fill="#232733"/>
<path d="M252.14 205.33L256.47 217.91L267 224.07L261.91 210.97L252.14 205.33Z" fill="#2B303F"/>
<path d="M210.43 169.68V143.74H204.37V169.67L197.63 173.56L207.4 179.21L217.17 173.56L210.43 169.68Z" fill="#353C4C"/>
<path d="M207.4 179.21L212.49 192.31V177.18V176.27L207.4 179.21Z" fill="#232733"/>
<path d="M197.63 173.56L201.96 186.14L212.49 192.31L207.4 179.21L197.63 173.56Z" fill="#2B303F"/>
<path opacity="0.4" d="M143.77 290.74L83.41 255.72L10.68 297.71L75.75 335.45L148.49 293.46V288.02L143.77 290.74Z" fill="#D6D8E5"/>
<path d="M151.43 286.02L83.41 246.75L15.39 286.02L10.68 283.3V288.74L83.41 330.74L156.14 288.74V283.3L151.43 286.02Z" fill="#B1B4C4"/>
<path d="M83.41 325.29L10.68 283.3L83.41 241.31L156.14 283.3L83.41 325.29Z" fill="#E7E9F2"/>
<path d="M83.18 267.75L87.93 265.01V62.2L83.18 64.94V267.75Z" fill="#B1B4C4"/>
<path d="M83.56 147.69L116.77 200.25L121.52 198.31L87.93 145.23L83.56 147.69Z" fill="#B1B4C4"/>
<path d="M83.36 157.04L116.59 209.86V199.98L83.36 147.35V157.04Z" fill="#D6D8E5"/>
<path d="M78.61 265.01L83.36 267.75V64.94L78.61 62.2V265.01Z" fill="#D6D8E5"/>
<path d="M116.59 286.94L121.34 289.68V86.87L116.59 84.13V286.94Z" fill="#D6D8E5"/>
<path d="M121.16 289.68L125.91 286.94V84.13L121.16 86.87V289.68Z" fill="#B1B4C4"/>
<path d="M83.36 253.13L116.59 213.34V203.8L83.36 243.65V253.13Z" fill="#D6D8E5"/>
<path d="M83.36 253.13L87.93 250.63L116.59 216.08V212.6L83.36 253.13Z" fill="#B1B4C4"/>
<path d="M83.36 147.69L116.59 107.9V98.36L83.36 138.21V147.69Z" fill="#D6D8E5"/>
<path d="M83.36 147.69L87.93 145.18L116.59 110.64V107.16L83.36 147.69Z" fill="#B1B4C4"/>
<path d="M45.48 289.65L50.23 286.91V84.1L45.48 86.84V289.65Z" fill="#B1B4C4"/>
<path d="M45.86 169.59L79.07 222.14L83.82 220.21L50.23 167.13L45.86 169.59Z" fill="#B1B4C4"/>
<path d="M45.66 178.94L78.89 231.75V221.88L45.66 169.24V178.94Z" fill="#D6D8E5"/>
<path d="M40.92 286.91L45.66 289.65V86.84L40.92 84.1V286.91Z" fill="#D6D8E5"/>
<path d="M78.89 308.83L83.64 311.57V108.77L78.89 106.02V308.83Z" fill="#D6D8E5"/>
<path d="M83.46 311.57L88.21 308.83V106.02L83.46 108.77V311.57Z" fill="#B1B4C4"/>
<path d="M45.66 275.03L78.89 235.24V225.69L45.66 265.55V275.03Z" fill="#D6D8E5"/>
<path d="M45.66 275.03L50.23 272.52L78.89 237.98V234.49L45.66 275.03Z" fill="#B1B4C4"/>
<path d="M45.66 169.59L78.89 129.8V120.25L45.66 160.1V169.59Z" fill="#D6D8E5"/>
<path d="M45.66 169.59L50.23 167.08L78.89 132.53V129.05L45.66 169.59Z" fill="#B1B4C4"/>
<path d="M83.64 119.04L34.61 90.7301L83.64 62.4301L132.67 90.7301L83.64 119.04Z" fill="#F7DC6B"/>
<path d="M79.99 37.91L21.86 71.4701L5.22 61.8601L63.35 28.3L79.99 37.91Z" fill="#353C4C"/>
<path d="M5.22 75.32V61.86L21.86 71.47V84.93L5.22 75.32Z" fill="#2B303F"/>
<path d="M21.86 84.93L79.99 51.37V37.91L21.86 71.47V83.62" fill="#232733"/>
<path d="M79.99 22.81L21.86 56.3699L5.22 46.7599L63.35 13.2L79.99 22.81Z" fill="#353C4C"/>
<path d="M5.22 60.23V46.76L21.86 56.37V69.84L5.22 60.23Z" fill="#2B303F"/>
<path d="M21.86 69.8401L79.99 36.2801V22.8101L21.86 56.3701V68.5301" fill="#232733"/>
<path d="M36.05 64.55L0 43.87V36.33L36.05 56.88V64.55Z" fill="#D6D8E5"/>
<path d="M88.21 86.8201L0 36.3301L6.53 32.5601L94.74 83.0501L88.21 86.8201Z" fill="#E7E9F2"/>
<path d="M75.71 52.63L30.42 26.43V18.88L75.71 43.15V52.63Z" fill="#D6D8E5"/>
<path d="M110.06 64.09L30.42 18.89L36.95 15.12L116.59 60.32L110.06 64.09Z" fill="#E7E9F2"/>
<path d="M54.55 32.8V40.34L57.65 62.05L62.25 64.9101L54.55 32.8Z" fill="#D6D8E5"/>
<path d="M68.18 68.13L62.22 37.23L54.55 32.8L59.2 63.25L68.18 68.13Z" fill="#E7E9F2"/>
<path d="M54.55 40.3401L30.76 46.6101L18.54 39.5501L53.51 32.1801L54.55 32.8001V40.3401Z" fill="#B1B4C4"/>
<path d="M54.55 32.8L21.42 41.22L14.3 37.11L47.69 28.58L54.55 32.8Z" fill="#E7E9F2"/>
<path d="M83.64 56.62L34.61 28.31L83.64 0L132.67 28.31L83.64 56.62Z" fill="#E7E9F2"/>
<path d="M34.61 115.73V28.3101L83.64 56.6201V144.04L34.61 115.73Z" fill="#D6D8E5"/>
<path d="M132.67 28.3101V115.73L83.64 144.04V56.6101L132.67 28.3101Z" fill="#B1B4C4"/>
<path d="M83.64 87.07L55.49 70.82L46.44 42.02L83.64 63.5V87.07Z" fill="#E11D48"/>
<path d="M132.67 35.1899V58.7599L83.64 87.0799V63.5099L132.67 35.1899Z" fill="#E11D48"/>
<path d="M302.27 219.27L90.12 96.78V89.24L302.27 211.73V219.27Z" fill="#D6D8E5"/>
<path d="M302.27 211.73L90.12 89.25L96.65 85.48L308.8 207.96L302.27 211.73Z" fill="#E7E9F2"/>
<path d="M332.69 201.83L120.54 79.34V71.8L332.69 194.29V201.83Z" fill="#D6D8E5"/>
<path d="M332.69 194.29L120.54 71.8L127.07 68.03L339.22 190.52L332.69 194.29Z" fill="#E7E9F2"/>
<path d="M339.22 198.08L302.27 219.27V211.72L339.22 190.54V198.08Z" fill="#B1B4C4"/>
<path d="M339.22 190.54L302.29 211.73L296.76 208.54L333.69 187.35L339.22 190.54Z" fill="#E7E9F2"/>
<path d="M306.1 186.46L282.3 192.73L270.08 185.67L305.05 178.3L306.1 178.92V186.46Z" fill="#B1B4C4"/>
<path d="M306.1 178.92L272.97 187.34L265.85 183.22L299.23 174.7L306.1 178.92Z" fill="#E7E9F2"/>
<path d="M252.41 147.96V155.5L255.51 177.21L260.11 180.06L252.41 147.96Z" fill="#D6D8E5"/>
<path d="M266.04 183.29L260.08 152.39L252.41 147.96L257.07 178.41L266.04 183.29Z" fill="#E7E9F2"/>
<path d="M252.41 155.5L228.62 161.77L216.4 154.71L251.37 147.34L252.41 147.96V155.5Z" fill="#B1B4C4"/>
<path d="M252.41 147.96L219.29 156.38L212.17 152.27L245.55 143.74L252.41 147.96Z" fill="#E7E9F2"/>
<path d="M198.54 116.83V124.37L201.63 146.08L206.24 148.94L198.54 116.83Z" fill="#D6D8E5"/>
<path d="M212.17 152.16L206.21 121.26L198.54 116.83L203.19 147.28L212.17 152.16Z" fill="#E7E9F2"/>
<path d="M198.54 124.37L174.75 130.64L162.53 123.58L197.5 116.21L198.54 116.83V124.37Z" fill="#B1B4C4"/>
<path d="M198.54 116.83L165.41 125.25L158.29 121.14L191.68 112.61L198.54 116.83Z" fill="#E7E9F2"/>
<path d="M144.67 85.72V93.26L147.76 114.97L152.37 117.82L144.67 85.72Z" fill="#D6D8E5"/>
<path d="M158.29 121.05L152.34 90.15L144.67 85.72L149.32 116.17L158.29 121.05Z" fill="#E7E9F2"/>
<path d="M144.67 93.26L120.88 99.53L108.66 92.47L143.63 85.1L144.67 85.72V93.26Z" fill="#B1B4C4"/>
<path d="M144.67 85.72L111.54 94.14L104.42 90.03L137.8 81.5L144.67 85.72Z" fill="#E7E9F2"/>
<path opacity="0.4" d="M94.17 500L66.35 484.08L107.99 460.25L135.81 476.16L94.17 500Z" fill="#D6D8E5"/>
<path d="M94.75 467.91L71.71 454.6L94.75 441.3L117.79 454.61L94.75 467.91Z" fill="#D6D8E5"/>
<path d="M94.75 494.52L71.71 481.21V454.6L94.75 467.91V494.52Z" fill="#B1B6C4"/>
<path d="M117.79 481.21L94.75 494.52V467.91L117.79 454.6V481.21Z" fill="#C4C7D6"/>
<path d="M125.72 472.84C127.714 473.393 129.846 473.134 131.65 472.12C133.08 472.12 140.84 468.84 141.9 471.63C142.82 474.08 139.46 476.34 137.66 476.77C133.74 477.77 130.84 479.68 129.27 480.01C128.1 480.26 126.58 480.42 125.64 479.5C124.52 478.39 124.62 474.3 125.72 472.84Z" fill="#38226D"/>
<path d="M129.27 479.33C130.84 479 133.74 477.05 137.66 476.1C139.17 475.73 141.76 474.1 142.02 472.1C142.37 474.35 139.34 476.35 137.66 476.75C133.74 477.75 130.84 479.66 129.27 479.99C128.1 480.24 126.58 480.4 125.64 479.48C125.403 479.208 125.229 478.887 125.13 478.54C125.711 478.986 126.387 479.289 127.106 479.426C127.825 479.564 128.566 479.531 129.27 479.33V479.33Z" fill="#9C73FF"/>
<path d="M111.72 465.39C113.717 465.944 115.853 465.685 117.66 464.67C119.09 464.67 126.85 461.39 127.9 464.18C128.83 466.63 125.47 468.89 123.67 469.32C119.75 470.27 116.85 472.23 115.27 472.56C114.1 472.81 112.58 472.97 111.65 472.05C110.53 470.94 110.62 466.85 111.72 465.39Z" fill="#38226D"/>
<path d="M115.27 471.88C116.85 471.55 119.75 469.6 123.67 468.65C125.17 468.28 127.77 466.65 128.03 464.65C128.38 466.9 125.34 468.9 123.67 469.3C119.75 470.25 116.85 472.21 115.27 472.54C114.1 472.79 112.58 472.95 111.65 472.03C111.406 471.761 111.228 471.439 111.13 471.09C111.711 471.535 112.388 471.838 113.106 471.975C113.825 472.112 114.566 472.08 115.27 471.88V471.88Z" fill="#9C73FF"/>
<path d="M89.93 455.73C95.93 458.39 101.69 458.81 106.36 456.3L111.18 453.52C111.47 459.74 111.74 465.72 111.74 465.72C111.74 465.72 115.44 468.52 118.32 466.02C118.32 466.02 118.92 457.29 119.53 448.7L124.59 445.78C124.468 446.237 124.401 446.707 124.39 447.18C124.39 448.82 125.56 473.08 125.56 473.08C125.56 473.08 129.29 475.3 132.17 472.8C132.17 472.8 134.11 444.68 134.55 440.19C135.05 435.14 129.44 432.65 125.9 433.95C125.07 434.24 123.04 435 120.47 435.95C120.58 434.54 120.67 433.45 120.73 432.83C121.24 427.77 115.63 425.28 112.08 426.58C108.84 427.76 87 436 87 436C87.1361 438.096 87.3932 440.183 87.77 442.25L79.15 441.53C78.63 449.6 83.89 453.07 89.93 455.73ZM105 441.73L110.77 438.4C110.668 438.806 110.604 439.222 110.58 439.64L105 441.73Z" fill="#E11D48"/>
<path d="M74.42 416.87C74.42 416.87 75.13 427.6 76.54 429.15C77.95 430.7 82.71 431.75 82.71 431.75L86.37 437.75C86.37 437.75 83 418.6 82.3 418.14C81.6 417.68 74.42 416.87 74.42 416.87Z" fill="#FFCEA9"/>
<path d="M81.47 405C80.5792 404.586 79.5669 404.513 78.6263 404.797C77.6857 405.082 76.8826 405.702 76.37 406.54C75.02 408.78 73.62 416.44 73.49 417.75C73.49 417.75 75.38 420.37 78.22 419.93L81.47 405Z" fill="#EDEDED"/>
<path d="M82.76 405.09C84.62 405.18 86 405.66 86.23 405.09C86.4289 404.136 86.5691 403.171 86.65 402.2C86.44 401.66 86.25 401.08 86.25 401.08C83.93 399.65 83.19 397.08 82.88 394.2C82.36 389.2 85.07 384.8 90.08 384.28C94.79 383.79 98.25 387.1 99.18 391.64C99.67 393.89 100.67 398.13 99.33 401.82C98.58 403.88 97.61 405.52 96.65 405.82C95.7158 405.793 94.7841 405.709 93.86 405.57V405.57C93.86 405.57 93.61 406.96 93.44 407.85C93.27 408.74 93.34 409.22 95.11 410.31C96.88 411.4 92.42 413.66 89.51 413.44C86.6 413.22 83.31 411.44 82.4 409.57C81.4 407.51 81.49 405 82.76 405.09Z" fill="#FFCEA9"/>
<path d="M129.74 437.91C129.742 438.175 129.674 438.436 129.542 438.666C129.41 438.896 129.22 439.087 128.99 439.22L114.86 447.38C114.63 447.512 114.37 447.582 114.105 447.582C113.84 447.582 113.58 447.512 113.35 447.38L93.53 435.94C93.3018 435.808 93.1124 435.619 92.9807 435.39C92.8491 435.162 92.7798 434.903 92.78 434.64V434.52L129.74 437.91Z" fill="#E5E5E5"/>
<path d="M129 439.22L114.87 447.38C114.639 447.513 114.377 447.582 114.11 447.58V437.91H129.75C129.752 438.175 129.684 438.436 129.552 438.666C129.42 438.896 129.23 439.087 129 439.22V439.22Z" fill="#E5E5E5"/>
<path d="M114.63 446.64C114.469 446.733 114.286 446.782 114.1 446.782C113.914 446.782 113.731 446.733 113.57 446.64L93 434.75C92.73 434.6 92.73 434.35 93 434.2L108.16 425.44L129.76 437.91L114.63 446.64Z" fill="#F4F4F4"/>
<path d="M101.44 437.91L101.54 437.97L108.14 441.78L111.76 439.69L111.87 439.63L105.16 435.76L101.44 437.91Z" fill="#BFBFBF"/>
<path d="M101.54 437.97L108.14 441.78L111.76 439.69L105.16 435.88L101.54 437.97Z" fill="#E5E5E5"/>
<path d="M124.14 438.53L125.14 439.08C125.187 439.102 125.238 439.114 125.29 439.114C125.342 439.114 125.393 439.102 125.44 439.08L126.35 438.55C126.44 438.5 126.45 438.42 126.35 438.38L125.35 437.83C125.304 437.805 125.252 437.793 125.2 437.793C125.148 437.793 125.096 437.805 125.05 437.83L124.14 438.35C124.08 438.41 124.07 438.48 124.14 438.53Z" fill="#3A2C6D"/>
<path d="M122.8 437.75L123.8 438.3C123.846 438.324 123.898 438.337 123.95 438.337C124.002 438.337 124.054 438.324 124.1 438.3L125.01 437.77C125.1 437.72 125.11 437.64 125.01 437.6L124.01 437.05C123.964 437.025 123.912 437.013 123.86 437.013C123.808 437.013 123.756 437.025 123.71 437.05L122.8 437.58C122.73 437.63 122.72 437.71 122.8 437.75Z" fill="#3A2C6D"/>
<path d="M121.45 437L122.45 437.55C122.496 437.574 122.548 437.587 122.6 437.587C122.652 437.587 122.704 437.574 122.75 437.55L123.66 437.03C123.75 436.97 123.76 436.9 123.66 436.85L122.71 436.3C122.663 436.278 122.612 436.266 122.56 436.266C122.508 436.266 122.457 436.278 122.41 436.3L121.5 436.83C121.38 436.85 121.37 436.93 121.45 437Z" fill="#3A2C6D"/>
<path d="M120.1 436.2L121.1 436.75C121.149 436.772 121.202 436.783 121.255 436.783C121.308 436.783 121.361 436.772 121.41 436.75L122.32 436.23C122.41 436.23 122.42 436.1 122.32 436.05L121.32 435.5C121.272 435.475 121.219 435.463 121.165 435.463C121.111 435.463 121.058 435.475 121.01 435.5L120.1 436.02C120 436.07 120 436.15 120.1 436.2Z" fill="#3A2C6D"/>
<path d="M118.75 435.42L119.75 435.97C119.796 435.995 119.848 436.007 119.9 436.007C119.952 436.007 120.004 435.995 120.05 435.97L120.96 435.45C121.05 435.4 121.06 435.32 120.96 435.28L119.96 434.73C119.912 434.705 119.859 434.693 119.805 434.693C119.751 434.693 119.698 434.705 119.65 434.73L118.75 435.25C118.69 435.29 118.68 435.37 118.75 435.42Z" fill="#3A2C6D"/>
<path d="M117.41 434.64L118.41 435.19C118.457 435.212 118.508 435.224 118.56 435.224C118.612 435.224 118.663 435.212 118.71 435.19L119.62 434.66C119.71 434.66 119.72 434.53 119.62 434.49L118.62 433.94C118.574 433.915 118.522 433.903 118.47 433.903C118.418 433.903 118.366 433.915 118.32 433.94L117.41 434.46C117.34 434.52 117.33 434.59 117.41 434.64Z" fill="#3A2C6D"/>
<path d="M116.06 433.86L117.06 434.41C117.106 434.434 117.158 434.447 117.21 434.447C117.262 434.447 117.314 434.434 117.36 434.41L118.27 433.88C118.36 433.83 118.37 433.75 118.27 433.71L117.32 433.16C117.274 433.135 117.222 433.123 117.17 433.123C117.118 433.123 117.066 433.135 117.02 433.16L116.11 433.69C116 433.74 116 433.82 116.06 433.86Z" fill="#3A2C6D"/>
<path d="M114.71 433.08L115.71 433.63C115.758 433.655 115.811 433.667 115.865 433.667C115.919 433.667 115.972 433.655 116.02 433.63L116.93 433.11C117.02 433.05 117.02 432.98 116.93 432.93L115.93 432.38C115.881 432.358 115.829 432.346 115.775 432.346C115.721 432.346 115.669 432.358 115.62 432.38L114.71 432.91C114.64 433 114.63 433 114.71 433.08Z" fill="#3A2C6D"/>
<path d="M113.36 432.31L114.36 432.86C114.407 432.881 114.458 432.893 114.51 432.893C114.562 432.893 114.613 432.881 114.66 432.86L115.57 432.34C115.66 432.29 115.67 432.21 115.57 432.16L114.57 431.61C114.522 431.585 114.469 431.573 114.415 431.573C114.361 431.573 114.308 431.585 114.26 431.61L113.36 432.13C113.3 432.18 113.29 432.26 113.36 432.31Z" fill="#3A2C6D"/>
<path d="M112 431.53L113 432.08C113.046 432.104 113.098 432.117 113.15 432.117C113.202 432.117 113.254 432.104 113.3 432.08L114.21 431.56C114.3 431.51 114.31 431.43 114.21 431.39L113.21 430.84C113.164 430.815 113.112 430.803 113.06 430.803C113.008 430.803 112.956 430.815 112.91 430.84L112 431.36C112 431.4 111.94 431.48 112 431.53Z" fill="#3A2C6D"/>
<path d="M110.67 430.75L111.67 431.3C111.717 431.322 111.768 431.334 111.82 431.334C111.872 431.334 111.923 431.322 111.97 431.3L112.88 430.77C112.97 430.72 112.98 430.64 112.88 430.6L111.93 430.05C111.884 430.025 111.832 430.013 111.78 430.013C111.728 430.013 111.676 430.025 111.63 430.05L110.72 430.57C110.6 430.63 110.59 430.7 110.67 430.75Z" fill="#3A2C6D"/>
<path d="M109.32 430L110.32 430.55C110.368 430.575 110.421 430.587 110.475 430.587C110.529 430.587 110.582 430.575 110.63 430.55L111.54 430.02C111.63 429.97 111.63 429.89 111.54 429.85L110.54 429.3C110.492 429.275 110.439 429.263 110.385 429.263C110.331 429.263 110.278 429.275 110.23 429.3L109.32 429.83C109.25 429.85 109.24 429.93 109.32 430Z" fill="#3A2C6D"/>
<path d="M108 429.19L109 429.74C109.046 429.764 109.098 429.777 109.15 429.777C109.202 429.777 109.254 429.764 109.3 429.74L110.21 429.22C110.3 429.16 110.31 429.09 110.21 429.04L109.21 428.49C109.161 428.468 109.109 428.456 109.055 428.456C109.001 428.456 108.949 428.468 108.9 428.49L108 429.02C107.91 429.07 107.9 429.15 108 429.19Z" fill="#3A2C6D"/>
<path d="M106 428L107.6 428.93C107.647 428.952 107.698 428.964 107.75 428.964C107.802 428.964 107.853 428.952 107.9 428.93L108.81 428.41C108.9 428.36 108.91 428.28 108.81 428.23L107.21 427.31C107.164 427.285 107.112 427.273 107.06 427.273C107.008 427.273 106.956 427.285 106.91 427.31L106 427.84C105.91 427.92 105.9 428 106 428Z" fill="#3A2C6D"/>
<path d="M120.84 438.13L121.84 438.68C121.887 438.702 121.938 438.714 121.99 438.714C122.042 438.714 122.093 438.702 122.14 438.68L123.05 438.15C123.14 438.1 123.15 438.02 123.05 437.98L122.05 437.43C122.004 437.405 121.952 437.393 121.9 437.393C121.848 437.393 121.796 437.405 121.75 437.43L120.84 437.95C120.77 438 120.76 438.08 120.84 438.13Z" fill="#3A2C6D"/>
<path d="M119.49 437.35L120.49 437.9C120.539 437.922 120.591 437.934 120.645 437.934C120.699 437.934 120.751 437.922 120.8 437.9L121.7 437.37C121.79 437.32 121.8 437.24 121.7 437.2L120.7 436.65C120.654 436.625 120.602 436.613 120.55 436.613C120.498 436.613 120.446 436.625 120.4 436.65L119.49 437.18C119.42 437.23 119.41 437.31 119.49 437.35Z" fill="#3A2C6D"/>
<path d="M118.14 436.57L119.14 437.12C119.188 437.145 119.241 437.157 119.295 437.157C119.349 437.157 119.402 437.145 119.45 437.12L120.35 436.59C120.44 436.54 120.45 436.46 120.35 436.42L119.35 435.87C119.304 435.845 119.252 435.833 119.2 435.833C119.148 435.833 119.096 435.845 119.05 435.87L118.14 436.4C118.07 436.45 118.06 436.53 118.14 436.57Z" fill="#3A2C6D"/>
<path d="M116.79 435.79L117.74 436.34C117.788 436.365 117.841 436.377 117.895 436.377C117.949 436.377 118.002 436.365 118.05 436.34L118.95 435.81C119.04 435.76 119.05 435.68 118.95 435.64L117.95 435.09C117.904 435.065 117.852 435.053 117.8 435.053C117.748 435.053 117.696 435.065 117.65 435.09L116.74 435.62C116.72 435.67 116.71 435.75 116.79 435.79Z" fill="#3A2C6D"/>
<path d="M115.45 435L116.45 435.55C116.499 435.572 116.551 435.584 116.605 435.584C116.659 435.584 116.711 435.572 116.76 435.55L117.66 435.02C117.75 435.02 117.76 434.89 117.66 434.85L116.66 434.3C116.614 434.275 116.562 434.263 116.51 434.263C116.458 434.263 116.406 434.275 116.36 434.3L115.45 434.82C115.38 434.9 115.37 435 115.45 435Z" fill="#3A2C6D"/>
<path d="M114.1 434.24L115.1 434.79C115.149 434.812 115.201 434.824 115.255 434.824C115.309 434.824 115.361 434.812 115.41 434.79L116.31 434.26C116.4 434.21 116.41 434.13 116.31 434.09L115.31 433.54C115.264 433.515 115.212 433.503 115.16 433.503C115.108 433.503 115.056 433.515 115.01 433.54L114.1 434.06C114 434.12 114 434.19 114.1 434.24Z" fill="#3A2C6D"/>
<path d="M112.75 433.46L113.75 434.01C113.799 434.032 113.851 434.044 113.905 434.044C113.959 434.044 114.011 434.032 114.06 434.01L114.96 433.48C115.05 433.43 115.06 433.35 114.96 433.31L113.96 432.76C113.914 432.735 113.862 432.723 113.81 432.723C113.758 432.723 113.706 432.735 113.66 432.76L112.75 433.28C112.68 433.34 112.67 433.41 112.75 433.46Z" fill="#3A2C6D"/>
<path d="M111.4 432.68L112.35 433.23C112.399 433.252 112.451 433.264 112.505 433.264C112.559 433.264 112.611 433.252 112.66 433.23L113.57 432.7C113.65 432.65 113.66 432.57 113.57 432.53L112.57 431.98C112.524 431.955 112.472 431.943 112.42 431.943C112.368 431.943 112.316 431.955 112.27 431.98L111.36 432.51C111.33 432.56 111.32 432.64 111.4 432.68Z" fill="#3A2C6D"/>
<path d="M110.05 431.9L111.05 432.45C111.098 432.475 111.151 432.487 111.205 432.487C111.259 432.487 111.312 432.475 111.36 432.45L112.27 431.92C112.35 431.87 112.36 431.79 112.27 431.75L111.32 431.2C111.272 431.175 111.219 431.163 111.165 431.163C111.111 431.163 111.058 431.175 111.01 431.2L110.1 431.73C110 431.78 110 431.86 110.05 431.9Z" fill="#3A2C6D"/>
<path d="M108.7 431.12L109.7 431.67C109.748 431.694 109.801 431.707 109.855 431.707C109.909 431.707 109.962 431.694 110.01 431.67L110.92 431.14C111.01 431.09 111.01 431.01 110.92 430.97L109.92 430.42C109.871 430.398 109.819 430.386 109.765 430.386C109.711 430.386 109.659 430.398 109.61 430.42L108.7 430.95C108.63 431 108.62 431.08 108.7 431.12Z" fill="#3A2C6D"/>
<path d="M107.35 430.34L108.35 430.89C108.398 430.915 108.451 430.927 108.505 430.927C108.559 430.927 108.612 430.915 108.66 430.89L109.57 430.37C109.66 430.31 109.66 430.23 109.57 430.19L108.57 429.64C108.521 429.618 108.469 429.606 108.415 429.606C108.361 429.606 108.309 429.618 108.26 429.64L107.35 430.17C107.28 430.22 107.27 430.3 107.35 430.34Z" fill="#3A2C6D"/>
<path d="M106 429.56L107 430.11C107.048 430.135 107.101 430.147 107.155 430.147C107.209 430.147 107.262 430.135 107.31 430.11L108.22 429.59C108.31 429.53 108.32 429.46 108.22 429.41L107.22 428.86C107.171 428.838 107.119 428.826 107.065 428.826C107.011 428.826 106.959 428.838 106.91 428.86L106 429.39C105.93 429.44 105.92 429.52 106 429.56Z" fill="#3A2C6D"/>
<path d="M122.19 438.91L123.79 439.83C123.836 439.854 123.888 439.867 123.94 439.867C123.992 439.867 124.044 439.854 124.09 439.83L125 439.31C125.09 439.25 125.1 439.18 125 439.13L123.4 438.21C123.354 438.185 123.302 438.173 123.25 438.173C123.198 438.173 123.146 438.185 123.1 438.21L122.19 438.73C122.12 438.79 122.11 438.86 122.19 438.91Z" fill="#3A2C6D"/>
<path d="M105.89 428.08L106.89 428.63C106.911 428.63 106.932 428.638 106.947 428.653C106.962 428.668 106.97 428.689 106.97 428.71C106.97 428.731 106.962 428.751 106.947 428.766C106.932 428.781 106.911 428.79 106.89 428.79L105.89 429.35C105.846 429.37 105.798 429.38 105.75 429.38C105.702 429.38 105.654 429.37 105.61 429.35L105.53 429.3C105.489 429.28 105.445 429.27 105.4 429.27C105.355 429.27 105.311 429.28 105.27 429.3L104.27 429.89C104.226 429.91 104.178 429.92 104.13 429.92C104.082 429.92 104.034 429.91 103.99 429.89L103.38 429.54C103.3 429.49 103.3 429.42 103.38 429.38L104.38 428.83L104.58 428.72L104.72 428.63L104.86 428.55L105.68 428.08C105.747 428.053 105.823 428.053 105.89 428.08Z" fill="#3A2C6D"/>
<path d="M118.92 441.54L119.92 442.09C119.966 442.114 120.018 442.127 120.07 442.127C120.122 442.127 120.174 442.114 120.22 442.09L121.13 441.57C121.22 441.51 121.23 441.44 121.13 441.39L120.18 440.84C120.133 440.818 120.082 440.806 120.03 440.806C119.978 440.806 119.927 440.818 119.88 440.84L118.97 441.37C118.85 441.42 118.84 441.5 118.92 441.54Z" fill="#3A2C6D"/>
<path d="M117.57 440.77L118.57 441.32C118.618 441.345 118.671 441.357 118.725 441.357C118.779 441.357 118.832 441.345 118.88 441.32L119.78 440.8C119.87 440.8 119.88 440.67 119.78 440.62L118.78 440.08C118.734 440.055 118.682 440.043 118.63 440.043C118.578 440.043 118.526 440.055 118.48 440.08L117.57 440.6C117.5 440.64 117.49 440.72 117.57 440.77Z" fill="#3A2C6D"/>
<path d="M116.23 440L117.23 440.55C117.276 440.574 117.328 440.587 117.38 440.587C117.432 440.587 117.484 440.574 117.53 440.55L118.44 440.02C118.53 439.97 118.54 439.89 118.44 439.85L117.44 439.3C117.394 439.275 117.342 439.263 117.29 439.263C117.238 439.263 117.186 439.275 117.14 439.3L116.23 439.83C116.16 439.87 116.15 440 116.23 440Z" fill="#3A2C6D"/>
<path d="M104.78 433.38L105.78 433.93C105.826 433.954 105.878 433.967 105.93 433.967C105.982 433.967 106.034 433.954 106.08 433.93L106.99 433.41C107.08 433.41 107.09 433.28 106.99 433.23L105.99 432.68C105.942 432.655 105.889 432.643 105.835 432.643C105.781 432.643 105.728 432.655 105.68 432.68L104.78 433.2C104.72 433.26 104.71 433.34 104.78 433.38Z" fill="#3A2C6D"/>
<path d="M103.44 432.61L104.44 433.16C104.489 433.182 104.541 433.194 104.595 433.194C104.649 433.194 104.701 433.182 104.75 433.16L105.65 432.63C105.74 432.58 105.75 432.5 105.65 432.46L104.65 431.91C104.604 431.885 104.552 431.873 104.5 431.873C104.448 431.873 104.396 431.885 104.35 431.91L103.44 432.43C103.37 432.49 103.36 432.56 103.44 432.61Z" fill="#3A2C6D"/>
<path d="M102.1 431.83L103.1 432.38C103.146 432.404 103.198 432.417 103.25 432.417C103.302 432.417 103.354 432.404 103.4 432.38L104.31 431.86C104.4 431.8 104.41 431.73 104.31 431.68L103.31 431.13C103.263 431.108 103.212 431.096 103.16 431.096C103.108 431.096 103.057 431.108 103.01 431.13L102.1 431.66C102 431.71 102 431.79 102.1 431.83Z" fill="#3A2C6D"/>
<path d="M100.75 431.06L101.75 431.61C101.796 431.634 101.848 431.647 101.9 431.647C101.952 431.647 102.004 431.634 102.05 431.61L102.96 431.09C103.05 431.04 103.06 430.96 102.96 430.91L101.96 430.37C101.912 430.345 101.859 430.333 101.805 430.333C101.751 430.333 101.698 430.345 101.65 430.37L100.75 430.89C100.69 430.93 100.68 431 100.75 431.06Z" fill="#3A2C6D"/>
<path d="M114.54 439L115.84 439.74C115.886 439.764 115.938 439.777 115.99 439.777C116.042 439.777 116.094 439.764 116.14 439.74L117.05 439.22C117.14 439.17 117.15 439.09 117.05 439.04L115.75 438.29C115.704 438.265 115.652 438.253 115.6 438.253C115.548 438.253 115.496 438.265 115.45 438.29L114.54 438.81C114.47 438.89 114.46 439 114.54 439Z" fill="#3A2C6D"/>
<path d="M106.13 434.16L107.43 434.91C107.477 434.932 107.528 434.944 107.58 434.944C107.632 434.944 107.683 434.932 107.73 434.91L108.64 434.38C108.73 434.33 108.74 434.25 108.64 434.21L107.34 433.46C107.294 433.435 107.242 433.423 107.19 433.423C107.138 433.423 107.086 433.435 107.04 433.46L106.13 433.99C106.06 434 106.05 434.12 106.13 434.16Z" fill="#3A2C6D"/>
<path d="M107.82 435.14L114.15 438.79C114.197 438.812 114.248 438.824 114.3 438.824C114.352 438.824 114.403 438.812 114.45 438.79L115.36 438.26C115.45 438.21 115.46 438.13 115.36 438.09L109.03 434.43C108.984 434.405 108.932 434.393 108.88 434.393C108.828 434.393 108.776 434.405 108.73 434.43L107.82 434.95C107.75 435 107.74 435.09 107.82 435.14Z" fill="#3A2C6D"/>
<path d="M119.17 438.67L120.17 439.22C120.216 439.244 120.268 439.257 120.32 439.257C120.372 439.257 120.424 439.244 120.47 439.22L121.38 438.69C121.47 438.64 121.48 438.56 121.38 438.52L120.43 437.97C120.383 437.948 120.332 437.936 120.28 437.936C120.228 437.936 120.177 437.948 120.13 437.97L119.22 438.5C119.1 438.55 119.09 438.63 119.17 438.67Z" fill="#3A2C6D"/>
<path d="M117.82 437.89L118.82 438.44C118.868 438.464 118.921 438.477 118.975 438.477C119.029 438.477 119.082 438.464 119.13 438.44L120.03 437.92C120.12 437.87 120.13 437.79 120.03 437.74L119.03 437.19C118.984 437.165 118.932 437.153 118.88 437.153C118.828 437.153 118.776 437.165 118.73 437.19L117.82 437.71C117.75 437.77 117.74 437.85 117.82 437.89Z" fill="#3A2C6D"/>
<path d="M116.48 437.12L117.48 437.67C117.526 437.694 117.578 437.707 117.63 437.707C117.682 437.707 117.734 437.694 117.78 437.67L118.69 437.15C118.78 437.1 118.79 437.02 118.69 436.98L117.69 436.43C117.644 436.405 117.592 436.393 117.54 436.393C117.488 436.393 117.436 436.405 117.39 436.43L116.48 436.95C116.41 437 116.4 437.07 116.48 437.12Z" fill="#3A2C6D"/>
<path d="M115.13 436.34L116.13 436.89C116.176 436.914 116.228 436.927 116.28 436.927C116.332 436.927 116.384 436.914 116.43 436.89L117.34 436.36C117.43 436.31 117.44 436.23 117.34 436.19L116.34 435.64C116.294 435.615 116.242 435.603 116.19 435.603C116.138 435.603 116.086 435.615 116.04 435.64L115.13 436.17C115.06 436.22 115.05 436.3 115.13 436.34Z" fill="#3A2C6D"/>
<path d="M113.78 435.56L114.78 436.11C114.826 436.134 114.878 436.147 114.93 436.147C114.982 436.147 115.034 436.134 115.08 436.11L115.99 435.59C116.08 435.53 116.09 435.46 115.99 435.41L114.99 434.86C114.941 434.838 114.889 434.826 114.835 434.826C114.781 434.826 114.729 434.838 114.68 434.86L113.77 435.39C113.72 435.44 113.71 435.52 113.78 435.56Z" fill="#3A2C6D"/>
<path d="M112.44 434.79L113.44 435.34C113.486 435.364 113.538 435.377 113.59 435.377C113.642 435.377 113.694 435.364 113.74 435.34L114.65 434.82C114.74 434.77 114.75 434.69 114.65 434.64L113.65 434.09C113.603 434.068 113.552 434.056 113.5 434.056C113.448 434.056 113.397 434.068 113.35 434.09L112.44 434.61C112.37 434.66 112.36 434.74 112.44 434.79Z" fill="#3A2C6D"/>
<path d="M111.09 434L112.09 434.55C112.139 434.572 112.191 434.584 112.245 434.584C112.299 434.584 112.351 434.572 112.4 434.55L113.3 434.02C113.39 434.02 113.4 433.89 113.3 433.85L112.3 433.3C112.254 433.275 112.202 433.263 112.15 433.263C112.098 433.263 112.046 433.275 112 433.3L111.09 433.82C111 433.89 111 434 111.09 434Z" fill="#3A2C6D"/>
<path d="M109.75 433.23L110.75 433.78C110.796 433.804 110.848 433.817 110.9 433.817C110.952 433.817 111.004 433.804 111.05 433.78L111.96 433.25C112.05 433.2 112.06 433.12 111.96 433.08L110.96 432.53C110.913 432.508 110.862 432.496 110.81 432.496C110.758 432.496 110.707 432.508 110.66 432.53L109.75 433.06C109.68 433.11 109.67 433.19 109.75 433.23Z" fill="#3A2C6D"/>
<path d="M108.4 432.45L109.35 433C109.396 433.024 109.448 433.037 109.5 433.037C109.552 433.037 109.604 433.024 109.65 433L110.56 432.48C110.65 432.43 110.66 432.35 110.56 432.3L109.56 431.75C109.514 431.725 109.462 431.713 109.41 431.713C109.358 431.713 109.306 431.725 109.26 431.75L108.35 432.27C108.33 432.33 108.32 432.41 108.4 432.45Z" fill="#3A2C6D"/>
<path d="M107.05 431.68L108.05 432.23C108.098 432.254 108.151 432.267 108.205 432.267C108.259 432.267 108.312 432.254 108.36 432.23L109.27 431.71C109.36 431.66 109.37 431.58 109.27 431.54L108.32 430.99C108.272 430.965 108.219 430.953 108.165 430.953C108.111 430.953 108.058 430.965 108.01 430.99L107.1 431.51C107 431.55 107 431.63 107.05 431.68Z" fill="#3A2C6D"/>
<path d="M105.71 430.9L106.71 431.45C106.756 431.474 106.808 431.487 106.86 431.487C106.912 431.487 106.964 431.474 107.01 431.45L107.92 430.92C108.01 430.87 108.02 430.79 107.92 430.75L106.92 430.2C106.874 430.175 106.822 430.163 106.77 430.163C106.718 430.163 106.666 430.175 106.62 430.2L105.71 430.73C105.64 430.78 105.63 430.86 105.71 430.9Z" fill="#3A2C6D"/>
<path d="M104.36 430.12L105.36 430.67C105.408 430.695 105.461 430.707 105.515 430.707C105.569 430.707 105.622 430.695 105.67 430.67L106.57 430.15C106.66 430.09 106.67 430.02 106.57 429.97L105.57 429.42C105.523 429.398 105.472 429.386 105.42 429.386C105.368 429.386 105.317 429.398 105.27 429.42L104.36 429.95C104.29 430 104.28 430.08 104.36 430.12Z" fill="#3A2C6D"/>
<path d="M120.51 439.45L122.51 440.59C122.557 440.612 122.608 440.624 122.66 440.624C122.712 440.624 122.763 440.612 122.81 440.59L123.72 440.07C123.81 440.02 123.82 439.94 123.72 439.89L121.72 438.76C121.672 438.735 121.619 438.723 121.565 438.723C121.511 438.723 121.458 438.735 121.41 438.76L120.51 439.28C120.45 439.33 120.44 439.4 120.51 439.45Z" fill="#3A2C6D"/>
<path d="M118.53 439.81L119.53 440.36C119.576 440.384 119.628 440.397 119.68 440.397C119.732 440.397 119.784 440.384 119.83 440.36L120.74 439.83C120.83 439.78 120.84 439.7 120.74 439.66L119.79 439.11C119.743 439.088 119.692 439.076 119.64 439.076C119.588 439.076 119.537 439.088 119.49 439.11L118.58 439.64C118.46 439.69 118.45 439.77 118.53 439.81Z" fill="#3A2C6D"/>
<path d="M117.18 439L118.18 439.55C118.226 439.574 118.278 439.587 118.33 439.587C118.382 439.587 118.434 439.574 118.48 439.55L119.39 439.03C119.48 438.98 119.49 438.9 119.39 438.85L118.39 438.3C118.342 438.275 118.289 438.263 118.235 438.263C118.181 438.263 118.128 438.275 118.08 438.3L117.18 438.82C117.12 438.91 117.11 439 117.18 439Z" fill="#3A2C6D"/>
<path d="M115.84 438.26L116.84 438.81C116.886 438.834 116.938 438.847 116.99 438.847C117.042 438.847 117.094 438.834 117.14 438.81L118.05 438.29C118.14 438.29 118.15 438.16 118.05 438.12L117.05 437.57C117.004 437.545 116.952 437.533 116.9 437.533C116.848 437.533 116.796 437.545 116.75 437.57L115.84 438.09C115.77 438.13 115.76 438.21 115.84 438.26Z" fill="#3A2C6D"/>
<path d="M114.49 437.48L115.49 438.03C115.538 438.055 115.591 438.067 115.645 438.067C115.699 438.067 115.752 438.055 115.8 438.03L116.71 437.5C116.79 437.45 116.8 437.37 116.71 437.33L115.71 436.78C115.662 436.755 115.609 436.743 115.555 436.743C115.501 436.743 115.448 436.755 115.4 436.78L114.49 437.31C114.42 437.36 114.41 437.44 114.49 437.48Z" fill="#3A2C6D"/>
<path d="M113.15 436.7L114.1 437.25C114.146 437.274 114.198 437.287 114.25 437.287C114.302 437.287 114.354 437.274 114.4 437.25L115.31 436.73C115.4 436.67 115.41 436.6 115.31 436.55L114.31 436C114.263 435.978 114.212 435.966 114.16 435.966C114.108 435.966 114.057 435.978 114.01 436L113.1 436.53C113.08 436.58 113.07 436.66 113.15 436.7Z" fill="#3A2C6D"/>
<path d="M111.8 435.93L112.8 436.48C112.848 436.505 112.901 436.517 112.955 436.517C113.009 436.517 113.062 436.505 113.11 436.48L114.01 435.96C114.1 435.91 114.11 435.83 114.01 435.78L113.01 435.23C112.963 435.208 112.912 435.197 112.86 435.197C112.808 435.197 112.757 435.208 112.71 435.23L111.8 435.75C111.73 435.8 111.72 435.88 111.8 435.93Z" fill="#3A2C6D"/>
<path d="M110.45 435.15L111.45 435.7C111.497 435.722 111.548 435.734 111.6 435.734C111.652 435.734 111.703 435.722 111.75 435.7L112.66 435.17C112.75 435.12 112.76 435.04 112.66 435L111.66 434.45C111.612 434.425 111.559 434.413 111.505 434.413C111.451 434.413 111.398 434.425 111.35 434.45L110.45 434.97C110.39 435 110.38 435.1 110.45 435.15Z" fill="#3A2C6D"/>
<path d="M109.11 434.37L110.11 434.92C110.156 434.945 110.208 434.957 110.26 434.957C110.312 434.957 110.364 434.945 110.41 434.92L111.32 434.4C111.41 434.34 111.42 434.27 111.32 434.22L110.32 433.67C110.273 433.648 110.222 433.636 110.17 433.636C110.118 433.636 110.067 433.648 110.02 433.67L109.11 434.2C109 434.25 109 434.33 109.11 434.37Z" fill="#3A2C6D"/>
<path d="M107.76 433.6L108.71 434.15C108.759 434.172 108.812 434.183 108.865 434.183C108.918 434.183 108.971 434.172 109.02 434.15L109.93 433.63C110.02 433.58 110.03 433.5 109.93 433.45L108.93 432.9C108.882 432.875 108.829 432.863 108.775 432.863C108.721 432.863 108.668 432.875 108.62 432.9L107.71 433.42C107.7 433.47 107.69 433.55 107.76 433.6Z" fill="#3A2C6D"/>
<path d="M106.42 432.82L107.42 433.37C107.467 433.392 107.518 433.404 107.57 433.404C107.622 433.404 107.673 433.392 107.72 433.37L108.63 432.84C108.72 432.79 108.73 432.71 108.63 432.67L107.68 432.12C107.634 432.095 107.582 432.083 107.53 432.083C107.478 432.083 107.426 432.095 107.38 432.12L106.47 432.64C106.35 432.7 106.34 432.77 106.42 432.82Z" fill="#3A2C6D"/>
<path d="M105.07 432L106.07 432.55C106.118 432.574 106.171 432.587 106.225 432.587C106.279 432.587 106.332 432.574 106.38 432.55L107.28 432.02C107.37 431.97 107.38 431.89 107.28 431.85L106.28 431.3C106.233 431.278 106.182 431.266 106.13 431.266C106.078 431.266 106.027 431.278 105.98 431.3L105.07 431.83C105 431.92 105 432 105.07 432Z" fill="#3A2C6D"/>
<path d="M102.06 430.3L104.68 431.81C104.726 431.834 104.778 431.847 104.83 431.847C104.882 431.847 104.934 431.834 104.98 431.81L105.89 431.29C105.98 431.29 105.99 431.16 105.89 431.11L103.27 429.6C103.223 429.578 103.172 429.566 103.12 429.566C103.068 429.566 103.017 429.578 102.97 429.6L102.06 430.13C102 430.18 102 430.26 102.06 430.3Z" fill="#3A2C6D"/>
<path d="M119.88 440.59L121.17 441.34C121.219 441.362 121.271 441.374 121.325 441.374C121.379 441.374 121.431 441.362 121.48 441.34L122.38 440.81C122.47 440.76 122.48 440.68 122.38 440.64L121.08 439.89C121.034 439.865 120.982 439.853 120.93 439.853C120.878 439.853 120.826 439.865 120.78 439.89L119.87 440.41C119.81 440.47 119.8 440.54 119.88 440.59Z" fill="#3A2C6D"/>
<path d="M129.74 437.91L108.14 425.44V408.44L108.31 408.06L108.49 407.97C108.717 407.842 108.974 407.775 109.235 407.775C109.496 407.775 109.753 407.842 109.98 407.97L129.74 419.39C129.968 419.519 130.158 419.707 130.289 419.934C130.421 420.16 130.49 420.418 130.49 420.68V436.61C130.35 437.45 130.2 437.65 129.74 437.91Z" fill="#E5E5E5"/>
<path d="M127.76 421.45L108.14 409V408.43L108.31 408.05L108.49 407.96C108.717 407.832 108.974 407.765 109.235 407.765C109.496 407.765 109.753 407.832 109.98 407.96L129.74 419.38C129.982 419.515 130.18 419.716 130.31 419.96L127.76 421.45Z" fill="#E5E5E5"/>
<path d="M108.64 408.07L129.38 420.07C129.49 420.132 129.581 420.222 129.644 420.331C129.707 420.44 129.74 420.564 129.74 420.69V437.93L108.14 425.46V408.36C108.139 408.301 108.153 408.243 108.182 408.191C108.211 408.14 108.253 408.097 108.304 408.067C108.355 408.038 108.414 408.022 108.473 408.023C108.532 408.023 108.589 408.04 108.64 408.07V408.07Z" fill="#DCEEFF"/>
<path d="M108.64 408.07L129.38 420.07C129.49 420.132 129.581 420.222 129.644 420.331C129.707 420.44 129.74 420.564 129.74 420.69V437.93L108.14 425.46V408.36C108.139 408.301 108.153 408.243 108.182 408.191C108.211 408.14 108.253 408.097 108.304 408.067C108.355 408.038 108.414 408.022 108.473 408.023C108.532 408.023 108.589 408.04 108.64 408.07V408.07Z" fill="#F4F4F4"/>
<path d="M129.74 437.91V437.3L108.14 424.82V425.44L129.74 437.91Z" fill="#DBDBDB"/>
<path d="M108.7 424.54V408.96L108.97 409.11V424.4L108.7 424.54Z" fill="#1E3779"/>
<path d="M108.97 409.11V424.4L129.05 435.97V420.71L108.97 409.11Z" fill="#3A2C6D"/>
<path d="M108.7 424.54L129.05 436.28V435.97L108.97 424.4L108.7 424.54Z" fill="#031F60"/>
<path d="M85.44 405.37C84.93 406.65 86.24 408.21 89.72 409.31C93.2 410.41 93.52 409 93.52 409C95.8388 410.035 98.0989 411.197 100.29 412.48C102.38 413.95 103.29 418.17 103.58 425.31C103.91 433.57 103.94 445.83 103.66 447.94C103.66 447.94 99.76 451.84 94.76 451.43C89.76 451.02 81.35 446.59 79.31 443.18C79.31 435.93 80.21 434.75 79.04 430.58C76.35 421.03 74.94 417.12 76.24 410.77C77.32 405.54 78.83 404.89 80.89 404.94C82.4133 405.002 83.9321 405.145 85.44 405.37V405.37Z" fill="#F4F4F4"/>
<path d="M111.81 434.17C107.7 435.17 106.74 432.62 106.2 430.47C104.9 425.29 104.2 420.6 103.2 417.66C102.05 414.19 100.85 413.66 99.2 412.96C97.2 412.17 95.51 413.84 96.2 418.26C97.0065 423.388 98.2648 428.434 99.96 433.34C100.47 434.96 101.62 437.83 103.33 439.21C105.45 440.92 108.63 440.85 113.46 439.65C115.46 439.14 117.77 437.91 121.66 436.09C122.66 435.61 123.52 435.28 125.52 434.35C127.537 433.456 129.305 432.083 130.67 430.35C131.72 428.83 131.86 428.12 131.67 427.77C131.48 427.42 130.93 427.43 130.37 428.07C129.548 429.158 128.531 430.084 127.37 430.8C127.37 430.8 128.67 429.47 129.37 428.6C130.005 427.831 130.527 426.976 130.92 426.06C131.3 425.17 130.53 423.97 129.92 424.6C129.31 425.23 129.06 425.88 128 427.15C127.444 427.83 126.806 428.438 126.1 428.96C126.759 428.069 127.344 427.126 127.85 426.14C128.307 425.374 128.53 424.491 128.49 423.6C128.49 423.13 127.81 422.6 127.19 423.46C126.596 424.669 125.858 425.8 124.99 426.83C124.05 427.83 123.26 428.36 123.23 428.09C123.2 427.82 123.8 427.29 124.13 426.16C124.46 425.03 124.13 423.82 123.51 423.69C122.89 423.56 123 423.6 122.51 424.69C121.817 425.779 121.196 426.911 120.65 428.08C120.33 429.17 119.75 430.165 118.96 430.98C117.94 432 115.71 433.19 111.81 434.17Z" fill="#FFCEA9"/>
<path d="M97.67 412.25C100.41 411.85 102.34 413.08 103.55 417.25C104.76 421.42 105.61 424.81 105.61 424.81C104.515 426.355 102.875 427.427 101.02 427.81C97.74 428.6 96.56 427.04 96.56 427.04C96.56 427.04 95.65 422.68 95.09 419.72C94.53 416.76 94.28 412.75 97.67 412.25Z" fill="#EDEDED"/>
<path d="M99 391C99 391 103.33 384.42 94 383.08C87.23 382.08 82.89 386.46 82.38 391.17C81.9 395.68 84.68 400.36 86.68 402.22C88.6509 402.712 90.7339 402.459 92.53 401.51C92.6422 400.283 92.6856 399.052 92.66 397.82C92.66 397.82 89.33 390.88 99 391Z" fill="#3A2C6D"/>
<path d="M117.79 474.26V454.5L102.1 463.66L108.14 476.16L117.79 474.26Z" fill="#C4C7D6"/>
<path d="M107.51 455.64L113.53 452.14L117.79 454.61L111.55 458.15L107.51 455.64Z" fill="#D6D8E5"/>
<path opacity="0.4" d="M31.75 345.63L5.00001 329.94C2.00001 328.16 2.34001 325.05 5.85001 323L19.45 315C22.96 313 28.26 312.73 31.3 314.51L58.09 330.2C61.09 331.97 60.74 335.08 57.24 337.14L43.64 345.14C40.09 347.19 34.78 347.41 31.75 345.63Z" fill="#D6D8E5"/>
<path d="M65 330.16V292.23L7.78 285.7V323.87C7.79095 324.523 7.98395 325.16 8.33728 325.71C8.69061 326.259 9.19026 326.699 9.78 326.98L36.6 342.67C39.6 344.45 44.95 344.23 48.45 342.17L62.05 334.17C64.05 333.01 65.05 331.52 64.95 330.17L65 330.16Z" fill="#D6D8E5"/>
<path d="M64.94 296.37V292.23H60.54L36.12 277.91C33.12 276.13 27.77 276.36 24.27 278.41L10.67 286.41C10.4245 286.549 10.1875 286.703 9.96 286.87L7.78 285.7C7.78 285.7 7.78 290.07 7.78 290.22C7.79506 290.871 7.98984 291.505 8.34281 292.052C8.69577 292.599 9.19317 293.038 9.78 293.32L36.6 309C39.6 310.78 44.95 310.55 48.45 308.5L62.05 300.5C64.05 299.31 65.05 297.77 64.94 296.33V296.37Z" fill="#EDF0F9"/>
<path d="M36.6 304.5L9.82001 288.81C6.82001 287.03 7.16001 283.92 10.67 281.87L24.27 273.87C27.77 271.87 33.08 271.59 36.12 273.37L62.91 289.06C65.91 290.84 65.56 293.95 62.05 296L48.45 304C45 306.05 39.64 306.28 36.6 304.5Z" fill="#E2E5F2"/>
<path d="M30.57 283.08V281.57H29.66L29.37 281.39C28.4752 280.927 27.4825 280.685 26.475 280.685C25.4676 280.685 24.4748 280.927 23.58 281.39C23.409 281.487 23.2482 281.601 23.1 281.73L22.39 281.57V283.08C22.4139 283.445 22.5375 283.797 22.7473 284.096C22.9571 284.396 23.2451 284.633 23.58 284.78C24.4763 285.238 25.4684 285.477 26.475 285.477C27.4816 285.477 28.4738 285.238 29.37 284.78C29.7017 284.627 29.9872 284.389 30.1979 284.091C30.4085 283.792 30.5369 283.444 30.57 283.08V283.08Z" fill="#6E48E5"/>
<path d="M26.48 283.97C28.7389 283.97 30.57 282.896 30.57 281.57C30.57 280.245 28.7389 279.17 26.48 279.17C24.2212 279.17 22.39 280.245 22.39 281.57C22.39 282.896 24.2212 283.97 26.48 283.97Z" fill="#E11D48"/>
<path d="M40.45 288.77V287.26H39.54L39.26 287.08C38.3652 286.617 37.3724 286.375 36.365 286.375C35.3575 286.375 34.3648 286.617 33.47 287.08C33.2943 287.175 33.13 287.289 32.98 287.42L32.27 287.26V288.77C32.3031 289.134 32.4315 289.482 32.6421 289.781C32.8528 290.079 33.1383 290.317 33.47 290.47C34.3662 290.928 35.3584 291.167 36.365 291.167C37.3716 291.167 38.3637 290.928 39.26 290.47C39.5949 290.323 39.8829 290.086 40.0927 289.786C40.3025 289.487 40.4261 289.135 40.45 288.77Z" fill="#6E48E5"/>
<path d="M36.36 289.66C38.6188 289.66 40.45 288.585 40.45 287.26C40.45 285.935 38.6188 284.86 36.36 284.86C34.1011 284.86 32.27 285.935 32.27 287.26C32.27 288.585 34.1011 289.66 36.36 289.66Z" fill="#E11D48"/>
<path d="M50.35 294.85V293.34H49.43L49.15 293.16C48.2552 292.697 47.2625 292.455 46.255 292.455C45.2476 292.455 44.2548 292.697 43.36 293.16C43.1865 293.258 43.0225 293.372 42.87 293.5L42.16 293.34V294.85C42.1911 295.214 42.3187 295.564 42.5296 295.863C42.7405 296.161 43.0271 296.399 43.36 296.55C44.2548 297.013 45.2476 297.255 46.255 297.255C47.2625 297.255 48.2552 297.013 49.15 296.55C49.4829 296.399 49.7695 296.161 49.9804 295.863C50.1913 295.564 50.3189 295.214 50.35 294.85V294.85Z" fill="#6E48E5"/>
<path d="M46.25 295.74C48.5088 295.74 50.34 294.665 50.34 293.34C50.34 292.014 48.5088 290.94 46.25 290.94C43.9912 290.94 42.16 292.014 42.16 293.34C42.16 294.665 43.9912 295.74 46.25 295.74Z" fill="#E11D48"/>
</g>
<defs>
<clipPath id="clip0_1_228">
<rect width="457.97" height="500" fill="white"/>
</clipPath>
</defs>
</svg>
