<svg id="visual" viewBox="0 0 1200 600" width="1200" height="600" xmlns="http://www.w3.org/2000/svg" xmlns:xlink="http://www.w3.org/1999/xlink" version="1.1"><rect x="0" y="0" width="1200" height="600" fill="#F8FAFC"></rect><defs><linearGradient id="grad1_0" x1="50%" y1="0%" x2="100%" y2="100%"><stop offset="10%" stop-color="#f8fafc" stop-opacity="1"></stop><stop offset="90%" stop-color="#f8fafc" stop-opacity="1"></stop></linearGradient></defs><defs><linearGradient id="grad2_0" x1="0%" y1="0%" x2="50%" y2="100%"><stop offset="10%" stop-color="#f8fafc" stop-opacity="1"></stop><stop offset="90%" stop-color="#f8fafc" stop-opacity="1"></stop></linearGradient></defs><g transform="translate(1200, 0)"><path d="M0 420C-33.4 400 -66.9 380 -97.3 363.2C-127.8 346.4 -155.2 332.8 -184.5 319.6C-213.8 306.3 -245 293.5 -275.8 275.8C-306.5 258.1 -336.8 235.6 -356.8 206C-376.8 176.4 -386.5 139.8 -389.3 104.3C-392.1 68.8 -388 34.4 -384 0L0 0Z" fill="#e11d48"></path></g><g transform="translate(0, 600)"><path d="M0 -363C36.2 -375.5 72.4 -388 100.7 -375.7C129 -363.5 149.4 -326.4 178.5 -309.2C207.6 -291.9 245.5 -294.5 282.8 -282.8C320.2 -271.2 357.1 -245.2 363.7 -210C370.4 -174.8 346.8 -130.2 349.7 -93.7C352.5 -57.1 381.8 -28.6 411 0L0 0Z" fill="#e11d48"></path></g></svg>