<svg xmlns="http://www.w3.org/2000/svg" width="241" height="269" viewBox="0 0 241 269"><g><g><path fill="#fff" d="M101.936 68.053c23.471.808 45.859 11.162 61.341 28.821 14.583 16.635 18.037 39.219 17.701 61.339-.329 21.7-4.818 43.554-19.535 59.506-15.274 16.556-37.004 25.152-59.507 26.167-23.641 1.066-47.013-5.321-65.128-20.547C16.963 206.661.118 184.135 0 158.213c-.118-26.001 16.74-48.49 36.217-65.716 18.2-16.097 41.435-25.28 65.718-24.444z"/></g><g><g/><g><path fill="#1a1818" d="M170.568 240.214s-21.962 27.297 58.747 13.992c0 0 7.874-16.644-29.638-19.646"/><path fill="none" stroke="#1a1818" stroke-miterlimit="20" d="M170.568 240.214v0s-21.962 27.297 58.747 13.992c0 0 7.874-16.644-29.638-19.646"/></g><g><path fill="#fff" d="M101.245 50.033S68.23 21.807 34.127 76.109C.025 130.411 23.397 231.497 81.872 228.222c0 0 47.306 10.5 111.504-18.184 0 0-9.693-116.433-36.163-129.91-26.471-13.476-55.968-30.095-55.968-30.095z"/><path fill="none" stroke="#1a1818" stroke-miterlimit="20" d="M101.245 50.033v0S68.23 21.807 34.127 76.109C.025 130.411 23.397 231.497 81.872 228.222c0 0 47.306 10.5 111.504-18.184 0 0-9.693-116.433-36.163-129.91-26.471-13.476-55.968-30.095-55.968-30.095z"/></g><g><path fill="#fff" d="M106.562 118.02s-.324 25.383 31.209 38.752c0 0 10.233 4.706 13.992 12.828 3.758 8.122 9.228 70.164 9.228 70.164s25.008 7.466 30.37-6.996c5.36-14.463-10.718-83.953-10.718-83.953a29.676 29.676 0 0 0-1.997-7.32c-3.612-9.19-13.642-24.683-41.034-32.436-40.437-11.448-30.37 8.942-30.37 8.942"/><path fill="none" stroke="#1a1818" stroke-miterlimit="20" d="M106.562 118.02v0s-.324 25.383 31.209 38.752c0 0 10.233 4.706 13.992 12.828 3.758 8.122 9.228 70.164 9.228 70.164v0s25.008 7.466 30.37-6.996c5.36-14.463-10.718-83.953-10.718-83.953a29.676 29.676 0 0 0-1.997-7.32c-3.612-9.19-13.642-24.683-41.034-32.436-40.437-11.448-30.37 8.942-30.37 8.942v0"/></g><g><path fill="#fff" d="M104.565 31.783s-1.991-3.981-3.371-.852-.935 5.75 1.704 6.576c2.64.827 2.659-1.54 2.659-1.54s3.383 12.276 18.183 7.913c8-2.354 4.834-9.337 4.796-17.777-.045-8.942-.897-11.371-.897-11.371l-21.624-3.492-3.893 15.754-.776 2.111.98-.852z"/><path fill="none" stroke="#1a1818" stroke-miterlimit="20" d="M104.565 31.783v0s-1.991-3.981-3.371-.852-.935 5.75 1.704 6.576c2.64.827 2.659-1.54 2.659-1.54v0s3.383 12.276 18.183 7.913c8-2.354 4.834-9.337 4.796-17.777-.045-8.942-.897-11.371-.897-11.371v0l-21.624-3.492v0l-3.893 15.754v0l-.776 2.111v0l.98-.852v0z"/></g><g><path fill="#1a1818" d="M144.106 250.284s-21.955 27.297 58.748 13.992a9.7 9.7 0 0 0-.363-7.994c-2.372-4.72-9.54-10.075-29.256-11.652"/><path fill="none" stroke="#1a1818" stroke-miterlimit="20" d="M144.106 250.284v0s-21.955 27.297 58.748 13.992a9.7 9.7 0 0 0-.363-7.994c-2.372-4.72-9.54-10.075-29.256-11.652"/></g><g><path fill="#1a1818" d="M100.949 30.917s-7.88-6.9-1.234-23.627c6.449-16.205 14.5 1.908 32.34-5.164 1.762-.694 4.065-.49 5.031 1.132.967 1.621 1.857 5.088-1.323 8.82-13.718 15.996-29.555-.24-29.555-.24s3.428 11.123-5.26 19.08z"/><path fill="none" stroke="#1a1818" stroke-miterlimit="20" d="M100.949 30.917s-7.88-6.9-1.234-23.627c6.449-16.205 14.5 1.908 32.34-5.164 1.762-.694 4.065-.49 5.031 1.132.967 1.621 1.857 5.088-1.323 8.82-13.718 15.996-29.555-.24-29.555-.24v0s3.428 11.123-5.26 19.08z"/></g><g><path fill="#fff" d="M110.23 23.9s2.315-3.982 6.996-1.444"/></g><g><path fill="#1a1818" d="M110.57 24.097c.104-.182.23-.35.374-.503.335-.39.73-.725 1.17-.992 1.565-.941 3.371-.636 4.917.197.451.242.852-.445.4-.687a6.03 6.03 0 0 0-4.68-.667 5.336 5.336 0 0 0-2.455 1.691c-.153.176-.291.363-.414.56a.4.4 0 0 0 .687.4z"/></g><g><path fill="#fff" d="M121.5 22.55s1.806-3.982 5.463-1.444"/></g><g><path fill="#1a1818" d="M121.836 22.746c.184-.389.426-.747.719-1.062a2.811 2.811 0 0 1 2.213-1.024c.721.076 1.408.349 1.985.789.426.292.826-.401.407-.687a3.988 3.988 0 0 0-3.715-.636 4.452 4.452 0 0 0-2.01 1.755c-.105.16-.2.325-.286.496-.21.464.477.871.687.4z"/></g><g><path fill="#fff" d="M121.863 44.607l-.21 3.765s5.508 8.11 4.408 11.5c-1.1 3.39-7.569 6.614-7.569 6.614s-8.77-6.818-9.012-7.143c-.242-.324-1.38-7.2-1.38-7.2l.566-3.98 1.596-1.52.776-3.543s3.48 2.493 10.825 1.507z"/><path fill="none" stroke="#1a1818" stroke-miterlimit="20" d="M121.863 44.607v0l-.21 3.765v0s5.508 8.11 4.408 11.5c-1.1 3.39-7.569 6.614-7.569 6.614v0s-8.77-6.818-9.012-7.143c-.242-.324-1.38-7.2-1.38-7.2v0l.566-3.98v0l1.596-1.52v0l.776-3.543v0s3.48 2.493 10.825 1.507z"/></g><g><path fill="#1a1818" d="M115.526 27.731a1.126 1.126 0 1 0 0-2.251 1.126 1.126 0 0 0 0 2.251z"/><path fill="none" stroke="#1a1818" stroke-miterlimit="20" stroke-width=".25" d="M115.526 27.731a1.126 1.126 0 1 0 0-2.251 1.126 1.126 0 0 0 0 2.251z"/></g><g><path fill="#1a1818" d="M125.136 26.601a1.126 1.126 0 1 0 0-2.251 1.126 1.126 0 0 0 0 2.251z"/><path fill="none" stroke="#1a1818" stroke-miterlimit="20" stroke-width=".25" d="M125.136 26.601a1.126 1.126 0 1 0 0-2.251 1.126 1.126 0 0 0 0 2.251z"/></g><g><path fill="#1a1818" d="M120.534 26.755a6.36 6.36 0 0 0 1.794 3.224c.718.776 1.793 1.431 1.768 2.614a2.2 2.2 0 0 1-1.12 1.787c-.438.205-.93.267-1.405.178a2.95 2.95 0 0 1-.776-.19c-.076 0-.153-.09-.229-.115-.076-.025-.108-.146-.038 0-.185-.47-.954-.267-.77.21.325.814 1.762.922 2.48.884a2.83 2.83 0 0 0 2.341-4.07 6.22 6.22 0 0 0-1.335-1.52 8.675 8.675 0 0 1-1.215-1.47 5.826 5.826 0 0 1-.592-1.176l-.095-.33c0-.058-.045-.274 0-.052-.07-.502-.865-.509-.795 0z"/></g><g><path fill="#fff" d="M115.02 36.79c.108.216 5.52 5.088 10.558.382"/></g><g><path fill="#1a1818" d="M114.68 37c.316.385.7.71 1.132.96a9.877 9.877 0 0 0 2.595 1.272 7.384 7.384 0 0 0 7.454-1.788c.375-.35-.185-.91-.56-.56a6.615 6.615 0 0 1-6.8 1.546 9.07 9.07 0 0 1-2.25-1.151 6.96 6.96 0 0 1-.637-.483l-.19-.178c-.051-.051-.102-.134-.045 0a.4.4 0 0 0-.687.4z"/></g><g><path fill="#fff" d="M89.665 118.553c5.59-1.024 15.41 0 26.388.235 4.121.09 8.408.057 12.72-.235 15.696-1.088 13.858-3.683 13.858-4.007 0-.324-.299-12.167-.299-12.167s12.72-3.631 22.572-1.272c0 0-10.946-43.986-17.846-45.607-6.9-1.622-12.18-.636-16.81-2.678-4.63-2.042-6.169-4.795-7.466-5.037-1.298-.242-1.139.731-1.139.731a13.991 13.991 0 0 1 .242 11.69c-2.76 6.252-2.595 3.25-2.595 3.25s-1.952-8.522-6.742-9.985c0 0-3.498-1.654-2.842-4.452.655-2.799-1.559-1.68-1.998-1.272-.8.601-1.633 1.16-2.493 1.672l-6.36 1.056s-9.813-1.78-16.892 7.588c-7.079 9.368-8.783 26.909-8.783 26.909a52.953 52.953 0 0 1 20.988 2.06l-6.424 26.356 1.813 4.79z"/><path fill="none" stroke="#1a1818" stroke-miterlimit="20" d="M89.665 118.553c5.59-1.024 15.41 0 26.388.235 4.121.09 8.408.057 12.72-.235 15.696-1.088 13.858-3.683 13.858-4.007 0-.324-.299-12.167-.299-12.167v0s12.72-3.631 22.572-1.272c0 0-10.946-43.986-17.846-45.607-6.9-1.622-12.18-.636-16.81-2.678-4.63-2.042-6.169-4.795-7.466-5.037-1.298-.242-1.139.731-1.139.731a13.991 13.991 0 0 1 .242 11.69c-2.76 6.252-2.595 3.25-2.595 3.25v0s-1.952-8.522-6.742-9.985c0 0-3.498-1.654-2.842-4.452.655-2.799-1.559-1.68-1.998-1.272-.8.601-1.633 1.16-2.493 1.672l-6.36 1.056v0s-9.813-1.78-16.892 7.588c-7.079 9.368-8.783 26.909-8.783 26.909a52.953 52.953 0 0 1 20.988 2.06l-6.424 26.356v0l1.813 4.79v0z"/></g><g/><g/><g/><g><path fill="#F43F5F" d="M144.627 79.602L134.45 85.49l-.49-13.782a1.545 1.545 0 0 1 .954-1.489l8.16-3.37a.814.814 0 0 1 1.12.725z"/><path fill="none" stroke="#1a1818" stroke-miterlimit="20" d="M144.627 79.602v0L134.45 85.49v0l-.49-13.782a1.545 1.545 0 0 1 .954-1.489l8.16-3.37a.814.814 0 0 1 1.12.725z"/></g><g><path fill="#fff" d="M141.47 98.39c.159.407.464 4.338.464 4.338"/><path fill="none" stroke="#1a1818" stroke-miterlimit="20" d="M141.47 98.39c.159.407.464 4.338.464 4.338"/></g><g><path fill="#fff" d="M86.362 127.763s-.33 25.383 31.209 38.752c0 0 10.227 4.706 13.96 12.828 3.733 8.121 9.26 70.151 9.26 70.151s25.008 7.466 30.363-6.996c5.355-14.463-10.717-83.953-10.717-83.953a29.45 29.45 0 0 0-1.99-7.32c-3.62-9.19-13.649-24.683-41.042-32.436-40.43-11.448-30.362 8.942-30.362 8.942"/><path fill="none" stroke="#1a1818" stroke-miterlimit="20" d="M86.362 127.763v0s-.33 25.383 31.209 38.752c0 0 10.227 4.706 13.96 12.828 3.733 8.121 9.26 70.151 9.26 70.151v0s25.008 7.466 30.363-6.996c5.355-14.463-10.717-83.953-10.717-83.953a29.45 29.45 0 0 0-1.99-7.32c-3.62-9.19-13.649-24.683-41.042-32.436-40.43-11.448-30.362 8.942-30.362 8.942v0"/></g><g><path fill="#fff" d="M141.911 102.488s14.368-3.632 23.005-1.361l.216.063s3.53 13.394 2.964 16.6c-.566 3.205-1.38 3.574-1.38 3.574s-3.002 1.946-15.265 4.306c-12.262 2.36-27.767 5.196-29.714 6.996-1.946 1.8-6.659 9.496-8.935 10.068-2.277.572 2.035-8.853 2.035-8.853s-3.18 9.909-4.223 11.124c-1.043 1.214-3.492.814-3.25.407.241-.407 2.111-7.632 3.816-10.475 1.704-2.843-4.223 10.227-4.955 10.882-.731.655-2.251 2.067-2.232-1.406.02-3.473 1.806-10.31 3.046-11.346 1.24-1.037-5.412 13.197-6.309 11.562-.896-1.634-.388-15.938 4.643-17.56a75.365 75.365 0 0 1 26.267-14.31c15.9-4.872 10.812-3.816 10.812-3.816z"/><path fill="none" stroke="#1a1818" stroke-miterlimit="20" d="M141.911 102.488v0s14.368-3.632 23.005-1.361l.216.063v0s3.53 13.394 2.964 16.6c-.566 3.205-1.38 3.574-1.38 3.574v0s-3.002 1.946-15.265 4.306c-12.262 2.36-27.767 5.196-29.714 6.996-1.946 1.8-6.659 9.496-8.935 10.068-2.277.572 2.035-8.853 2.035-8.853v0s-3.18 9.909-4.223 11.124c-1.043 1.214-3.492.814-3.25.407.241-.407 2.111-7.632 3.816-10.475 1.704-2.843-4.223 10.227-4.955 10.882-.731.655-2.251 2.067-2.232-1.406.02-3.473 1.806-10.31 3.046-11.346 1.24-1.037-5.412 13.197-6.309 11.562-.896-1.634-.388-15.938 4.643-17.56a75.365 75.365 0 0 1 26.267-14.31c15.9-4.872 10.812-3.816 10.812-3.816v0z"/></g><g><path fill="#fff" d="M74.46 85.15c5.68-1.997 19.468 2.169 19.468 2.169l1.978-8.784c.044.535-.534 3.301-1.272 6.602l-.267 1.17c-.058.248-.115.496-.178.744-1.164 5-2.544 10.47-2.786 11.321-.1.332-.306.622-.585.827l-3.358 2.544c4.865-4.37 30.731-13.617 34.007-14.78.223-.08.425-.208.591-.376l4.452-4.496c.177-.183.395-.32.636-.401l6.73-2.15-.128 2.977a1.59 1.59 0 0 0 2.232 1.526l2.24-.973a14.717 14.717 0 0 0 4.718-3.542 1.59 1.59 0 0 1 2.627 1.704l-.038.09c-1.342 2.963-10.552 8.083-8.04 6.823 2.513-1.259 8.116-6.245 8.148-6.175 1.38 2.894-3.734 8.783-3.734 8.783s3.626-5.438 3.626-3.326c0 1.94-2.118 6.36-2.468 7.047-.032.063-.07.127-.108.19-16.135 24.372-63.352 34.739-64 35.146-6.933 4.331-8.905-30.853-3.41-56.674 5.26-24.607 21.554-22.896 23.068-22.667.085.006.17.006.254 0 .98 0 6.678-.312 8.421-2.309"/><path fill="none" stroke="#1a1818" stroke-miterlimit="20" d="M74.46 85.15c5.68-1.997 19.468 2.169 19.468 2.169v0l1.978-8.784c.044.535-.534 3.301-1.272 6.602l-.267 1.17c-.058.248-.115.496-.178.744-1.164 5-2.544 10.47-2.786 11.321-.1.332-.306.622-.585.827l-3.358 2.544c4.865-4.37 30.731-13.617 34.007-14.78.223-.08.425-.208.591-.376l4.452-4.496c.177-.183.395-.32.636-.401l6.73-2.15v0l-.128 2.977a1.59 1.59 0 0 0 2.232 1.526l2.24-.973a14.717 14.717 0 0 0 4.718-3.542 1.59 1.59 0 0 1 2.627 1.704l-.038.09c-1.342 2.963-10.552 8.083-8.04 6.823 2.513-1.259 8.116-6.245 8.148-6.175 1.38 2.894-3.734 8.783-3.734 8.783v0s3.626-5.438 3.626-3.326c0 1.94-2.118 6.36-2.468 7.047-.032.063-.07.127-.108.19-16.135 24.372-63.352 34.739-64 35.146-6.933 4.331-8.905-30.853-3.41-56.674 5.26-24.607 21.554-22.896 23.068-22.667.085.006.17.006.254 0 .98 0 6.678-.312 8.421-2.309"/></g><g><path fill="#fff" d="M223.82 146.44c0-1.406 15.697-16.346 14.507-28.252-1.19-11.906 2.379-.98 2.379-.98s.382 17.758-7.174 23.062c-7.556 5.304-9.712 6.17-9.712 6.17z"/><path fill="none" stroke="#1a1818" stroke-miterlimit="20" d="M223.82 146.44c0-1.406 15.697-16.346 14.507-28.252-1.19-11.906 2.379-.98 2.379-.98v0s.382 17.758-7.174 23.062c-7.556 5.304-9.712 6.17-9.712 6.17z"/></g><g><path fill="#fff" d="M222.412 146.001c-.324-2.486-4.216-21.217 4.98-38.433 9.197-17.217 4.223-18.724 4.223-18.724s-1.017-2.315.636-1.685c1.654.63 3.657 1.52 3.06 6.36-.598 4.84-2.328 20.46-7.416 33.504-5.088 13.045-5.483 18.978-5.483 18.978z"/><path fill="none" stroke="#1a1818" stroke-miterlimit="20" d="M222.412 146.001c-.324-2.486-4.216-21.217 4.98-38.433 9.197-17.217 4.223-18.724 4.223-18.724v0s-1.017-2.315.636-1.685c1.654.63 3.657 1.52 3.06 6.36-.598 4.84-2.328 20.46-7.416 33.504-5.088 13.045-5.483 18.978-5.483 18.978z"/></g><g><path fill="#fff" d="M194.802 76.177c.057-.216.14-.718.254-1.342.572-3.065 1.972-9.05 4.942 1.342 3.574 12.504-5.572 30.045 6.659 45.792 12.23 15.748 14.628 22.896 14.628 22.896s-2.64 3.085-2.964 1.139c-.324-1.946-28.576-29.714-26.954-49.69 1.622-19.978 3.435-20.137 3.435-20.137z"/><path fill="none" stroke="#1a1818" stroke-miterlimit="20" d="M194.802 76.177c.057-.216.14-.718.254-1.342.572-3.065 1.972-9.05 4.942 1.342 3.574 12.504-5.572 30.045 6.659 45.792 12.23 15.748 14.628 22.896 14.628 22.896v0s-2.64 3.085-2.964 1.139c-.324-1.946-28.576-29.714-26.954-49.69 1.622-19.978 3.435-20.137 3.435-20.137z"/></g><g><path fill="#fff" d="M219.063 144.204c-.216-.471-16.237-36.195-1.272-68.688 14.965-32.494-4.331-46.994-4.331-46.994s-1.628-5.4 4.274-3.346c5.902 2.055 10.558 20.244 12.014 29.555 1.456 9.311-5.139 19.157-5.896 36.29-.757 17.134-3.67 14.89-4.496 33.372-.827 18.482-.293 19.811-.293 19.811z"/><path fill="none" stroke="#1a1818" stroke-miterlimit="20" d="M219.063 144.204c-.216-.471-16.237-36.195-1.272-68.688 14.965-32.494-4.331-46.994-4.331-46.994v0s-1.628-5.4 4.274-3.346c5.902 2.055 10.558 20.244 12.014 29.555 1.456 9.311-5.139 19.157-5.896 36.29-.757 17.134-3.67 14.89-4.496 33.372-.827 18.482-.293 19.811-.293 19.811z"/></g><g><path fill="#fff" d="M235.89 213.355h-25.98l4.465-70.475h15.346z"/><path fill="none" stroke="#1a1818" stroke-miterlimit="20" d="M235.89 213.355v0h-25.98v0l4.465-70.475v0h15.346v0z"/></g><g><path fill="#fff" d="M45.5 74.76c1.787 0 17.865 1.787 25.987 34.916 3.612 14.737 3.689 29.93 2.659 42.25a159.238 159.238 0 0 1-4.313 26.273"/><path fill="none" stroke="#1a1818" stroke-miterlimit="20" d="M45.5 74.76c1.787 0 17.865 1.787 25.987 34.916 3.612 14.737 3.689 29.93 2.659 42.25a159.238 159.238 0 0 1-4.313 26.273"/></g><g><path fill="#fff" d="M117.921 173.618s-9.03-19.582-43.731-22.368"/><path fill="none" stroke="#1a1818" stroke-miterlimit="20" d="M117.921 173.618s-9.03-19.582-43.731-22.368"/></g><g><path fill="#fff" d="M77.46 181.123c3.409-1.622 28.932-15.156 52.953-3.816"/><path fill="none" stroke="#1a1818" stroke-miterlimit="20" d="M77.46 181.123c3.409-1.622 28.932-15.156 52.953-3.816"/></g><g/></g></g></svg>