<svg width="397" height="500" viewBox="0 0 397 500" fill="none" xmlns="http://www.w3.org/2000/svg">
<g clip-path="url(#clip0_1_563)">
<path opacity="0.4" d="M21.36 477.8L0 465.58L31.96 447.29L53.31 459.5L21.36 477.8Z" fill="#D6D8E5"/>
<path d="M21.8 453.17L4.11 442.96L21.8 432.75L39.48 442.96L21.8 453.17Z" fill="#D6D8E5"/>
<path d="M21.8 473.59L4.11 463.38V442.96L21.8 453.17V473.59Z" fill="#B1B6C4"/>
<path d="M39.49 463.38L21.8 473.59V453.17L39.49 442.96V463.38Z" fill="#C4C7D6"/>
<path d="M45.57 457C47.0997 457.426 48.7359 457.228 50.12 456.45C51.22 456.45 57.18 453.94 57.99 456.08C58.7 457.95 56.12 459.69 54.74 460.02C51.74 460.75 49.5 462.25 48.29 462.51C47.8292 462.675 47.3349 462.725 46.8503 462.655C46.3657 462.586 45.9056 462.398 45.51 462.11C44.65 461.21 44.73 458.07 45.57 457Z" fill="#38226D"/>
<path d="M48.29 461.94C49.5 461.68 51.73 460.18 54.74 459.45C55.89 459.17 57.88 457.91 58.08 456.4C58.35 458.13 56.02 459.66 54.74 459.97C51.74 460.7 49.5 462.2 48.29 462.46C47.8292 462.625 47.3349 462.675 46.8503 462.605C46.3657 462.536 45.9056 462.348 45.51 462.06C45.3194 461.858 45.1849 461.61 45.12 461.34C45.5649 461.68 46.0834 461.912 46.6338 462.016C47.1842 462.12 47.7514 462.094 48.29 461.94V461.94Z" fill="#9C73FF"/>
<path d="M34.83 451.23C36.3597 451.656 37.9959 451.458 39.38 450.68C40.48 450.68 46.38 448.17 47.24 450.31C47.95 452.18 45.37 453.92 44 454.25C41 454.98 38.76 456.48 37.55 456.74C37.0892 456.905 36.5949 456.955 36.1103 456.885C35.6257 456.816 35.1656 456.628 34.77 456.34C33.91 455.49 34 452.35 34.83 451.23Z" fill="#38226D"/>
<path d="M37.55 456.22C38.76 455.96 40.99 454.46 44 453.73C45.15 453.45 47.14 452.19 47.34 450.68C47.61 452.41 45.28 453.94 44 454.25C41 454.98 38.76 456.48 37.55 456.74C37.0892 456.905 36.5949 456.955 36.1103 456.885C35.6257 456.816 35.1656 456.628 34.77 456.34C34.5816 456.14 34.4474 455.896 34.38 455.63C34.8265 455.967 35.3453 456.196 35.8955 456.299C36.4456 456.401 37.012 456.374 37.55 456.22V456.22Z" fill="#9C73FF"/>
<path d="M18.1 443.82C22.75 445.82 27.1 446.18 30.71 444.26L34.41 442.12C34.63 446.9 34.84 451.49 34.84 451.49C34.84 451.49 37.68 453.64 39.84 451.72C39.84 451.72 40.3 445.02 40.77 438.42L44.65 436.18C44.5565 436.533 44.5061 436.895 44.5 437.26C44.5 438.51 45.4 457.14 45.4 457.14C45.4 457.14 48.26 458.84 50.47 456.93C50.47 456.93 51.96 435.34 52.3 431.93C52.68 428.05 48.38 426.14 45.65 427.13L41.49 428.68L41.69 426.28C42.08 422.4 37.77 420.49 35.05 421.48C32.57 422.39 15.81 428.67 15.81 428.67C15.9143 430.283 16.1113 431.889 16.4 433.48L9.78 432.92C9.43 439.11 13.46 441.78 18.1 443.82ZM29.66 433.09L34.09 430.54C34.0162 430.852 33.9693 431.17 33.95 431.49L29.66 433.09Z" fill="#E11D48"/>
<path d="M6.2 414C6.2 414 6.74 422.23 7.82 423.42C8.9 424.61 12.56 425.42 12.56 425.42L15.37 430C15.37 430 12.8 415.32 12.24 415C11.68 414.68 6.2 414 6.2 414Z" fill="#FFCEA9"/>
<path d="M11.61 404.85C10.9286 404.532 10.1545 404.473 9.43285 404.685C8.7112 404.896 8.09154 405.364 7.69 406C6.69 407.71 5.58 413.6 5.48 414.6C5.89564 415.161 6.44624 415.609 7.08078 415.901C7.71533 416.193 8.41329 416.32 9.11 416.27L11.61 404.85Z" fill="#EDEDED"/>
<path d="M12.6 405C14.02 405.07 15.08 405.43 15.26 405C15.4125 404.267 15.5193 403.526 15.58 402.78C15.42 402.36 15.28 401.92 15.28 401.92C13.49 400.82 12.93 398.92 12.69 396.64C12.29 392.79 14.37 389.43 18.21 389.03C21.83 388.65 24.49 391.19 25.21 394.68C25.59 396.4 26.35 399.68 25.32 402.49C24.75 404.07 24.01 405.33 23.32 405.57C22.6036 405.555 21.8888 405.495 21.18 405.39V405.39C21.18 405.39 20.99 406.46 20.86 407.14C20.73 407.82 20.77 408.19 22.14 409.03C23.51 409.87 20.08 411.6 17.84 411.43C15.6 411.26 13.08 409.91 12.39 408.43C11.56 406.81 11.62 404.91 12.6 405Z" fill="#FFCEA9"/>
<path d="M48.66 430.15C48.6592 430.353 48.6052 430.552 48.5034 430.727C48.4017 430.903 48.2557 431.049 48.08 431.15L37.23 437.41C37.054 437.513 36.8538 437.567 36.65 437.567C36.4462 437.567 36.246 437.513 36.07 437.41L20.87 428.63C20.693 428.53 20.5458 428.385 20.4438 428.209C20.3419 428.033 20.2887 427.833 20.29 427.63V427.55L48.66 430.15Z" fill="#E5E5E5"/>
<path d="M48.08 431.15L37.23 437.41C37.0553 437.516 36.8544 437.572 36.65 437.57V430.15H48.65C48.6502 430.352 48.5977 430.55 48.4978 430.726C48.3978 430.901 48.2538 431.047 48.08 431.15V431.15Z" fill="#E5E5E5"/>
<path d="M37.06 436.84C36.9376 436.913 36.7976 436.952 36.655 436.952C36.5124 436.952 36.3724 436.913 36.25 436.84L20.44 427.72C20.24 427.6 20.24 427.41 20.44 427.3L32.08 420.57L48.66 430.15L37.06 436.84Z" fill="#F4F4F4"/>
<path d="M26.93 430.15L27.01 430.19L32.08 433.12L34.86 431.51L34.94 431.47L29.79 428.5L26.93 430.15Z" fill="#BFBFBF"/>
<path d="M27.01 430.19L32.08 433.12L34.86 431.51L29.79 428.59L27.01 430.19Z" fill="#E5E5E5"/>
<path d="M44.36 430.62L45.09 431.04C45.1253 431.059 45.1648 431.069 45.205 431.069C45.2452 431.069 45.2847 431.059 45.32 431.04L46.02 430.64C46.09 430.64 46.1 430.54 46.02 430.51L45.29 430.08C45.254 430.063 45.2148 430.054 45.175 430.054C45.1352 430.054 45.096 430.063 45.06 430.08L44.36 430.49C44.31 430.53 44.3 430.59 44.36 430.62Z" fill="#3A2C6D"/>
<path d="M43.33 430L44.06 430.42C44.0953 430.439 44.1348 430.449 44.175 430.449C44.2152 430.449 44.2547 430.439 44.29 430.42L44.99 430.02C45.06 430.02 45.06 429.92 44.99 429.89L44.26 429.47C44.2247 429.451 44.1852 429.441 44.145 429.441C44.1048 429.441 44.0653 429.451 44.03 429.47L43.33 429.87C43.28 429.93 43.27 430 43.33 430Z" fill="#3A2C6D"/>
<path d="M42.29 429.43L43.02 429.85C43.0577 429.867 43.0986 429.876 43.14 429.876C43.1814 429.876 43.2223 429.867 43.26 429.85L43.95 429.45C44.02 429.45 44.03 429.35 43.95 429.31L43.22 428.89C43.1847 428.871 43.1452 428.861 43.105 428.861C43.0648 428.861 43.0253 428.871 42.99 428.89L42.29 429.29C42.24 429.33 42.23 429.39 42.29 429.43Z" fill="#3A2C6D"/>
<path d="M41.26 428.83L41.99 429.25C42.026 429.267 42.0652 429.276 42.105 429.276C42.1448 429.276 42.184 429.267 42.22 429.25L42.92 428.85C42.99 428.85 43 428.75 42.92 428.71L42.19 428.29C42.1523 428.273 42.1114 428.264 42.07 428.264C42.0286 428.264 41.9877 428.273 41.95 428.29L41.26 428.69C41.21 428.73 41.2 428.79 41.26 428.83Z" fill="#3A2C6D"/>
<path d="M40.22 428.23L40.96 428.65C40.9953 428.669 41.0348 428.679 41.075 428.679C41.1152 428.679 41.1547 428.669 41.19 428.65L41.88 428.25C41.95 428.25 41.96 428.15 41.88 428.12L41.15 427.69C41.114 427.673 41.0748 427.664 41.035 427.664C40.9952 427.664 40.956 427.673 40.92 427.69L40.22 428.1C40.17 428.14 40.16 428.2 40.22 428.23Z" fill="#3A2C6D"/>
<path d="M39.19 427.63L39.92 428.06C39.956 428.077 39.9952 428.086 40.035 428.086C40.0748 428.086 40.114 428.077 40.15 428.06L40.85 427.65C40.92 427.65 40.93 427.55 40.85 427.52L40.12 427.1C40.0829 427.081 40.0418 427.071 40 427.071C39.9582 427.071 39.9171 427.081 39.88 427.1L39.19 427.5C39.14 427.54 39.13 427.6 39.19 427.63Z" fill="#3A2C6D"/>
<path d="M38.16 427L38.89 427.42C38.926 427.437 38.9652 427.446 39.005 427.446C39.0448 427.446 39.084 427.437 39.12 427.42L39.82 427.02C39.89 427.02 39.89 426.92 39.82 426.88L39.09 426.46C39.054 426.443 39.0148 426.434 38.975 426.434C38.9352 426.434 38.896 426.443 38.86 426.46L38.16 426.86C38.1 426.94 38.1 427 38.16 427Z" fill="#3A2C6D"/>
<path d="M37.12 426.44L37.85 426.86C37.8853 426.879 37.9248 426.889 37.965 426.889C38.0052 426.889 38.0447 426.879 38.08 426.86L38.78 426.46C38.85 426.46 38.86 426.36 38.78 426.33L38.05 425.9C38.014 425.883 37.9748 425.874 37.935 425.874C37.8952 425.874 37.856 425.883 37.82 425.9L37.12 426.31C37.07 426.35 37.06 426.41 37.12 426.44Z" fill="#3A2C6D"/>
<path d="M36.09 425.84L36.82 426.26C36.8553 426.279 36.8948 426.289 36.935 426.289C36.9752 426.289 37.0147 426.279 37.05 426.26L37.75 425.86C37.82 425.86 37.82 425.76 37.75 425.73L37 425.3C36.9647 425.281 36.9252 425.271 36.885 425.271C36.8448 425.271 36.8053 425.281 36.77 425.3L36.07 425.7C36 425.75 36 425.81 36.09 425.84Z" fill="#3A2C6D"/>
<path d="M35.05 425.25L35.78 425.67C35.8177 425.687 35.8586 425.696 35.9 425.696C35.9414 425.696 35.9823 425.687 36.02 425.67L36.71 425.27C36.78 425.27 36.79 425.17 36.71 425.13L36 424.7C35.9647 424.681 35.9252 424.671 35.885 424.671C35.8448 424.671 35.8053 424.681 35.77 424.7L35.07 425.1C35 425.15 35 425.21 35.05 425.25Z" fill="#3A2C6D"/>
<path d="M34 424.65L34.73 425.07C34.766 425.087 34.8052 425.096 34.845 425.096C34.8848 425.096 34.924 425.087 34.96 425.07L35.66 424.67C35.73 424.67 35.74 424.57 35.66 424.53L35 424.1C34.9623 424.083 34.9214 424.074 34.88 424.074C34.8386 424.074 34.7977 424.083 34.76 424.1L34.07 424.5C34 424.55 34 424.61 34 424.65Z" fill="#3A2C6D"/>
<path d="M33 424.05L33.74 424.47C33.7753 424.489 33.8148 424.499 33.855 424.499C33.8952 424.499 33.9347 424.489 33.97 424.47L34.67 424.07C34.73 424.07 34.74 423.97 34.67 423.94L33.94 423.51C33.904 423.493 33.8648 423.484 33.825 423.484C33.7852 423.484 33.746 423.493 33.71 423.51L33.01 423.92C32.93 424 32.93 424 33 424.05Z" fill="#3A2C6D"/>
<path d="M32 423.45L32.73 423.88C32.766 423.897 32.8052 423.906 32.845 423.906C32.8848 423.906 32.924 423.897 32.96 423.88L33.66 423.47C33.73 423.47 33.74 423.37 33.66 423.34L32.93 422.92C32.8929 422.901 32.8518 422.891 32.81 422.891C32.7682 422.891 32.7271 422.901 32.69 422.92L32 423.32C31.9 423.36 31.89 423.42 32 423.45Z" fill="#3A2C6D"/>
<path d="M30.42 422.57L31.65 423.28C31.686 423.297 31.7252 423.306 31.765 423.306C31.8048 423.306 31.844 423.297 31.88 423.28L32.58 422.88C32.65 422.88 32.65 422.78 32.58 422.74L31.36 422C31.324 421.983 31.2848 421.974 31.245 421.974C31.2052 421.974 31.166 421.983 31.13 422L30.43 422.41C30.4195 422.409 30.409 422.411 30.399 422.414C30.389 422.418 30.3799 422.423 30.372 422.43C30.3641 422.437 30.3576 422.445 30.353 422.455C30.3484 422.464 30.3457 422.474 30.345 422.485C30.3443 422.495 30.3458 422.506 30.3492 422.516C30.3526 422.526 30.3579 422.535 30.3649 422.543C30.3719 422.551 30.3803 422.557 30.3898 422.562C30.3992 422.567 30.4095 422.569 30.42 422.57V422.57Z" fill="#3A2C6D"/>
<path d="M41.82 430.31L42.56 430.73C42.5953 430.749 42.6348 430.759 42.675 430.759C42.7152 430.759 42.7547 430.749 42.79 430.73L43.49 430.33C43.55 430.33 43.56 430.23 43.49 430.2L42.76 429.78C42.7247 429.761 42.6852 429.751 42.645 429.751C42.6048 429.751 42.5653 429.761 42.53 429.78L41.83 430.18C41.77 430.22 41.77 430.28 41.82 430.31Z" fill="#3A2C6D"/>
<path d="M40.79 429.71L41.52 430.14C41.556 430.157 41.5952 430.166 41.635 430.166C41.6748 430.166 41.714 430.157 41.75 430.14L42.45 429.73C42.52 429.73 42.53 429.63 42.45 429.6L41.72 429.18C41.6829 429.161 41.6418 429.151 41.6 429.151C41.5582 429.151 41.5171 429.161 41.48 429.18L40.79 429.58C40.74 429.62 40.73 429.68 40.79 429.71Z" fill="#3A2C6D"/>
<path d="M39.75 429.12L40.48 429.54C40.5177 429.557 40.5586 429.566 40.6 429.566C40.6414 429.566 40.6823 429.557 40.72 429.54L41.41 429.14C41.48 429.14 41.49 429.04 41.41 429L40.68 428.58C40.644 428.563 40.6048 428.554 40.565 428.554C40.5252 428.554 40.486 428.563 40.45 428.58L39.75 428.98C39.7 429 39.69 429.08 39.75 429.12Z" fill="#3A2C6D"/>
<path d="M38.72 428.52L39.45 428.94C39.486 428.957 39.5252 428.966 39.565 428.966C39.6048 428.966 39.644 428.957 39.68 428.94L40.38 428.54C40.45 428.54 40.45 428.44 40.38 428.4L39.65 427.98C39.614 427.963 39.5748 427.954 39.535 427.954C39.4952 427.954 39.456 427.963 39.42 427.98L38.72 428.38C38.66 428.42 38.66 428.48 38.72 428.52Z" fill="#3A2C6D"/>
<path d="M37.69 427.92L38.42 428.35C38.456 428.367 38.4952 428.376 38.535 428.376C38.5748 428.376 38.614 428.367 38.65 428.35L39.35 427.94C39.42 427.94 39.43 427.84 39.35 427.81L38.62 427.39C38.5829 427.371 38.5418 427.361 38.5 427.361C38.4582 427.361 38.4171 427.371 38.38 427.39L37.69 427.79C37.64 427.83 37.63 427.89 37.69 427.92Z" fill="#3A2C6D"/>
<path d="M36.65 427.33L37.38 427.75C37.4177 427.767 37.4586 427.776 37.5 427.776C37.5414 427.776 37.5823 427.767 37.62 427.75L38.31 427.35C38.38 427.35 38.39 427.25 38.31 427.21L37.58 426.79C37.544 426.773 37.5048 426.764 37.465 426.764C37.4252 426.764 37.386 426.773 37.35 426.79L36.65 427.19C36.6 427.23 36.59 427.29 36.65 427.33Z" fill="#3A2C6D"/>
<path d="M35.62 426.73L36.35 427.15C36.386 427.167 36.4252 427.176 36.465 427.176C36.5048 427.176 36.544 427.167 36.58 427.15L37.28 426.75C37.35 426.75 37.35 426.65 37.28 426.61L36.55 426.19C36.514 426.173 36.4748 426.164 36.435 426.164C36.3952 426.164 36.356 426.173 36.32 426.19L35.62 426.59C35.56 426.63 35.56 426.69 35.62 426.73Z" fill="#3A2C6D"/>
<path d="M34.58 426.13L35.31 426.55C35.3453 426.569 35.3848 426.579 35.425 426.579C35.4652 426.579 35.5047 426.569 35.54 426.55L36.24 426.15C36.31 426.15 36.32 426.05 36.24 426.02L35.51 425.59C35.4723 425.573 35.4314 425.564 35.39 425.564C35.3486 425.564 35.3077 425.573 35.27 425.59L34.58 426C34.53 426 34.52 426.1 34.58 426.13Z" fill="#3A2C6D"/>
<path d="M33.54 425.53L34.28 425.95C34.3153 425.969 34.3548 425.979 34.395 425.979C34.4352 425.979 34.4747 425.969 34.51 425.95L35.21 425.55C35.27 425.55 35.28 425.45 35.21 425.42L34.48 425C34.4447 424.981 34.4052 424.971 34.365 424.971C34.3248 424.971 34.2853 424.981 34.25 425L33.55 425.4C33.49 425.44 33.49 425.5 33.54 425.53Z" fill="#3A2C6D"/>
<path d="M32.51 424.93L33.24 425.36C33.276 425.377 33.3152 425.386 33.355 425.386C33.3948 425.386 33.434 425.377 33.47 425.36L34.17 424.95C34.24 424.95 34.25 424.85 34.17 424.82L33.44 424.4C33.4029 424.381 33.3618 424.371 33.32 424.371C33.2782 424.371 33.2371 424.381 33.2 424.4L32.51 424.8C32.46 424.84 32.45 424.9 32.51 424.93Z" fill="#3A2C6D"/>
<path d="M31.47 424.34L32.2 424.76C32.2377 424.777 32.2786 424.786 32.32 424.786C32.3614 424.786 32.4023 424.777 32.44 424.76L33.13 424.36C33.2 424.36 33.21 424.26 33.13 424.22L32.4 423.8C32.364 423.783 32.3248 423.774 32.285 423.774C32.2452 423.774 32.206 423.783 32.17 423.8L31.47 424.2C31.42 424.24 31.41 424.3 31.47 424.34Z" fill="#3A2C6D"/>
<path d="M30.44 423.74L31.17 424.16C31.206 424.177 31.2452 424.186 31.285 424.186C31.3248 424.186 31.364 424.177 31.4 424.16L32.1 423.76C32.17 423.76 32.17 423.66 32.1 423.62L31.37 423.2C31.334 423.183 31.2948 423.174 31.255 423.174C31.2152 423.174 31.176 423.183 31.14 423.2L30.44 423.6C30.38 423.64 30.38 423.7 30.44 423.74Z" fill="#3A2C6D"/>
<path d="M42.86 430.91L44.09 431.62C44.126 431.637 44.1652 431.646 44.205 431.646C44.2448 431.646 44.284 431.637 44.32 431.62L45.02 431.22C45.09 431.22 45.1 431.12 45.02 431.08L43.79 430.37C43.7523 430.353 43.7114 430.344 43.67 430.344C43.6286 430.344 43.5877 430.353 43.55 430.37L42.86 430.78C42.81 430.82 42.8 430.88 42.86 430.91Z" fill="#3A2C6D"/>
<path d="M30.35 422.6L31.08 423.02C31.14 423.02 31.14 423.11 31.08 423.15L30.34 423.57C30.3084 423.589 30.2721 423.6 30.235 423.6C30.1979 423.6 30.1616 423.589 30.13 423.57H30.07C30.0388 423.555 30.0046 423.547 29.97 423.547C29.9354 423.547 29.9012 423.555 29.87 423.57L29.09 424.02C29.0552 424.035 29.0178 424.043 28.98 424.043C28.9422 424.043 28.9048 424.035 28.87 424.02L28.41 423.75C28.35 423.75 28.35 423.66 28.41 423.62L29.14 423.2L29.29 423.12L29.4 423.05L29.51 422.99L30.13 422.63C30.1607 422.606 30.1973 422.59 30.2359 422.585C30.2746 422.58 30.314 422.585 30.35 422.6V422.6Z" fill="#3A2C6D"/>
<path d="M40.35 432.93L41.08 433.35C41.1153 433.369 41.1548 433.379 41.195 433.379C41.2352 433.379 41.2747 433.369 41.31 433.35L42.01 432.95C42.08 432.95 42.08 432.85 42.01 432.82L41.28 432.4C41.2447 432.381 41.2052 432.371 41.165 432.371C41.1248 432.371 41.0853 432.381 41.05 432.4L40.35 432.8C40.3 432.84 40.29 432.9 40.35 432.93Z" fill="#3A2C6D"/>
<path d="M39.32 432.34L40.05 432.76C40.086 432.777 40.1252 432.786 40.165 432.786C40.2048 432.786 40.244 432.777 40.28 432.76L40.98 432.36C41.05 432.36 41.05 432.26 40.98 432.22L40.25 431.8C40.214 431.783 40.1748 431.774 40.135 431.774C40.0952 431.774 40.056 431.783 40.02 431.8L39.32 432.2C39.26 432.24 39.26 432.3 39.32 432.34Z" fill="#3A2C6D"/>
<path d="M38.28 431.74L39.02 432.16C39.0553 432.179 39.0948 432.189 39.135 432.189C39.1752 432.189 39.2147 432.179 39.25 432.16L39.95 431.76C40.01 431.76 40.02 431.66 39.95 431.63L39.22 431.21C39.1847 431.191 39.1452 431.181 39.105 431.181C39.0648 431.181 39.0253 431.191 38.99 431.21L38.29 431.62C38.23 431.65 38.23 431.71 38.28 431.74Z" fill="#3A2C6D"/>
<path d="M29.5 426.67L30.23 427.09C30.2671 427.109 30.3082 427.119 30.35 427.119C30.3918 427.119 30.4329 427.109 30.47 427.09L31.16 426.69C31.23 426.69 31.24 426.59 31.16 426.56L30.43 426.13C30.394 426.113 30.3548 426.104 30.315 426.104C30.2752 426.104 30.236 426.113 30.2 426.13L29.5 426.54C29.45 426.58 29.44 426.64 29.5 426.67Z" fill="#3A2C6D"/>
<path d="M28.47 426.08L29.2 426.5C29.236 426.517 29.2752 426.526 29.315 426.526C29.3548 426.526 29.394 426.517 29.43 426.5L30.13 426.09C30.2 426.09 30.21 426 30.13 425.96L29.4 425.54C29.3629 425.521 29.3218 425.511 29.28 425.511C29.2382 425.511 29.1971 425.521 29.16 425.54L28.47 425.94C28.42 426 28.41 426 28.47 426.08Z" fill="#3A2C6D"/>
<path d="M27.44 425.48L28.17 425.9C28.2053 425.919 28.2448 425.929 28.285 425.929C28.3252 425.929 28.3647 425.919 28.4 425.9L29.1 425.5C29.17 425.5 29.18 425.4 29.1 425.37L28.37 424.94C28.3323 424.923 28.2914 424.914 28.25 424.914C28.2086 424.914 28.1677 424.923 28.13 424.94L27.44 425.35C27.39 425.39 27.38 425.45 27.44 425.48Z" fill="#3A2C6D"/>
<path d="M26.41 424.88L27.14 425.31C27.176 425.327 27.2152 425.336 27.255 425.336C27.2948 425.336 27.334 425.327 27.37 425.31L28.07 424.9C28.14 424.9 28.14 424.8 28.07 424.77L27.33 424.35C27.2947 424.331 27.2552 424.321 27.215 424.321C27.1748 424.321 27.1353 424.331 27.1 424.35L26.4 424.75C26.36 424.79 26.35 424.85 26.41 424.88Z" fill="#3A2C6D"/>
<path d="M37 431L38 431.58C38.0377 431.597 38.0786 431.606 38.12 431.606C38.1614 431.606 38.2023 431.597 38.24 431.58L38.93 431.18C39 431.18 39.01 431.08 38.93 431.04L37.93 430.47C37.8947 430.451 37.8552 430.441 37.815 430.441C37.7748 430.441 37.7353 430.451 37.7 430.47L37 430.87C36.94 430.9 36.93 431 37 431Z" fill="#3A2C6D"/>
<path d="M30.53 427.27L31.53 427.84C31.5653 427.859 31.6048 427.869 31.645 427.869C31.6852 427.869 31.7247 427.859 31.76 427.84L32.46 427.44C32.53 427.44 32.54 427.34 32.46 427.3L31.46 426.73C31.424 426.713 31.3848 426.704 31.345 426.704C31.3052 426.704 31.266 426.713 31.23 426.73L30.53 427.13C30.48 427.17 30.47 427.23 30.53 427.27Z" fill="#3A2C6D"/>
<path d="M31.83 428L36.69 430.81C36.726 430.827 36.7652 430.836 36.805 430.836C36.8448 430.836 36.884 430.827 36.92 430.81L37.62 430.41C37.69 430.41 37.69 430.31 37.62 430.27L32.77 427.47C32.7329 427.451 32.6918 427.441 32.65 427.441C32.6082 427.441 32.5671 427.451 32.53 427.47L31.84 427.87C31.78 427.92 31.77 428 31.83 428Z" fill="#3A2C6D"/>
<path d="M40.54 430.73L41.27 431.15C41.3053 431.169 41.3448 431.179 41.385 431.179C41.4252 431.179 41.4647 431.169 41.5 431.15L42.2 430.75C42.27 430.75 42.28 430.65 42.2 430.61L41.47 430.19C41.4323 430.173 41.3914 430.164 41.35 430.164C41.3086 430.164 41.2677 430.173 41.23 430.19L40.54 430.59C40.49 430.63 40.48 430.69 40.54 430.73Z" fill="#3A2C6D"/>
<path d="M39.51 430.13L40.24 430.55C40.2753 430.569 40.3148 430.579 40.355 430.579C40.3952 430.579 40.4347 430.569 40.47 430.55L41.17 430.15C41.24 430.15 41.24 430.05 41.17 430.02L40.44 429.6C40.4047 429.581 40.3652 429.571 40.325 429.571C40.2848 429.571 40.2453 429.581 40.21 429.6L39.51 430C39.46 430 39.45 430.1 39.51 430.13Z" fill="#3A2C6D"/>
<path d="M38.47 429.54L39.21 429.96C39.246 429.977 39.2852 429.986 39.325 429.986C39.3648 429.986 39.404 429.977 39.44 429.96L40.14 429.56C40.2 429.56 40.21 429.46 40.14 429.42L39.41 429C39.374 428.983 39.3348 428.974 39.295 428.974C39.2552 428.974 39.216 428.983 39.18 429L38.48 429.4C38.42 429.44 38.42 429.5 38.47 429.54Z" fill="#3A2C6D"/>
<path d="M37.44 428.94L38.17 429.36C38.2053 429.379 38.2448 429.389 38.285 429.389C38.3252 429.389 38.3647 429.379 38.4 429.36L39.1 428.96C39.17 428.96 39.18 428.86 39.1 428.82L38.37 428.4C38.334 428.383 38.2948 428.374 38.255 428.374C38.2152 428.374 38.176 428.383 38.14 428.4L37.44 428.81C37.39 428.85 37.38 428.91 37.44 428.94Z" fill="#3A2C6D"/>
<path d="M36.41 428.34L37.14 428.76C37.1753 428.779 37.2148 428.789 37.255 428.789C37.2952 428.789 37.3347 428.779 37.37 428.76L38.07 428.35C38.14 428.35 38.15 428.25 38.07 428.22L37.34 427.8C37.3029 427.781 37.2618 427.771 37.22 427.771C37.1782 427.771 37.1371 427.781 37.1 427.8L36.41 428.2C36.36 428.25 36.35 428.31 36.41 428.34Z" fill="#3A2C6D"/>
<path d="M35.38 427.75L36.11 428.17C36.146 428.187 36.1852 428.196 36.225 428.196C36.2648 428.196 36.304 428.187 36.34 428.17L37.04 427.77C37.1 427.77 37.11 427.67 37.04 427.63L36.31 427.21C36.274 427.193 36.2348 427.184 36.195 427.184C36.1552 427.184 36.116 427.193 36.08 427.21L35.38 427.61C35.32 427.65 35.32 427.71 35.38 427.75Z" fill="#3A2C6D"/>
<path d="M34.34 427.15L35.07 427.57C35.1071 427.589 35.1482 427.599 35.19 427.599C35.2318 427.599 35.2729 427.589 35.31 427.57L36 427.17C36.07 427.17 36.08 427.07 36 427.04L35.27 426.61C35.234 426.593 35.1948 426.584 35.155 426.584C35.1152 426.584 35.076 426.593 35.04 426.61L34.34 427.02C34.29 427.06 34.28 427.12 34.34 427.15Z" fill="#3A2C6D"/>
<path d="M33.31 426.55L34 427C34.036 427.017 34.0752 427.026 34.115 427.026C34.1548 427.026 34.194 427.017 34.23 427L34.93 426.59C35 426.59 35.01 426.49 34.93 426.46L34.2 426.04C34.1629 426.021 34.1218 426.011 34.08 426.011C34.0382 426.011 33.9971 426.021 33.96 426.04L33.27 426.44C33.26 426.46 33.25 426.52 33.31 426.55Z" fill="#3A2C6D"/>
<path d="M32.28 426L33.01 426.42C33.046 426.437 33.0852 426.446 33.125 426.446C33.1648 426.446 33.204 426.437 33.24 426.42L33.94 426.02C34.01 426.02 34.01 425.92 33.94 425.88L33.21 425.46C33.174 425.443 33.1348 425.434 33.095 425.434C33.0552 425.434 33.016 425.443 32.98 425.46L32.28 425.86C32.22 425.86 32.22 425.92 32.28 426Z" fill="#3A2C6D"/>
<path d="M31.24 425.36L31.97 425.78C32.0071 425.799 32.0482 425.809 32.09 425.809C32.1318 425.809 32.1729 425.799 32.21 425.78L32.9 425.38C32.97 425.38 32.98 425.28 32.9 425.25L32.17 424.82C32.134 424.803 32.0948 424.794 32.055 424.794C32.0152 424.794 31.976 424.803 31.94 424.82L31.24 425.23C31.19 425.27 31.18 425.33 31.24 425.36Z" fill="#3A2C6D"/>
<path d="M30.21 424.76L30.94 425.19C30.976 425.207 31.0152 425.216 31.055 425.216C31.0948 425.216 31.134 425.207 31.17 425.19L31.87 424.78C31.94 424.78 31.95 424.68 31.87 424.65L31.14 424.23C31.1029 424.211 31.0618 424.201 31.02 424.201C30.9782 424.201 30.9371 424.211 30.9 424.23L30.21 424.63C30.16 424.67 30.15 424.73 30.21 424.76Z" fill="#3A2C6D"/>
<path d="M29.18 424.17L29.91 424.59C29.946 424.607 29.9852 424.616 30.025 424.616C30.0648 424.616 30.104 424.607 30.14 424.59L30.84 424.19C30.91 424.19 30.91 424.09 30.84 424.05L30.11 423.63C30.074 423.613 30.0348 423.604 29.995 423.604C29.9552 423.604 29.916 423.613 29.88 423.63L29.18 424.03C29.12 424.07 29.12 424.13 29.18 424.17Z" fill="#3A2C6D"/>
<path d="M41.57 431.33L43.09 432.2C43.126 432.217 43.1652 432.226 43.205 432.226C43.2448 432.226 43.284 432.217 43.32 432.2L44.01 431.8C44.08 431.8 44.09 431.7 44.01 431.66L42.5 430.79C42.4647 430.771 42.4252 430.761 42.385 430.761C42.3448 430.761 42.3053 430.771 42.27 430.79L41.57 431.19C41.52 431.23 41.51 431.29 41.57 431.33Z" fill="#3A2C6D"/>
<path d="M40.05 431.6L40.78 432.03C40.816 432.047 40.8552 432.056 40.895 432.056C40.9348 432.056 40.974 432.047 41.01 432.03L41.71 431.62C41.78 431.62 41.79 431.52 41.71 431.49L40.98 431.07C40.9447 431.051 40.9052 431.041 40.865 431.041C40.8248 431.041 40.7853 431.051 40.75 431.07L40.05 431.47C40 431.51 40 431.57 40.05 431.6Z" fill="#3A2C6D"/>
<path d="M39 431L39.73 431.42C39.766 431.437 39.8052 431.446 39.845 431.446C39.8848 431.446 39.924 431.437 39.96 431.42L40.66 431.02C40.73 431.02 40.74 430.92 40.66 430.88L39.92 430.46C39.884 430.443 39.8448 430.434 39.805 430.434C39.7652 430.434 39.726 430.443 39.69 430.46L39 430.86C39 430.91 39 431 39 431Z" fill="#3A2C6D"/>
<path d="M38 430.41L38.73 430.83C38.7653 430.849 38.8048 430.859 38.845 430.859C38.8852 430.859 38.9247 430.849 38.96 430.83L39.66 430.43C39.72 430.43 39.73 430.33 39.66 430.3L38.93 429.87C38.894 429.853 38.8548 429.844 38.815 429.844C38.7752 429.844 38.736 429.853 38.7 429.87L38 430.28C37.93 430.32 37.93 430.38 38 430.41Z" fill="#3A2C6D"/>
<path d="M37 429.81L37.73 430.24C37.7677 430.257 37.8086 430.266 37.85 430.266C37.8914 430.266 37.9323 430.257 37.97 430.24L38.66 429.83C38.73 429.83 38.74 429.73 38.66 429.7L37.93 429.28C37.8947 429.261 37.8552 429.251 37.815 429.251C37.7748 429.251 37.7353 429.261 37.7 429.28L37 429.68C36.9 429.72 36.89 429.78 37 429.81Z" fill="#3A2C6D"/>
<path d="M35.92 429.22L36.65 429.64C36.686 429.657 36.7252 429.666 36.765 429.666C36.8048 429.666 36.844 429.657 36.88 429.64L37.58 429.24C37.65 429.24 37.66 429.14 37.58 429.1L36.85 428.68C36.8123 428.663 36.7714 428.654 36.73 428.654C36.6886 428.654 36.6477 428.663 36.61 428.68L35.92 429.08C35.87 429.12 35.86 429.18 35.92 429.22Z" fill="#3A2C6D"/>
<path d="M34.89 428.62L35.62 429.04C35.6553 429.059 35.6948 429.069 35.735 429.069C35.7752 429.069 35.8147 429.059 35.85 429.04L36.55 428.64C36.62 428.64 36.62 428.54 36.55 428.51L35.82 428.09C35.7847 428.071 35.7452 428.061 35.705 428.061C35.6648 428.061 35.6253 428.071 35.59 428.09L34.89 428.49C34.83 428.53 34.83 428.59 34.89 428.62Z" fill="#3A2C6D"/>
<path d="M33.85 428L34.58 428.42C34.6177 428.437 34.6586 428.446 34.7 428.446C34.7414 428.446 34.7823 428.437 34.82 428.42L35.51 428.02C35.58 428.02 35.59 427.92 35.51 427.88L34.78 427.46C34.7447 427.441 34.7052 427.431 34.665 427.431C34.6248 427.431 34.5853 427.441 34.55 427.46L33.85 427.86C33.8 427.93 33.79 428 33.85 428Z" fill="#3A2C6D"/>
<path d="M32.82 427.43L33.55 427.85C33.5853 427.869 33.6248 427.879 33.665 427.879C33.7052 427.879 33.7447 427.869 33.78 427.85L34.48 427.45C34.55 427.45 34.56 427.35 34.48 427.31L33.75 426.89C33.7123 426.873 33.6714 426.864 33.63 426.864C33.5886 426.864 33.5477 426.873 33.51 426.89L32.82 427.3C32.77 427.33 32.76 427.39 32.82 427.43Z" fill="#3A2C6D"/>
<path d="M31.79 426.83L32.52 427.25C32.5558 427.268 32.5951 427.277 32.635 427.277C32.6749 427.277 32.7142 427.268 32.75 427.25L33.45 426.84C33.52 426.84 33.52 426.74 33.45 426.71L32.71 426.29C32.6747 426.271 32.6352 426.261 32.595 426.261C32.5548 426.261 32.5153 426.271 32.48 426.29L31.78 426.69C31.74 426.74 31.73 426.8 31.79 426.83Z" fill="#3A2C6D"/>
<path d="M30.76 426.24L31.49 426.66C31.526 426.677 31.5652 426.686 31.605 426.686C31.6448 426.686 31.684 426.677 31.72 426.66L32.42 426.26C32.48 426.26 32.49 426.16 32.42 426.12L31.69 425.7C31.654 425.683 31.6148 425.674 31.575 425.674C31.5352 425.674 31.496 425.683 31.46 425.7L30.76 426.1C30.7 426.14 30.7 426.2 30.76 426.24Z" fill="#3A2C6D"/>
<path d="M29.72 425.64L30.45 426.06C30.4871 426.079 30.5282 426.089 30.57 426.089C30.6118 426.089 30.6529 426.079 30.69 426.06L31.38 425.66C31.45 425.66 31.46 425.56 31.38 425.53L30.65 425.1C30.614 425.083 30.5748 425.074 30.535 425.074C30.4952 425.074 30.456 425.083 30.42 425.1L29.72 425.51C29.67 425.55 29.66 425.61 29.72 425.64Z" fill="#3A2C6D"/>
<path d="M27.41 424.31L29.41 425.47C29.446 425.487 29.4852 425.496 29.525 425.496C29.5648 425.496 29.604 425.487 29.64 425.47L30.34 425.06C30.41 425.06 30.42 424.96 30.34 424.93L28.34 423.77C28.3029 423.751 28.2618 423.741 28.22 423.741C28.1782 423.741 28.1371 423.751 28.1 423.77L27.41 424.17C27.36 424.21 27.35 424.27 27.41 424.31Z" fill="#3A2C6D"/>
<path d="M41.08 432.2L42.08 432.78C42.116 432.797 42.1552 432.806 42.195 432.806C42.2348 432.806 42.274 432.797 42.31 432.78L43.01 432.37C43.08 432.37 43.09 432.27 43.01 432.24L42.01 431.66C41.974 431.643 41.9348 431.634 41.895 431.634C41.8552 431.634 41.816 431.643 41.78 431.66L41.08 432.07C41 432.11 41 432.17 41.08 432.2Z" fill="#3A2C6D"/>
<path d="M48.66 430.15L32.08 420.57V407.57L32.21 407.27L32.34 407.21C32.5141 407.107 32.7127 407.053 32.915 407.053C33.1173 407.053 33.3159 407.107 33.49 407.21L48.66 415.96C48.8331 416.063 48.9766 416.21 49.0765 416.385C49.1763 416.56 49.2292 416.758 49.23 416.96V429.2C49.12 429.79 49 429.94 48.66 430.15Z" fill="#E5E5E5"/>
<path d="M47.14 417.51L32.08 408V407.57L32.21 407.27L32.34 407.21C32.5141 407.107 32.7127 407.053 32.915 407.053C33.1173 407.053 33.3159 407.107 33.49 407.21L48.66 415.96C48.8466 416.066 48.9966 416.227 49.09 416.42L47.14 417.51Z" fill="#E5E5E5"/>
<path d="M32.46 407.24L48.38 416.43C48.4637 416.479 48.5334 416.55 48.5825 416.634C48.6315 416.718 48.6582 416.813 48.66 416.91V430.15L32.08 420.57V407.46C32.0788 407.415 32.0898 407.371 32.1117 407.331C32.1337 407.292 32.1658 407.26 32.2047 407.237C32.2435 407.215 32.2878 407.203 32.3327 407.203C32.3777 407.204 32.4216 407.217 32.46 407.24V407.24Z" fill="#DCEEFF"/>
<path d="M32.46 407.24L48.38 416.43C48.4637 416.479 48.5334 416.55 48.5825 416.634C48.6315 416.718 48.6582 416.813 48.66 416.91V430.15L32.08 420.57V407.46C32.0788 407.415 32.0898 407.371 32.1117 407.331C32.1337 407.292 32.1658 407.26 32.2047 407.237C32.2435 407.215 32.2878 407.203 32.3327 407.203C32.3777 407.204 32.4216 407.217 32.46 407.24V407.24Z" fill="#F4F4F4"/>
<path d="M48.66 430.15V429.67L32.08 420.1V420.57L48.66 430.15Z" fill="#DBDBDB"/>
<path d="M32.51 419.88V407.93L32.71 408.04V419.78L32.51 419.88Z" fill="#1E3779"/>
<path d="M32.71 408.04V419.78L48.13 428.65V416.94L32.71 408.04Z" fill="#3A2C6D"/>
<path d="M32.51 419.88L48.13 428.89V428.65L32.71 419.78L32.51 419.88Z" fill="#031F60"/>
<path d="M14.66 405.17C14.26 406.17 15.27 407.35 17.94 408.17C20.61 408.99 20.85 407.93 20.85 407.93C22.6308 408.728 24.3668 409.623 26.05 410.61C27.65 411.73 28.36 414.98 28.58 420.46C28.83 426.8 28.85 436.2 28.64 437.83C28.64 437.83 25.64 440.83 21.81 440.5C17.98 440.17 11.51 436.79 9.95 434.17C9.95 428.61 10.64 427.7 9.74 424.5C7.68 417.17 6.59 414.17 7.6 409.29C8.42 405.29 9.6 404.78 11.17 404.82C12.3387 404.875 13.5036 404.992 14.66 405.17V405.17Z" fill="#F4F4F4"/>
<path d="M34.89 427.27C31.74 428.07 31 426.08 30.59 424.44C29.59 420.44 29.05 416.86 28.3 414.6C27.42 411.94 26.5 411.51 25.2 410.99C23.69 410.38 22.38 411.67 22.88 415.06C23.5036 418.997 24.4707 422.872 25.77 426.64C26.23 428.336 27.1184 429.886 28.35 431.14C29.98 432.46 32.43 432.4 36.13 431.48C38.3 430.741 40.4069 429.828 42.43 428.75C43.23 428.38 43.85 428.13 45.43 427.41C46.9952 426.726 48.3687 425.668 49.43 424.33C50.23 423.16 50.34 422.61 50.18 422.33C50.02 422.05 49.6 422.07 49.18 422.56C48.5593 423.388 47.7936 424.096 46.92 424.65C46.92 424.65 47.92 423.65 48.45 422.96C48.9357 422.35 49.336 421.678 49.64 420.96C49.93 420.28 49.34 419.36 48.89 419.84C48.44 420.32 48.24 420.84 47.42 421.84C46.9918 422.361 46.5015 422.828 45.96 423.23C46.4674 422.548 46.9189 421.825 47.31 421.07C47.6608 420.464 47.8309 419.77 47.8 419.07C47.8 418.72 47.27 418.3 46.8 418.97C46.313 419.925 45.7083 420.815 45 421.62C44.28 422.37 43.67 422.8 43.65 422.62C43.63 422.44 44.09 422 44.34 421.14C44.59 420.28 44.34 419.35 43.86 419.25C43.38 419.15 43.47 419.17 43.09 419.99C42.5562 420.824 42.0785 421.693 41.66 422.59C41.4133 423.427 40.9672 424.193 40.36 424.82C39.6 425.61 37.89 426.52 34.89 427.27Z" fill="#FFCEA9"/>
<path d="M24 410.45C26.1 410.14 27.59 411.09 28.52 414.27C29.45 417.45 30.09 420.07 30.09 420.07C29.2599 421.272 27.9999 422.11 26.57 422.41C24.06 423.02 23.15 421.82 23.15 421.82C23.15 421.82 22.45 418.48 22.02 416.21C21.59 413.94 21.44 410.83 24 410.45Z" fill="#EDEDED"/>
<path d="M25.08 394.14C25.08 394.14 28.4 389.09 21.2 388.06C16.01 387.32 12.67 390.65 12.29 394.27C11.92 397.73 14.05 401.32 15.58 402.75C17.0917 403.135 18.6926 402.942 20.07 402.21C20.1558 401.266 20.1892 400.318 20.17 399.37C20.17 399.37 17.64 394.05 25.08 394.14Z" fill="#3A2C6D"/>
<path d="M39.49 458.05V442.88L27.44 449.91L32.08 459.5L39.49 458.05Z" fill="#C4C7D6"/>
<path d="M31.59 443.75L36.21 441.07L39.48 442.96L34.69 445.68L31.59 443.75Z" fill="#D6D8E5"/>
<path opacity="0.4" d="M222.1 375L165.18 342.14C161.07 339.77 161.59 335.63 166.33 332.89L203.21 311.6L275 353.08L238.13 374.37C233.38 377.11 226.21 377.4 222.1 375Z" fill="#D6D8E5"/>
<path d="M226.26 372.59L169.33 339.72C165.23 337.35 165.75 333.22 170.48 330.48L207.36 309.19L279.15 350.63L242.27 371.93C237.53 374.66 230.36 375 226.26 372.59Z" fill="#B1B4C4"/>
<path d="M279.15 350.63V348.46L275.84 350.37L279.15 350.63Z" fill="#B1B4C4"/>
<path d="M166.56 335.81V333.6L169.97 335.01L166.56 335.81Z" fill="#B1B4C4"/>
<path d="M226.26 370.42L169.33 337.55C165.23 335.18 165.75 331.04 170.48 328.31L207.36 307L279.15 348.45L242.27 369.74C237.53 372.49 230.36 372.78 226.26 370.42Z" fill="#D6D8E5"/>
<path d="M207.56 307.11L198.67 277.63L271.24 319.26L279.15 348.46L207.56 307.11Z" fill="#9EA1AF"/>
<path d="M277.05 349.67L279.15 348.46L276 346L277.05 349.67Z" fill="#9EA1AF"/>
<path d="M205.27 308.22L196.38 278.74L268.95 320.37L277.05 349.67L205.27 308.22Z" fill="#B1B4C4"/>
<path d="M389.49 399.35L108.58 237.17C104.64 234.89 101.45 228.79 101.45 223.54V6.25001C101.45 1.00001 104.64 -1.41999 108.58 0.860006L389.49 163C393.43 165.27 396.62 171.37 396.62 176.63V394C396.62 399.21 393.43 401.63 389.49 399.35Z" fill="#C4C7D6"/>
<path d="M390.93 401.59L394.05 399.8L392.7 390.57L390.93 401.59Z" fill="#C4C7D6"/>
<path d="M100.94 2.18999L104 0.429993L108.4 2.93999C108.4 2.93999 103.71 3.64999 103.6 3.61999C103.49 3.58999 100.94 2.18999 100.94 2.18999Z" fill="#B1B4C4"/>
<path d="M386.91 400.84L106 238.66C102.06 236.38 98.86 230.28 98.86 225.03V7.74003C98.86 2.48003 102.06 0.0700278 106 2.34003L386.9 164.52C390.84 166.8 394.04 172.9 394.04 178.16V395.44C394.05 400.7 390.85 403.11 386.91 400.84Z" fill="#E4E7F2"/>
<path d="M386.42 401.12L105.51 238.94C101.57 236.66 98.38 230.56 98.38 225.31V8.00001C98.38 2.75001 101.57 0.330006 105.51 2.61001L386.42 164.81C390.36 167.08 393.55 173.18 393.55 178.44V395.73C393.55 401 390.36 403.4 386.42 401.12Z" fill="#201D38"/>
<path opacity="0.3" d="M389.69 387.91L101.94 221.78L102.09 8.88999C102.09 6.70999 103.62 5.82999 105.51 6.88999L386.42 169.1C387.416 169.748 388.244 170.622 388.839 171.651C389.433 172.679 389.776 173.834 389.84 175.02L389.69 387.91Z" fill="url(#paint0_linear_1_563)"/>
<path d="M276.62 142.08L257.55 131.07V124.19L276.62 135.2V142.08Z" fill="#DD5472"/>
<path d="M320.7 167.55L280.19 144.14V137.26L320.7 160.67V167.55Z" fill="#F4CE2C"/>
<path d="M276.62 164.09L257.55 153.09V146.21L276.62 157.21V164.09Z" fill="#DD5472"/>
<path d="M293.61 174.07L280.19 166.16V159.28L293.61 167.19V174.07Z" fill="#4D3BFF"/>
<path d="M276.62 175.1L257.55 164.09V157.21L276.62 168.22V175.1Z" fill="#DD5472"/>
<path d="M302.83 190.23L280.19 177.16V170.28L302.83 183.35V190.23Z" fill="#4D3BFF"/>
<path d="M276.62 186.1L257.55 175.1V168.22L276.62 179.23V186.1Z" fill="#DD5472"/>
<path d="M339.9 222.56L280.19 188.17V181.29L339.9 215.69V222.56Z" fill="#FF8657"/>
<path d="M276.62 153.09L257.55 142.08V135.2L276.62 146.21V153.09Z" fill="#DD5472"/>
<path d="M354.57 198.14L280.19 155.15V148.27L354.57 191.26V198.14Z" fill="#DD5472"/>
<path d="M276.62 197.11L257.55 186.1V179.22L276.62 190.23V197.11Z" fill="#DD5472"/>
<path d="M344.53 237.01L280.19 199.18V192.3L344.53 230.13V237.01Z" fill="#C33AFC"/>
<path d="M276.62 219.13L257.55 208.12V201.24L276.62 212.25V219.13Z" fill="#DD5472"/>
<path d="M355.26 264.53L280.19 221.19V214.31L355.26 257.65V264.53Z" fill="#DD5472"/>
<path d="M276.62 230.13L257.55 219.13V212.25L276.62 223.25V230.13Z" fill="#DD5472"/>
<path d="M302.83 245.27L280.19 232.19V225.32L302.83 238.39V245.27Z" fill="#C33AFC"/>
<path d="M276.62 241.14L257.55 230.13V223.25L276.62 234.26V241.14Z" fill="#DD5472"/>
<path d="M326.45 270.03L280.19 243.2V236.32L326.45 263.15V270.03Z" fill="#4D3BFF"/>
<path d="M276.62 208.12L257.55 197.11V190.23L276.62 201.24V208.12Z" fill="#DD5472"/>
<path d="M288.53 215L280.19 210.18V203.3L288.53 208.12V215Z" fill="#4D3BFF"/>
<path d="M276.62 252.15L257.55 241.14V234.26L276.62 245.27V252.15Z" fill="#DD5472"/>
<path d="M310.05 271.41L280.19 254.21V247.33L310.05 264.53V271.41Z" fill="#C33AFC"/>
<path d="M276.62 274.16L257.55 263.15V256.27L276.62 267.28V274.16Z" fill="#DD5472"/>
<path d="M323.76 301.06L280.19 276.22V269.34L323.76 294.18V301.06Z" fill="#FF8657"/>
<path d="M276.62 285.17L257.55 274.16V267.28L276.62 278.29V285.17Z" fill="#DD5472"/>
<path d="M285.63 290.67L280.19 287.23V280.35L285.63 283.79V290.67Z" fill="#DD5472"/>
<path d="M276.62 296.17L257.55 285.17V278.29L276.62 289.29V296.17Z" fill="#DD5472"/>
<path d="M305.18 312.63L280.19 298.24V291.36L305.18 305.75V312.63Z" fill="#F4CE2C"/>
<path d="M276.62 263.15L257.55 252.15V245.26L276.62 256.27V263.15Z" fill="#DD5472"/>
<path d="M314.96 285.17L280.19 265.21V258.34L314.96 278.29V285.17Z" fill="#4D3BFF"/>
<path d="M153.28 73.29L134.21 62.28V55.4L153.28 66.41V73.29Z" fill="#DD5472"/>
<path d="M237.88 122.13L156.85 75.35V68.47L237.88 115.25V122.13Z" fill="#C33AFC"/>
<path d="M153.28 95.3L134.21 84.29V77.41L153.28 88.42V95.3Z" fill="#DD5472"/>
<path d="M210.47 128.32L156.85 97.36V90.48L210.47 121.44V128.32Z" fill="#F4CE2C"/>
<path d="M153.28 106.31L134.21 95.3V88.42L153.28 99.43V106.31Z" fill="#DD5472"/>
<path d="M223.58 146.89L156.85 108.37V101.49L223.58 140.01V146.89Z" fill="#FF8657"/>
<path d="M153.28 117.31L134.21 106.31V99.43L153.28 110.43V117.31Z" fill="#DD5472"/>
<path d="M203.32 146.21L156.85 119.38V112.5L203.32 139.33V146.21Z" fill="#DD5472"/>
<path d="M153.28 84.29L134.21 73.28V66.41L153.28 77.41V84.29Z" fill="#DD5472"/>
<path d="M197.36 109.75L156.85 86.36V79.48L197.36 102.87V109.75Z" fill="#4D3BFF"/>
<path d="M153.28 128.32L134.21 117.31V110.43L153.28 121.44V128.32Z" fill="#DD5472"/>
<path d="M180.68 144.14L156.85 130.38V123.5L180.68 137.26V144.14Z" fill="#C33AFC"/>
<path d="M153.28 150.33L134.21 139.32V132.45L153.28 143.45V150.33Z" fill="#DD5472"/>
<path d="M231.92 195.74L156.85 152.4V145.52L231.92 188.86V195.74Z" fill="#F4CE2C"/>
<path d="M153.28 161.34L134.21 150.33V143.45L153.28 154.46V161.34Z" fill="#DD5472"/>
<path d="M179.49 176.47L156.85 163.4V156.52L179.49 169.59V176.47Z" fill="#FF8657"/>
<path d="M153.28 172.35L134.21 161.34V154.46L153.28 165.47V172.35Z" fill="#DD5472"/>
<path d="M223.58 212.93L156.85 174.41V167.53L223.58 206.06V212.93Z" fill="#DD5472"/>
<path d="M153.28 139.33L134.21 128.32V121.44L153.28 132.45V139.33Z" fill="#DD5472"/>
<path d="M220 177.85L156.85 141.39V134.51L220 170.97V177.85Z" fill="#4D3BFF"/>
<path d="M153.28 183.35L134.21 172.34V165.47L153.28 176.47V183.35Z" fill="#DD5472"/>
<path d="M165.19 190.23L156.85 185.42V178.54L165.19 183.35V190.23Z" fill="#C33AFC"/>
<path d="M153.28 205.37L134.21 194.36V187.48L153.28 198.49V205.37Z" fill="#DD5472"/>
<path d="M172.34 216.37L156.85 207.43V200.55L172.34 209.49V216.37Z" fill="#F4CE2C"/>
<path d="M153.28 216.37L134.21 205.37V198.49L153.28 209.49V216.37Z" fill="#DD5472"/>
<path d="M197.36 241.83L156.85 218.44V211.56L197.36 234.95V241.83Z" fill="#FF8657"/>
<path d="M153.28 227.38L134.21 216.37V209.49L153.28 220.5V227.38Z" fill="#DD5472"/>
<path d="M221.19 266.59L156.85 229.44V222.56L221.19 259.71V266.59Z" fill="#DD5472"/>
<path d="M153.28 194.36L134.21 183.35V176.47L153.28 187.48V194.36Z" fill="#DD5472"/>
<path d="M237.88 243.2L156.85 196.42V189.54L237.88 236.32V243.2Z" fill="#4D3BFF"/>
<path opacity="0.4" d="M299.75 500C322.858 500 341.59 489.183 341.59 475.84C341.59 462.497 322.858 451.68 299.75 451.68C276.642 451.68 257.91 462.497 257.91 475.84C257.91 489.183 276.642 500 299.75 500Z" fill="#D6D8E5"/>
<path d="M345.7 472.41V408L262.19 410.1L262.37 469.5C260.81 476.65 264.77 484.12 274.28 489.61C290.62 499.04 317.11 499.05 333.45 489.61C341.66 484.84 345.74 478.62 345.7 472.41Z" fill="#A6CE28"/>
<path d="M303.86 432.13C326.968 432.13 345.7 421.313 345.7 407.97C345.7 394.627 326.968 383.81 303.86 383.81C280.752 383.81 262.02 394.627 262.02 407.97C262.02 421.313 280.752 432.13 303.86 432.13Z" fill="#BCD64D"/>
<path d="M339.09 408C339.09 411.93 335.82 416.06 330.14 419.35C323.94 422.91 315.47 425.11 306.55 425.47C305.66 425.47 304.77 425.53 303.87 425.53C293.97 425.53 284.4 423.27 277.59 419.35C271.91 416.06 268.64 411.93 268.64 408C268.64 404.07 271.91 399.94 277.59 396.65C284.4 392.72 293.97 390.46 303.86 390.46C304.76 390.46 305.66 390.46 306.55 390.52C315.47 390.88 323.94 393.08 330.14 396.65C335.82 399.91 339.09 404 339.09 408Z" fill="#28221C"/>
<path opacity="0.07" d="M339.09 408C339.09 411.93 335.82 416.06 330.14 419.35C323.94 422.91 315.47 425.11 306.55 425.47C297.63 425.11 289.15 422.91 282.96 419.35C277.27 416 274 411.9 274 408C274 404.1 277.26 399.94 282.94 396.65C289.14 393.08 297.62 390.88 306.54 390.52C315.46 390.88 323.93 393.08 330.13 396.65C335.82 399.91 339.09 404 339.09 408Z" fill="white"/>
<path d="M339.58 437.81L330.7 432.67L326.38 435.17L330.7 437.67V439.31L339.03 444.11L338.78 445.65C339.99 446.65 344.3 454.65 344.3 454.65L344.6 454.37V475.1C344.6 480.54 341.41 478.7 340.05 477.91L330.7 472.51L326.38 475L330.7 477.49V479.13L340.05 484.53C340.995 485.097 342.001 485.553 343.05 485.89L342.49 488.49L347.33 485.76H347.4H347.47C349.47 484.58 350.32 481.71 350.32 478.49V456.74C350.36 447.55 343.31 440.34 339.58 437.81Z" fill="#8DA01F"/>
<path d="M335.73 487.06L326.38 481.66V475L335.73 480.4C337.09 481.18 340.28 483.03 340.28 477.58V455.93C340.28 450.81 335.65 447.27 334.86 446.71L326.38 441.81V435.17L335.26 440.31C339 442.84 346 450.06 346 459.25V480.92C346 486.77 343.33 491.44 335.73 487.06Z" fill="#99B524"/>
<path opacity="0.4" d="M41.37 372.01C57.2813 372.01 70.18 364.56 70.18 355.37C70.18 346.18 57.2813 338.73 41.37 338.73C25.4587 338.73 12.56 346.18 12.56 355.37C12.56 364.56 25.4587 372.01 41.37 372.01Z" fill="#D6D8E5"/>
<path d="M45.48 368.93C61.3913 368.93 74.29 361.48 74.29 352.29C74.29 343.1 61.3913 335.65 45.48 335.65C29.5687 335.65 16.67 343.1 16.67 352.29C16.67 361.48 29.5687 368.93 45.48 368.93Z" fill="#D6D8E5"/>
<path d="M6.91 295.41L16.99 353.44H74.22L84.05 295.83L6.91 295.41Z" fill="#D6D8E5"/>
<path d="M45.48 316.98C66.8037 316.98 84.09 307 84.09 294.69C84.09 282.38 66.8037 272.4 45.48 272.4C24.1563 272.4 6.87 282.38 6.87 294.69C6.87 307 24.1563 316.98 45.48 316.98Z" fill="#E4E6EF"/>
<path d="M45.48 312.06C36.02 312.06 27.2 309.98 20.64 306.19C15.01 302.95 11.79 298.75 11.79 294.69C11.79 290.63 15.01 286.43 20.64 283.19C27.19 279.4 36.02 277.32 45.48 277.32C54.94 277.32 63.77 279.4 70.32 283.19C75.95 286.43 79.17 290.63 79.17 294.69C79.17 298.75 76 303 70.32 306.19C63.77 310 55 312.06 45.48 312.06Z" fill="#28221C"/>
<path d="M62.09 277.13C62.6364 269.631 61.4423 262.107 58.601 255.146C55.7596 248.185 51.3478 241.975 45.71 237V237L45.6 236.89V237.1C39.957 242.075 35.5412 248.288 32.6979 255.253C29.8546 262.219 28.6609 269.747 29.21 277.25L7.12 275.12C16.44 310.23 45.71 307.21 45.71 307.21V307.14C47.92 307.31 75.22 308.72 84.15 275.04L62.09 277.13Z" fill="#99B524"/>
<path d="M45.71 307.21C45.71 307.21 43.71 279.87 7.03 261.46C7 261.46 -1.66 306.88 45.71 307.21Z" fill="#A6CE28"/>
<path d="M45.48 307.21C45.48 307.21 47.48 279.87 84.16 261.46C84.16 261.46 92.85 306.88 45.48 307.21Z" fill="#A6CE28"/>
</g>
<defs>
<linearGradient id="paint0_linear_1_563" x1="101.94" y1="197.18" x2="389.84" y2="197.18" gradientUnits="userSpaceOnUse">
<stop offset="0.21" stop-color="white" stop-opacity="0"/>
<stop offset="1" stop-color="white" stop-opacity="0.2"/>
</linearGradient>
<clipPath id="clip0_1_563">
<rect width="396.62" height="500" fill="white"/>
</clipPath>
</defs>
</svg>
