<svg id="visual" viewBox="0 0 500 800" width="500" height="800" xmlns="http://www.w3.org/2000/svg" xmlns:xlink="http://www.w3.org/1999/xlink" version="1.1"><g stroke-width="1" stroke-linejoin="bevel"><path d="M264.2 389.7L316.8 394.3L319.3 388.3Z" fill="#c82c4f" stroke="#c82c4f"></path><path d="M363.9 389.7L348.9 357L319.3 388.3Z" fill="#d33153" stroke="#d33153"></path><path d="M319.3 388.3L314.3 291.7L264.2 389.7Z" fill="#9d1b3f" stroke="#9d1b3f"></path><path d="M316.8 394.3L363.9 389.7L319.3 388.3Z" fill="#a71f43" stroke="#a71f43"></path><path d="M288.8 460L311.3 453L316.8 394.3Z" fill="#d33153" stroke="#d33153"></path><path d="M316.8 394.3L359.3 421.7L363.9 389.7Z" fill="#de3657" stroke="#de3657"></path><path d="M311.3 453L359.3 421.7L316.8 394.3Z" fill="#9d1b3f" stroke="#9d1b3f"></path><path d="M264.2 389.7L288.8 460L316.8 394.3Z" fill="#de3657" stroke="#de3657"></path><path d="M264.2 389.7L259.8 459.7L288.8 460Z" fill="#bd284b" stroke="#bd284b"></path><path d="M314.3 291.7L215.2 335L264.2 389.7Z" fill="#e93a5a" stroke="#e93a5a"></path><path d="M264.2 389.7L184.7 396.3L259.8 459.7Z" fill="#f43f5e" stroke="#f43f5e"></path><path d="M215.2 335L201.2 371.3L264.2 389.7Z" fill="#9d1b3f" stroke="#9d1b3f"></path><path d="M348.9 357L314.3 291.7L319.3 388.3Z" fill="#d33153" stroke="#d33153"></path><path d="M359.3 421.7L382.9 390.3L363.9 389.7Z" fill="#92173b" stroke="#92173b"></path><path d="M363.9 389.7L382.9 390.3L348.9 357Z" fill="#9d1b3f" stroke="#9d1b3f"></path><path d="M348.9 357L318.8 290L314.3 291.7Z" fill="#de3657" stroke="#de3657"></path><path d="M368.3 317L318.8 290L348.9 357Z" fill="#9d1b3f" stroke="#9d1b3f"></path><path d="M257.8 265.7L204.7 332L215.2 335Z" fill="#c82c4f" stroke="#c82c4f"></path><path d="M215.2 335L204.7 332L201.2 371.3Z" fill="#f43f5e" stroke="#f43f5e"></path><path d="M257.8 265.7L215.2 335L314.3 291.7Z" fill="#9d1b3f" stroke="#9d1b3f"></path><path d="M382.9 390.3L368.3 317L348.9 357Z" fill="#c82c4f" stroke="#c82c4f"></path><path d="M107.1 362L184.7 396.3L201.2 371.3Z" fill="#c82c4f" stroke="#c82c4f"></path><path d="M201.2 371.3L184.7 396.3L264.2 389.7Z" fill="#c82c4f" stroke="#c82c4f"></path><path d="M318.8 290L257.8 265.7L314.3 291.7Z" fill="#c82c4f" stroke="#c82c4f"></path><path d="M184.7 396.3L176.7 440.7L259.8 459.7Z" fill="#881337" stroke="#881337"></path><path d="M359.9 504L419.4 419.7L359.3 421.7Z" fill="#9d1b3f" stroke="#9d1b3f"></path><path d="M359.3 421.7L419.4 419.7L382.9 390.3Z" fill="#e93a5a" stroke="#e93a5a"></path><path d="M382.9 390.3L459.4 346.3L368.3 317Z" fill="#b22447" stroke="#b22447"></path><path d="M359.9 504L359.3 421.7L311.3 453Z" fill="#c82c4f" stroke="#c82c4f"></path><path d="M184.7 396.3L169.7 436L176.7 440.7Z" fill="#d33153" stroke="#d33153"></path><path d="M118.1 417.7L169.7 436L184.7 396.3Z" fill="#c82c4f" stroke="#c82c4f"></path><path d="M297.3 548.3L359.9 504L288.8 460Z" fill="#9d1b3f" stroke="#9d1b3f"></path><path d="M288.8 460L359.9 504L311.3 453Z" fill="#b22447" stroke="#b22447"></path><path d="M232.2 510L288.8 460L259.8 459.7Z" fill="#9d1b3f" stroke="#9d1b3f"></path><path d="M195.7 492.3L259.8 459.7L176.7 440.7Z" fill="#de3657" stroke="#de3657"></path><path d="M195.7 492.3L232.2 510L259.8 459.7Z" fill="#bd284b" stroke="#bd284b"></path><path d="M169.7 436L195.7 492.3L176.7 440.7Z" fill="#d33153" stroke="#d33153"></path><path d="M368.3 317L402.9 256.7L318.8 290Z" fill="#bd284b" stroke="#bd284b"></path><path d="M318.8 290L286.8 191.3L257.8 265.7Z" fill="#de3657" stroke="#de3657"></path><path d="M435.4 266.7L402.9 256.7L368.3 317Z" fill="#de3657" stroke="#de3657"></path><path d="M257.8 265.7L184.2 250.7L204.7 332Z" fill="#b22447" stroke="#b22447"></path><path d="M107.1 362L118.1 417.7L184.7 396.3Z" fill="#c82c4f" stroke="#c82c4f"></path><path d="M222.2 202.3L184.2 250.7L257.8 265.7Z" fill="#881337" stroke="#881337"></path><path d="M248.8 559.3L297.3 548.3L232.2 510Z" fill="#e93a5a" stroke="#e93a5a"></path><path d="M232.2 510L297.3 548.3L288.8 460Z" fill="#f43f5e" stroke="#f43f5e"></path><path d="M195.7 492.3L228.2 537.3L232.2 510Z" fill="#f43f5e" stroke="#f43f5e"></path><path d="M184.2 250.7L172.7 257.7L204.7 332Z" fill="#de3657" stroke="#de3657"></path><path d="M419.4 419.7L459.4 346.3L382.9 390.3Z" fill="#f43f5e" stroke="#f43f5e"></path><path d="M184.2 250.7L171.7 251.3L172.7 257.7Z" fill="#b22447" stroke="#b22447"></path><path d="M107.1 362L201.2 371.3L204.7 332Z" fill="#e93a5a" stroke="#e93a5a"></path><path d="M107.1 362L204.7 332L96.6 317Z" fill="#c82c4f" stroke="#c82c4f"></path><path d="M169.7 436L85.6 459.7L195.7 492.3Z" fill="#f43f5e" stroke="#f43f5e"></path><path d="M195.7 492.3L134.1 560.3L228.2 537.3Z" fill="#881337" stroke="#881337"></path><path d="M459.4 346.3L435.4 266.7L368.3 317Z" fill="#c82c4f" stroke="#c82c4f"></path><path d="M228.2 537.3L248.8 559.3L232.2 510Z" fill="#a71f43" stroke="#a71f43"></path><path d="M96.6 317L204.7 332L172.7 257.7Z" fill="#bd284b" stroke="#bd284b"></path><path d="M322.3 180L318.8 290L375.3 183.3Z" fill="#92173b" stroke="#92173b"></path><path d="M322.3 180L286.8 191.3L318.8 290Z" fill="#9d1b3f" stroke="#9d1b3f"></path><path d="M184.2 250.7L151.1 184L171.7 251.3Z" fill="#a71f43" stroke="#a71f43"></path><path d="M286.8 191.3L222.2 202.3L257.8 265.7Z" fill="#92173b" stroke="#92173b"></path><path d="M359.9 504L460.4 473L419.4 419.7Z" fill="#9d1b3f" stroke="#9d1b3f"></path><path d="M500 431.7L500 359L459.4 346.3Z" fill="#92173b" stroke="#92173b"></path><path d="M430.4 536.3L460.4 473L359.9 504Z" fill="#881337" stroke="#881337"></path><path d="M484.4 280L429.9 235.3L435.4 266.7Z" fill="#de3657" stroke="#de3657"></path><path d="M435.4 266.7L429.9 235.3L402.9 256.7Z" fill="#d33153" stroke="#d33153"></path><path d="M375.3 183.3L318.8 290L402.9 256.7Z" fill="#d33153" stroke="#d33153"></path><path d="M286.8 191.3L240.8 173L222.2 202.3Z" fill="#881337" stroke="#881337"></path><path d="M100.1 258.7L96.6 317L172.7 257.7Z" fill="#d33153" stroke="#d33153"></path><path d="M68.1 444L85.6 459.7L118.1 417.7Z" fill="#d33153" stroke="#d33153"></path><path d="M100.1 258.7L172.7 257.7L171.7 251.3Z" fill="#de3657" stroke="#de3657"></path><path d="M430.4 536.3L359.9 504L412.9 558.7Z" fill="#b22447" stroke="#b22447"></path><path d="M426.9 547.3L430.4 536.3L412.9 558.7Z" fill="#92173b" stroke="#92173b"></path><path d="M500 431.7L459.4 346.3L419.4 419.7Z" fill="#b22447" stroke="#b22447"></path><path d="M459.4 346.3L484.4 280L435.4 266.7Z" fill="#c82c4f" stroke="#c82c4f"></path><path d="M500 359L500 346.3L459.4 346.3Z" fill="#e93a5a" stroke="#e93a5a"></path><path d="M302.8 67.7L240.8 173L286.8 191.3Z" fill="#b22447" stroke="#b22447"></path><path d="M151.1 184L100.1 258.7L171.7 251.3Z" fill="#de3657" stroke="#de3657"></path><path d="M429.9 235.3L375.3 183.3L402.9 256.7Z" fill="#bd284b" stroke="#bd284b"></path><path d="M172.7 133L204.2 164L187.2 103.7Z" fill="#f43f5e" stroke="#f43f5e"></path><path d="M500 486L500 431.7L460.4 473Z" fill="#a71f43" stroke="#a71f43"></path><path d="M460.4 473L500 431.7L419.4 419.7Z" fill="#b22447" stroke="#b22447"></path><path d="M412.9 558.7L359.9 504L297.3 548.3Z" fill="#b22447" stroke="#b22447"></path><path d="M500 527.3L500 486L460.4 473Z" fill="#9d1b3f" stroke="#9d1b3f"></path><path d="M314.8 614.7L412.9 558.7L297.3 548.3Z" fill="#bd284b" stroke="#bd284b"></path><path d="M500 293.7L484.4 280L459.4 346.3Z" fill="#92173b" stroke="#92173b"></path><path d="M456.4 170.3L386.9 160L375.3 183.3Z" fill="#b22447" stroke="#b22447"></path><path d="M71.1 407.3L118.1 417.7L107.1 362Z" fill="#bd284b" stroke="#bd284b"></path><path d="M118.1 417.7L85.6 459.7L169.7 436Z" fill="#de3657" stroke="#de3657"></path><path d="M228.2 537.3L203.2 613.7L248.8 559.3Z" fill="#92173b" stroke="#92173b"></path><path d="M43.6 361.3L71.1 407.3L107.1 362Z" fill="#881337" stroke="#881337"></path><path d="M500 346.3L500 293.7L459.4 346.3Z" fill="#c82c4f" stroke="#c82c4f"></path><path d="M456.4 170.3L375.3 183.3L429.9 235.3Z" fill="#881337" stroke="#881337"></path><path d="M151.1 184L184.2 250.7L222.2 202.3Z" fill="#9d1b3f" stroke="#9d1b3f"></path><path d="M96.6 317L43.6 361.3L107.1 362Z" fill="#bd284b" stroke="#bd284b"></path><path d="M71.1 407.3L68.1 444L118.1 417.7Z" fill="#d33153" stroke="#d33153"></path><path d="M204.2 164L201.7 96.7L187.2 103.7Z" fill="#9d1b3f" stroke="#9d1b3f"></path><path d="M240.8 173L204.2 164L222.2 202.3Z" fill="#f43f5e" stroke="#f43f5e"></path><path d="M500 527.3L460.4 473L430.4 536.3Z" fill="#f43f5e" stroke="#f43f5e"></path><path d="M255.8 625L314.8 614.7L248.8 559.3Z" fill="#bd284b" stroke="#bd284b"></path><path d="M248.8 559.3L314.8 614.7L297.3 548.3Z" fill="#c82c4f" stroke="#c82c4f"></path><path d="M74.6 538.3L134.1 560.3L85.6 459.7Z" fill="#b22447" stroke="#b22447"></path><path d="M85.6 459.7L134.1 560.3L195.7 492.3Z" fill="#9d1b3f" stroke="#9d1b3f"></path><path d="M456.4 170.3L429.9 235.3L500 169.3Z" fill="#f43f5e" stroke="#f43f5e"></path><path d="M375.3 183.3L386.9 160L322.3 180Z" fill="#b22447" stroke="#b22447"></path><path d="M204.2 164L151.1 184L222.2 202.3Z" fill="#a71f43" stroke="#a71f43"></path><path d="M203.2 613.7L255.8 625L248.8 559.3Z" fill="#b22447" stroke="#b22447"></path><path d="M0 336L43.6 361.3L96.6 317Z" fill="#d33153" stroke="#d33153"></path><path d="M71.1 407.3L27.6 448L68.1 444Z" fill="#92173b" stroke="#92173b"></path><path d="M140.7 583.7L203.2 613.7L228.2 537.3Z" fill="#a71f43" stroke="#a71f43"></path><path d="M316.3 651L331.3 628.7L314.8 614.7Z" fill="#a71f43" stroke="#a71f43"></path><path d="M314.8 614.7L369.9 629L412.9 558.7Z" fill="#a71f43" stroke="#a71f43"></path><path d="M500 561.7L430.4 536.3L485.4 578.7Z" fill="#f43f5e" stroke="#f43f5e"></path><path d="M500 561.7L500 527.3L430.4 536.3Z" fill="#c82c4f" stroke="#c82c4f"></path><path d="M151.1 184L85.1 234.3L100.1 258.7Z" fill="#881337" stroke="#881337"></path><path d="M100.1 258.7L55.6 246.7L96.6 317Z" fill="#e93a5a" stroke="#e93a5a"></path><path d="M102.1 601.7L140.7 583.7L134.1 560.3Z" fill="#92173b" stroke="#92173b"></path><path d="M134.1 560.3L140.7 583.7L228.2 537.3Z" fill="#d33153" stroke="#d33153"></path><path d="M430.4 536.3L426.9 547.3L485.4 578.7Z" fill="#d33153" stroke="#d33153"></path><path d="M331.3 628.7L369.9 629L314.8 614.7Z" fill="#c82c4f" stroke="#c82c4f"></path><path d="M500 169.3L429.9 235.3L484.4 280Z" fill="#c82c4f" stroke="#c82c4f"></path><path d="M27.6 448L74.6 538.3L85.6 459.7Z" fill="#bd284b" stroke="#bd284b"></path><path d="M27.6 448L85.6 459.7L68.1 444Z" fill="#b22447" stroke="#b22447"></path><path d="M68.6 208.3L55.6 246.7L85.1 234.3Z" fill="#f43f5e" stroke="#f43f5e"></path><path d="M85.1 234.3L55.6 246.7L100.1 258.7Z" fill="#c82c4f" stroke="#c82c4f"></path><path d="M255.8 625L316.3 651L314.8 614.7Z" fill="#e93a5a" stroke="#e93a5a"></path><path d="M331.3 628.7L373.3 668.3L369.9 629Z" fill="#a71f43" stroke="#a71f43"></path><path d="M283.8 693.3L316.3 651L255.8 625Z" fill="#b22447" stroke="#b22447"></path><path d="M0 404.7L71.1 407.3L43.6 361.3Z" fill="#a71f43" stroke="#a71f43"></path><path d="M0 404.7L27.6 448L71.1 407.3Z" fill="#92173b" stroke="#92173b"></path><path d="M204.2 164L240.8 173L201.7 96.7Z" fill="#9d1b3f" stroke="#9d1b3f"></path><path d="M204.2 164L172.7 133L151.1 184Z" fill="#b22447" stroke="#b22447"></path><path d="M151.1 184L68.6 208.3L85.1 234.3Z" fill="#881337" stroke="#881337"></path><path d="M485.4 578.7L426.9 547.3L412.9 558.7Z" fill="#9d1b3f" stroke="#9d1b3f"></path><path d="M449.4 662L485.4 578.7L412.9 558.7Z" fill="#9d1b3f" stroke="#9d1b3f"></path><path d="M39.6 171L68.6 208.3L61.6 140.7Z" fill="#de3657" stroke="#de3657"></path><path d="M140.7 583.7L181.2 641L203.2 613.7Z" fill="#a71f43" stroke="#a71f43"></path><path d="M203.2 613.7L228.2 658.3L255.8 625Z" fill="#d33153" stroke="#d33153"></path><path d="M102.1 601.7L181.2 641L140.7 583.7Z" fill="#de3657" stroke="#de3657"></path><path d="M181.2 641L228.2 658.3L203.2 613.7Z" fill="#f43f5e" stroke="#f43f5e"></path><path d="M456.4 170.3L399.9 114.7L386.9 160Z" fill="#9d1b3f" stroke="#9d1b3f"></path><path d="M386.9 160L346.3 78.7L322.3 180Z" fill="#d33153" stroke="#d33153"></path><path d="M45.6 556.7L102.1 601.7L74.6 538.3Z" fill="#e93a5a" stroke="#e93a5a"></path><path d="M74.6 538.3L102.1 601.7L134.1 560.3Z" fill="#b22447" stroke="#b22447"></path><path d="M0 354.3L0 404.7L43.6 361.3Z" fill="#a71f43" stroke="#a71f43"></path><path d="M27.6 448L45.6 556.7L74.6 538.3Z" fill="#92173b" stroke="#92173b"></path><path d="M0 354.3L43.6 361.3L0 336Z" fill="#92173b" stroke="#92173b"></path><path d="M0 336L96.6 317L0 277.7Z" fill="#92173b" stroke="#92173b"></path><path d="M0 277.7L96.6 317L55.6 246.7Z" fill="#bd284b" stroke="#bd284b"></path><path d="M201.7 96.7L240.8 173L302.8 67.7Z" fill="#881337" stroke="#881337"></path><path d="M61.6 140.7L68.6 208.3L151.1 184Z" fill="#b22447" stroke="#b22447"></path><path d="M456.4 170.3L468.4 125L399.9 114.7Z" fill="#a71f43" stroke="#a71f43"></path><path d="M500 293.7L500 169.3L484.4 280Z" fill="#c82c4f" stroke="#c82c4f"></path><path d="M302.8 67.7L286.8 191.3L322.3 180Z" fill="#a71f43" stroke="#a71f43"></path><path d="M387.9 677.3L373.3 668.3L297.3 718.7Z" fill="#f43f5e" stroke="#f43f5e"></path><path d="M316.3 651L373.3 668.3L331.3 628.7Z" fill="#d33153" stroke="#d33153"></path><path d="M369.9 629L449.4 662L412.9 558.7Z" fill="#d33153" stroke="#d33153"></path><path d="M0 404.7L0 452L27.6 448Z" fill="#d33153" stroke="#d33153"></path><path d="M0 551.3L45.6 556.7L27.6 448Z" fill="#881337" stroke="#881337"></path><path d="M431.9 77.3L346.3 78.7L399.9 114.7Z" fill="#c82c4f" stroke="#c82c4f"></path><path d="M399.9 114.7L346.3 78.7L386.9 160Z" fill="#b22447" stroke="#b22447"></path><path d="M0 231.3L0 277.7L55.6 246.7Z" fill="#de3657" stroke="#de3657"></path><path d="M500 169.3L468.4 125L456.4 170.3Z" fill="#b22447" stroke="#b22447"></path><path d="M297.3 718.7L373.3 668.3L316.3 651Z" fill="#9d1b3f" stroke="#9d1b3f"></path><path d="M373.3 668.3L387.9 677.3L369.9 629Z" fill="#c82c4f" stroke="#c82c4f"></path><path d="M346.3 78.7L302.8 67.7L322.3 180Z" fill="#92173b" stroke="#92173b"></path><path d="M180.7 701.3L283.8 693.3L228.2 658.3Z" fill="#bd284b" stroke="#bd284b"></path><path d="M228.2 658.3L283.8 693.3L255.8 625Z" fill="#9d1b3f" stroke="#9d1b3f"></path><path d="M180.7 701.3L228.2 658.3L181.2 641Z" fill="#b22447" stroke="#b22447"></path><path d="M317.8 25.3L310.3 63.3L346.3 78.7Z" fill="#92173b" stroke="#92173b"></path><path d="M346.3 78.7L310.3 63.3L302.8 67.7Z" fill="#881337" stroke="#881337"></path><path d="M180.2 68.3L187.2 103.7L201.7 96.7Z" fill="#e93a5a" stroke="#e93a5a"></path><path d="M387.9 677.3L449.4 662L369.9 629Z" fill="#f43f5e" stroke="#f43f5e"></path><path d="M485.4 578.7L500 657L500 561.7Z" fill="#e93a5a" stroke="#e93a5a"></path><path d="M180.2 68.3L201.7 96.7L237.2 0Z" fill="#c82c4f" stroke="#c82c4f"></path><path d="M180.2 68.3L164.7 81.3L187.2 103.7Z" fill="#b22447" stroke="#b22447"></path><path d="M187.2 103.7L164.7 81.3L172.7 133Z" fill="#92173b" stroke="#92173b"></path><path d="M68.6 208.3L0 231.3L55.6 246.7Z" fill="#92173b" stroke="#92173b"></path><path d="M39.6 171L0 231.3L68.6 208.3Z" fill="#f43f5e" stroke="#f43f5e"></path><path d="M61.6 140.7L151.1 184L110.1 100.7Z" fill="#d33153" stroke="#d33153"></path><path d="M500 169.3L500 126L468.4 125Z" fill="#bd284b" stroke="#bd284b"></path><path d="M468.4 125L431.9 77.3L399.9 114.7Z" fill="#a71f43" stroke="#a71f43"></path><path d="M237.2 0L201.7 96.7L302.8 67.7Z" fill="#9d1b3f" stroke="#9d1b3f"></path><path d="M110.1 100.7L151.1 184L172.7 133Z" fill="#a71f43" stroke="#a71f43"></path><path d="M139.7 679L181.2 641L102.1 601.7Z" fill="#881337" stroke="#881337"></path><path d="M139.7 679L151.1 680L181.2 641Z" fill="#f43f5e" stroke="#f43f5e"></path><path d="M500 126L477.4 105.7L468.4 125Z" fill="#de3657" stroke="#de3657"></path><path d="M110.1 100.7L172.7 133L164.7 81.3Z" fill="#f43f5e" stroke="#f43f5e"></path><path d="M106.1 56.3L110.1 100.7L164.7 81.3Z" fill="#9d1b3f" stroke="#9d1b3f"></path><path d="M477.4 105.7L431.9 77.3L468.4 125Z" fill="#a71f43" stroke="#a71f43"></path><path d="M51.6 658L139.7 679L102.1 601.7Z" fill="#c82c4f" stroke="#c82c4f"></path><path d="M213.2 766.7L297.3 718.7L283.8 693.3Z" fill="#d33153" stroke="#d33153"></path><path d="M0 452L0 551.3L27.6 448Z" fill="#e93a5a" stroke="#e93a5a"></path><path d="M45.6 556.7L51.6 658L102.1 601.7Z" fill="#de3657" stroke="#de3657"></path><path d="M500 126L500 113.7L477.4 105.7Z" fill="#f43f5e" stroke="#f43f5e"></path><path d="M477.4 105.7L445.4 50.3L431.9 77.3Z" fill="#bd284b" stroke="#bd284b"></path><path d="M180.7 701.3L181.2 641L151.1 680Z" fill="#9d1b3f" stroke="#9d1b3f"></path><path d="M283.8 693.3L297.3 718.7L316.3 651Z" fill="#bd284b" stroke="#bd284b"></path><path d="M387.9 677.3L415.4 697.3L449.4 662Z" fill="#c82c4f" stroke="#c82c4f"></path><path d="M142.7 754.7L180.7 701.3L151.1 680Z" fill="#881337" stroke="#881337"></path><path d="M420.9 760.7L415.4 697.3L387.9 677.3Z" fill="#d33153" stroke="#d33153"></path><path d="M0 551.3L0 562.7L45.6 556.7Z" fill="#c82c4f" stroke="#c82c4f"></path><path d="M500 663.3L500 657L449.4 662Z" fill="#92173b" stroke="#92173b"></path><path d="M449.4 662L500 657L485.4 578.7Z" fill="#b22447" stroke="#b22447"></path><path d="M456.4 712.7L500 663.3L449.4 662Z" fill="#881337" stroke="#881337"></path><path d="M355.9 0L317.8 25.3L346.3 78.7Z" fill="#f43f5e" stroke="#f43f5e"></path><path d="M310.3 63.3L317.8 25.3L302.8 67.7Z" fill="#e93a5a" stroke="#e93a5a"></path><path d="M500 113.7L500 86.3L477.4 105.7Z" fill="#881337" stroke="#881337"></path><path d="M356.3 0L355.9 0L346.3 78.7Z" fill="#d33153" stroke="#d33153"></path><path d="M500 86.3L445.4 50.3L477.4 105.7Z" fill="#e93a5a" stroke="#e93a5a"></path><path d="M0 642L51.6 658L45.6 556.7Z" fill="#de3657" stroke="#de3657"></path><path d="M139.7 679L142.7 754.7L151.1 680Z" fill="#c82c4f" stroke="#c82c4f"></path><path d="M0 84.7L0 156L61.6 140.7Z" fill="#92173b" stroke="#92173b"></path><path d="M61.6 140.7L0 156L39.6 171Z" fill="#bd284b" stroke="#bd284b"></path><path d="M39.6 171L0 156L0 231.3Z" fill="#f43f5e" stroke="#f43f5e"></path><path d="M420.9 760.7L456.4 712.7L415.4 697.3Z" fill="#a71f43" stroke="#a71f43"></path><path d="M415.4 697.3L456.4 712.7L449.4 662Z" fill="#d33153" stroke="#d33153"></path><path d="M145.1 0L106.1 56.3L180.2 68.3Z" fill="#881337" stroke="#881337"></path><path d="M180.2 68.3L106.1 56.3L164.7 81.3Z" fill="#bd284b" stroke="#bd284b"></path><path d="M110.1 100.7L0 84.7L61.6 140.7Z" fill="#b22447" stroke="#b22447"></path><path d="M355.9 0L263.8 0L317.8 25.3Z" fill="#b22447" stroke="#b22447"></path><path d="M317.8 25.3L263.8 0L302.8 67.7Z" fill="#bd284b" stroke="#bd284b"></path><path d="M263.8 0L237.2 0L302.8 67.7Z" fill="#a71f43" stroke="#a71f43"></path><path d="M356.3 0L346.3 78.7L431.9 77.3Z" fill="#d33153" stroke="#d33153"></path><path d="M445.4 50.3L356.3 0L431.9 77.3Z" fill="#9d1b3f" stroke="#9d1b3f"></path><path d="M0 562.7L0 642L45.6 556.7Z" fill="#9d1b3f" stroke="#9d1b3f"></path><path d="M71.6 711.3L94.1 721.3L139.7 679Z" fill="#881337" stroke="#881337"></path><path d="M71.6 711.3L139.7 679L51.6 658Z" fill="#de3657" stroke="#de3657"></path><path d="M180.7 701.3L213.2 766.7L283.8 693.3Z" fill="#9d1b3f" stroke="#9d1b3f"></path><path d="M142.7 754.7L213.2 766.7L180.7 701.3Z" fill="#bd284b" stroke="#bd284b"></path><path d="M297.3 718.7L420.9 760.7L387.9 677.3Z" fill="#a71f43" stroke="#a71f43"></path><path d="M60.6 720.7L71.6 711.3L51.6 658Z" fill="#b22447" stroke="#b22447"></path><path d="M237.2 0L172.7 0L180.2 68.3Z" fill="#e93a5a" stroke="#e93a5a"></path><path d="M387.9 800L420.9 760.7L297.3 718.7Z" fill="#f43f5e" stroke="#f43f5e"></path><path d="M456.4 712.7L500 742.7L500 663.3Z" fill="#b22447" stroke="#b22447"></path><path d="M0 642L0 658.3L51.6 658Z" fill="#bd284b" stroke="#bd284b"></path><path d="M94.1 721.3L142.7 754.7L139.7 679Z" fill="#e93a5a" stroke="#e93a5a"></path><path d="M78.1 735.7L142.7 754.7L94.1 721.3Z" fill="#9d1b3f" stroke="#9d1b3f"></path><path d="M228.2 800L241.8 781.7L213.2 766.7Z" fill="#bd284b" stroke="#bd284b"></path><path d="M213.2 766.7L241.8 781.7L297.3 718.7Z" fill="#9d1b3f" stroke="#9d1b3f"></path><path d="M172.7 0L145.1 0L180.2 68.3Z" fill="#e93a5a" stroke="#e93a5a"></path><path d="M106.1 56.3L0 84.7L110.1 100.7Z" fill="#92173b" stroke="#92173b"></path><path d="M0 702.7L60.6 720.7L51.6 658Z" fill="#c82c4f" stroke="#c82c4f"></path><path d="M71.6 711.3L78.1 735.7L94.1 721.3Z" fill="#881337" stroke="#881337"></path><path d="M500 0L450.4 0L445.4 50.3Z" fill="#a71f43" stroke="#a71f43"></path><path d="M445.4 50.3L450.4 0L356.3 0Z" fill="#b22447" stroke="#b22447"></path><path d="M60.6 720.7L78.1 735.7L71.6 711.3Z" fill="#881337" stroke="#881337"></path><path d="M0 77.3L0 84.7L106.1 56.3Z" fill="#881337" stroke="#881337"></path><path d="M420.9 760.7L500 742.7L456.4 712.7Z" fill="#b22447" stroke="#b22447"></path><path d="M281.8 800L241.8 781.7L228.2 800Z" fill="#d33153" stroke="#d33153"></path><path d="M281.8 800L297.3 718.7L241.8 781.7Z" fill="#e93a5a" stroke="#e93a5a"></path><path d="M281.8 800L293.3 800L297.3 718.7Z" fill="#b22447" stroke="#b22447"></path><path d="M420.9 760.7L500 800L500 742.7Z" fill="#881337" stroke="#881337"></path><path d="M228.2 800L213.2 766.7L174.7 800Z" fill="#9d1b3f" stroke="#9d1b3f"></path><path d="M59.6 20.3L0 77.3L106.1 56.3Z" fill="#e93a5a" stroke="#e93a5a"></path><path d="M174.7 800L213.2 766.7L142.7 754.7Z" fill="#a71f43" stroke="#a71f43"></path><path d="M82.6 0L59.6 20.3L106.1 56.3Z" fill="#9d1b3f" stroke="#9d1b3f"></path><path d="M293.3 800L387.9 800L297.3 718.7Z" fill="#bd284b" stroke="#bd284b"></path><path d="M500 86.3L500 0L445.4 50.3Z" fill="#de3657" stroke="#de3657"></path><path d="M145.1 0L82.6 0L106.1 56.3Z" fill="#e93a5a" stroke="#e93a5a"></path><path d="M0 658.3L0 702.7L51.6 658Z" fill="#c82c4f" stroke="#c82c4f"></path><path d="M78.1 800L78.6 800L78.1 735.7Z" fill="#bd284b" stroke="#bd284b"></path><path d="M78.6 800L174.7 800L142.7 754.7Z" fill="#f43f5e" stroke="#f43f5e"></path><path d="M78.6 800L142.7 754.7L78.1 735.7Z" fill="#bd284b" stroke="#bd284b"></path><path d="M387.9 800L426.4 800L420.9 760.7Z" fill="#d33153" stroke="#d33153"></path><path d="M426.4 800L500 800L420.9 760.7Z" fill="#881337" stroke="#881337"></path><path d="M78.1 800L78.1 735.7L0 800Z" fill="#bd284b" stroke="#bd284b"></path><path d="M0 800L78.1 735.7L60.6 720.7Z" fill="#bd284b" stroke="#bd284b"></path><path d="M82.6 0L0 0L59.6 20.3Z" fill="#bd284b" stroke="#bd284b"></path><path d="M59.6 20.3L0 0L0 77.3Z" fill="#a71f43" stroke="#a71f43"></path><path d="M0 702.7L0 800L60.6 720.7Z" fill="#92173b" stroke="#92173b"></path></g></svg>