<?xml version="1.0" standalone="no"?><svg xmlns:xlink="http://www.w3.org/1999/xlink" xmlns="http://www.w3.org/2000/svg" viewBox="0 0 1000 727.2727272727273" preserveAspectRatio="xMaxYMax slice"><g transform="scale(1.3104013104013104)"><rect x="0" y="0" width="763.125" height="555" fill="#ffffff"/><rect x="0" y="0" width="69.38" height="69.38" fill="#4338CA"/><path d="M 0 0 A 69.38 69.38 0 0 1  69.38 69.38 L 0 0 A 69.38 69.38 0 0 0 69.38 69.38" fill="#4338CA"/><rect x="69.38" y="0" width="69.38" height="69.38" fill="#F44261"/><path d="M 69.38 69.38 A 69.38 69.38 0 0 1  138.76 0 L 138.76 69.38" fill="#4338CA"/><rect x="138.75" y="0" width="69.38" height="69.38" fill="#4338CA"/><polygon points="208.13,0 208.13,69.38 138.75,69.38" fill="#4338CA"/><rect x="208.13" y="0" width="69.38" height="69.38" fill="#F44261"/><path d="M 208.13 0 A 69.38 69.38 0 0 1 277.51 69.38 L 208.13 69.38" fill="#4338CA"/><rect x="277.5" y="0" width="69.38" height="69.38" fill="#4338CA"/><path d="M 277.5 69.38 A 69.38 69.38 0 0 1  346.88 0 L 277.5 69.38 A 69.38 69.38 0 0 0 346.88 0" fill="#F44261"/><rect x="346.875" y="0" width="69.375" height="69.375" fill="#ffffff"/><rect x="346.88" y="0" width="34.69" height="34.69" fill="#4338CA"/><circle cx="364.225" cy="17.345" r="17.345" fill="#F44261"/><rect x="381.56" y="0" width="34.69" height="34.69" fill="#4338CA"/><rect x="381.56" y="0" width="34.69" height="34.69" fill="#F44261"/><rect x="346.88" y="34.69" width="34.69" height="34.69" fill="#4338CA"/><circle cx="364.225" cy="52.035" r="17.345" fill="#F44261"/><rect x="381.56" y="34.69" width="34.69" height="34.69" fill="#F44261"/><rect x="381.56" y="34.69" width="34.69" height="34.69" fill="#4338CA"/><rect x="416.25" y="0" width="69.375" height="69.375" fill="#ffffff"/><rect x="416.25" y="0" width="34.69" height="34.69" fill="#F44261"/><polygon points="450.94,0 450.94,34.69 416.25,34.69" fill="#4338CA"/><rect x="450.94" y="0" width="34.69" height="34.69" fill="#4338CA"/><polygon points="450.94,0 485.63,34.69 450.94,34.69" fill="#F44261"/><rect x="416.25" y="34.69" width="34.69" height="34.69" fill="#4338CA"/><polygon points="416.25,34.69 450.94,34.69 416.25,69.38" fill="#F44261"/><rect x="450.94" y="34.69" width="34.69" height="34.69" fill="#F44261"/><polygon points="450.94,34.69 485.63,34.69 485.63,69.38" fill="#4338CA"/><rect x="485.625" y="0" width="69.375" height="69.375" fill="#ffffff"/><rect x="485.63" y="0" width="34.69" height="34.69" fill="#4338CA"/><polygon points="520.3199999999999,0 520.3199999999999,34.69 485.63,34.69" fill="#F44261"/><rect x="520.31" y="0" width="34.69" height="34.69" fill="#F44261"/><polygon points="520.31,0 555,34.69 520.31,34.69" fill="#4338CA"/><rect x="485.63" y="34.69" width="34.69" height="34.69" fill="#F44261"/><polygon points="485.63,34.69 520.3199999999999,34.69 520.3199999999999,69.38" fill="#F44261"/><rect x="520.31" y="34.69" width="34.69" height="34.69" fill="#F44261"/><polygon points="520.31,34.69 555,34.69 520.31,69.38" fill="#F44261"/><rect x="555" y="0" width="69.375" height="69.375" fill="#ffffff"/><rect x="555" y="0" width="34.69" height="34.69" fill="#4338CA"/><path d="M 555 34.69 A 34.69 34.69 0 0 0 589.69 0 L 555 0" fill="#4338CA"/><rect x="589.69" y="0" width="34.69" height="34.69" fill="#4338CA"/><path d="M 589.69 0 A 34.69 34.69 0 0 0 624.3800000000001 34.69 L 624.3800000000001 0" fill="#4338CA"/><rect x="555" y="34.69" width="34.69" height="34.69" fill="#4338CA"/><path d="M 555 34.69 A 34.69 34.69 0 0 1 589.69 69.38 L 555 69.38" fill="#4338CA"/><rect x="589.69" y="34.69" width="34.69" height="34.69" fill="#4338CA"/><path d="M 589.69 69.38 A 34.69 34.69 0 0 1  624.3800000000001 34.69 L 624.3800000000001 69.38" fill="#4338CA"/><rect x="624.375" y="0" width="69.375" height="69.375" fill="#ffffff"/><rect x="624.38" y="0" width="34.69" height="34.69" fill="#F44261"/><polygon points="659.0699999999999,0 659.0699999999999,34.69 624.38,34.69" fill="#4338CA"/><rect x="659.06" y="0" width="34.69" height="34.69" fill="#4338CA"/><polygon points="659.06,0 693.75,34.69 659.06,34.69" fill="#F44261"/><rect x="624.38" y="34.69" width="34.69" height="34.69" fill="#4338CA"/><polygon points="624.38,34.69 659.0699999999999,34.69 624.38,69.38" fill="#F44261"/><rect x="659.06" y="34.69" width="34.69" height="34.69" fill="#4338CA"/><polygon points="659.06,34.69 693.75,34.69 693.75,69.38" fill="#4338CA"/><rect x="693.75" y="0" width="69.38" height="69.38" fill="#4338CA"/><path d="M 693.75 0 A 69.38 69.38 0 0 1 763.13 69.38 L 693.75 69.38" fill="#4338CA"/><rect x="0" y="69.375" width="69.375" height="69.375" fill="#ffffff"/><rect x="0" y="69.38" width="34.69" height="34.69" fill="#4338CA"/><polygon points="34.69,69.38 34.69,104.07 0,104.07" fill="#F44261"/><rect x="34.69" y="69.38" width="34.69" height="34.69" fill="#4338CA"/><polygon points="34.69,69.38 69.38,104.07 34.69,104.07" fill="#F44261"/><rect x="0" y="104.06" width="34.69" height="34.69" fill="#4338CA"/><polygon points="0,104.06 34.69,104.06 34.69,138.75" fill="#4338CA"/><rect x="34.69" y="104.06" width="34.69" height="34.69" fill="#F44261"/><polygon points="34.69,104.06 69.38,104.06 34.69,138.75" fill="#4338CA"/><rect x="69.375" y="69.375" width="69.375" height="69.375" fill="#ffffff"/><rect x="69.38" y="69.38" width="34.69" height="34.69" fill="#4338CA"/><path d="M 69.38 69.38 A 34.69 34.69 0 0 1 104.07 104.07 L 69.38 104.07" fill="#4338CA"/><rect x="104.06" y="69.38" width="34.69" height="34.69" fill="#F44261"/><path d="M 104.06 104.07 A 34.69 34.69 0 0 1  138.75 69.38 L 138.75 104.07" fill="#4338CA"/><rect x="69.38" y="104.06" width="34.69" height="34.69" fill="#4338CA"/><path d="M 69.38 138.75 A 34.69 34.69 0 0 0 104.07 104.06 L 69.38 104.06" fill="#F44261"/><rect x="104.06" y="104.06" width="34.69" height="34.69" fill="#4338CA"/><path d="M 104.06 104.06 A 34.69 34.69 0 0 0 138.75 138.75 L 138.75 104.06" fill="#F44261"/><rect x="138.75" y="69.375" width="69.375" height="69.375" fill="#ffffff"/><rect x="138.75" y="69.38" width="34.69" height="34.69" fill="#4338CA"/><polygon points="173.44,69.38 173.44,104.07 138.75,104.07" fill="#4338CA"/><rect x="173.44" y="69.38" width="34.69" height="34.69" fill="#F44261"/><polygon points="173.44,69.38 208.13,69.38 173.44,104.07" fill="#F44261"/><rect x="138.75" y="104.06" width="34.69" height="34.69" fill="#F44261"/><polygon points="138.75,104.06 173.44,104.06 173.44,138.75" fill="#F44261"/><rect x="173.44" y="104.06" width="34.69" height="34.69" fill="#4338CA"/><polygon points="173.44,104.06 208.13,138.75 173.44,138.75" fill="#4338CA"/><rect x="208.13" y="69.38" width="69.38" height="69.38" fill="#F44261"/><polygon points="208.13,69.38 277.51,69.38 277.51,138.76" fill="#4338CA"/><rect x="277.5" y="69.38" width="69.38" height="69.38" fill="#4338CA"/><path d="M 277.5 138.76 A 69.38 69.38 0 0 1  346.88 69.38 L 277.5 138.76 A 69.38 69.38 0 0 0 346.88 69.38" fill="#F44261"/><rect x="346.875" y="69.375" width="69.375" height="69.375" fill="#ffffff"/><rect x="346.88" y="69.38" width="34.69" height="34.69" fill="#4338CA"/><path d="M 346.88 104.07 A 34.69 34.69 0 0 0 381.57 69.38 L 346.88 69.38" fill="#4338CA"/><rect x="381.56" y="69.38" width="34.69" height="34.69" fill="#F44261"/><path d="M 381.56 69.38 A 34.69 34.69 0 0 0 416.25 104.07 L 416.25 69.38" fill="#4338CA"/><rect x="346.88" y="104.06" width="34.69" height="34.69" fill="#F44261"/><path d="M 346.88 104.06 A 34.69 34.69 0 0 1 381.57 138.75 L 346.88 138.75" fill="#4338CA"/><rect x="381.56" y="104.06" width="34.69" height="34.69" fill="#4338CA"/><path d="M 381.56 138.75 A 34.69 34.69 0 0 1  416.25 104.06 L 416.25 138.75" fill="#4338CA"/><rect x="416.25" y="69.38" width="69.38" height="69.38" fill="#F44261"/><rect x="416.25" y="69.38" width="69.38" height="69.38" fill="#F44261"/><rect x="485.625" y="69.375" width="69.375" height="69.375" fill="#ffffff"/><rect x="485.63" y="69.38" width="34.69" height="34.69" fill="#F44261"/><polygon points="520.3199999999999,69.38 520.3199999999999,104.07 485.63,104.07" fill="#F44261"/><rect x="520.31" y="69.38" width="34.69" height="34.69" fill="#F44261"/><polygon points="520.31,69.38 555,69.38 520.31,104.07" fill="#4338CA"/><rect x="485.63" y="104.06" width="34.69" height="34.69" fill="#4338CA"/><polygon points="485.63,104.06 520.3199999999999,104.06 520.3199999999999,138.75" fill="#F44261"/><rect x="520.31" y="104.06" width="34.69" height="34.69" fill="#F44261"/><polygon points="520.31,104.06 555,138.75 520.31,138.75" fill="#F44261"/><rect x="555" y="69.375" width="69.375" height="69.375" fill="#ffffff"/><rect x="555" y="69.38" width="34.69" height="34.69" fill="#4338CA"/><polygon points="589.69,69.38 589.69,104.07 555,104.07" fill="#4338CA"/><rect x="589.69" y="69.38" width="34.69" height="34.69" fill="#4338CA"/><polygon points="589.69,69.38 624.3800000000001,104.07 589.69,104.07" fill="#4338CA"/><rect x="555" y="104.06" width="34.69" height="34.69" fill="#F44261"/><polygon points="555,104.06 589.69,104.06 589.69,138.75" fill="#F44261"/><rect x="589.69" y="104.06" width="34.69" height="34.69" fill="#F44261"/><polygon points="589.69,104.06 624.3800000000001,104.06 589.69,138.75" fill="#4338CA"/><rect x="624.38" y="69.38" width="69.38" height="69.38" fill="#4338CA"/><rect x="624.38" y="69.38" width="69.38" height="69.38" fill="#4338CA"/><rect x="693.75" y="69.38" width="69.38" height="69.38" fill="#F44261"/><polygon points="693.75,69.38 763.13,69.38 763.13,138.76" fill="#F44261"/><rect x="0" y="138.75" width="69.375" height="69.375" fill="#ffffff"/><rect x="0" y="138.75" width="34.69" height="34.69" fill="#4338CA"/><path d="M 0 173.44 A 34.69 34.69 0 0 0 34.69 138.75 L 0 138.75" fill="#4338CA"/><rect x="34.69" y="138.75" width="34.69" height="34.69" fill="#4338CA"/><path d="M 34.69 138.75 A 34.69 34.69 0 0 0 69.38 173.44 L 69.38 138.75" fill="#F44261"/><rect x="0" y="173.44" width="34.69" height="34.69" fill="#4338CA"/><path d="M 0 173.44 A 34.69 34.69 0 0 1 34.69 208.13 L 0 208.13" fill="#4338CA"/><rect x="34.69" y="173.44" width="34.69" height="34.69" fill="#F44261"/><path d="M 34.69 208.13 A 34.69 34.69 0 0 1  69.38 173.44 L 69.38 208.13" fill="#F44261"/><rect x="69.375" y="138.75" width="69.375" height="69.375" fill="#ffffff"/><rect x="69.38" y="138.75" width="34.69" height="34.69" fill="#F44261"/><polygon points="104.07,138.75 104.07,173.44 69.38,173.44" fill="#4338CA"/><rect x="104.06" y="138.75" width="34.69" height="34.69" fill="#4338CA"/><polygon points="104.06,138.75 138.75,173.44 104.06,173.44" fill="#4338CA"/><rect x="69.38" y="173.44" width="34.69" height="34.69" fill="#4338CA"/><polygon points="69.38,173.44 104.07,173.44 69.38,208.13" fill="#F44261"/><rect x="104.06" y="173.44" width="34.69" height="34.69" fill="#F44261"/><polygon points="104.06,173.44 138.75,173.44 138.75,208.13" fill="#4338CA"/><rect x="138.75" y="138.75" width="69.375" height="69.375" fill="#ffffff"/><rect x="138.75" y="138.75" width="34.69" height="34.69" fill="#4338CA"/><polygon points="173.44,138.75 173.44,173.44 138.75,173.44" fill="#F44261"/><rect x="173.44" y="138.75" width="34.69" height="34.69" fill="#F44261"/><polygon points="173.44,138.75 208.13,173.44 173.44,173.44" fill="#F44261"/><rect x="138.75" y="173.44" width="34.69" height="34.69" fill="#F44261"/><polygon points="138.75,173.44 173.44,173.44 138.75,208.13" fill="#4338CA"/><rect x="173.44" y="173.44" width="34.69" height="34.69" fill="#4338CA"/><polygon points="173.44,173.44 208.13,173.44 208.13,208.13" fill="#4338CA"/><rect x="208.125" y="138.75" width="69.375" height="69.375" fill="#ffffff"/><rect x="208.13" y="138.75" width="34.69" height="34.69" fill="#F44261"/><path d="M 208.13 173.44 A 34.69 34.69 0 0 1 242.82 138.75 L 242.82 147.4225 A 26.0175 26.0175 0 0 0 216.8025 173.44" fill="#4338CA"/><rect x="242.81" y="138.75" width="34.69" height="34.69" fill="#F44261"/><path d="M 242.81 138.75 A 34.69 34.69 0 0 1 277.5 173.44 L 268.8275 173.44 A 26.0175 26.0175 0 0 0 242.81 147.4225" fill="#F44261"/><rect x="208.13" y="173.44" width="34.69" height="34.69" fill="#F44261"/><path d="M 208.13 173.44 A 34.69 34.69 0 0 0 242.82 208.13 L 242.82 199.45749999999998 A 26.0175 26.0175 0 0 1 216.8025 173.44" fill="#F44261"/><rect x="242.81" y="173.44" width="34.69" height="34.69" fill="#4338CA"/><path d="M 242.81 208.13 A 34.69 34.69 0 0 0 277.5 173.44 L 268.8275 173.44 A 26.0175 26.0175 0 0 1 242.81 199.45749999999998" fill="#F44261"/><rect x="277.5" y="138.75" width="69.38" height="69.38" fill="#F44261"/><path d="M 277.5 138.75 A 69.38 69.38 0 0 1  346.88 208.13 L 277.5 138.75 A 69.38 69.38 0 0 0 346.88 208.13" fill="#4338CA"/><rect x="346.875" y="138.75" width="69.375" height="69.375" fill="#ffffff"/><rect x="346.88" y="138.75" width="34.69" height="34.69" fill="#F44261"/><polygon points="381.57,138.75 381.57,173.44 346.88,173.44" fill="#4338CA"/><rect x="381.56" y="138.75" width="34.69" height="34.69" fill="#4338CA"/><polygon points="381.56,138.75 416.25,138.75 381.56,173.44" fill="#F44261"/><rect x="346.88" y="173.44" width="34.69" height="34.69" fill="#4338CA"/><polygon points="346.88,173.44 381.57,173.44 381.57,208.13" fill="#4338CA"/><rect x="381.56" y="173.44" width="34.69" height="34.69" fill="#F44261"/><polygon points="381.56,173.44 416.25,208.13 381.56,208.13" fill="#F44261"/><rect x="416.25" y="138.75" width="69.375" height="69.375" fill="#ffffff"/><rect x="416.25" y="138.75" width="34.69" height="34.69" fill="#F44261"/><polygon points="450.94,138.75 450.94,173.44 416.25,173.44" fill="#F44261"/><rect x="450.94" y="138.75" width="34.69" height="34.69" fill="#F44261"/><polygon points="450.94,138.75 485.63,138.75 450.94,173.44" fill="#4338CA"/><rect x="416.25" y="173.44" width="34.69" height="34.69" fill="#4338CA"/><polygon points="416.25,173.44 450.94,173.44 450.94,208.13" fill="#F44261"/><rect x="450.94" y="173.44" width="34.69" height="34.69" fill="#4338CA"/><polygon points="450.94,173.44 485.63,208.13 450.94,208.13" fill="#4338CA"/><rect x="485.625" y="138.75" width="69.375" height="69.375" fill="#ffffff"/><rect x="485.63" y="138.75" width="34.69" height="34.69" fill="#4338CA"/><polygon points="520.3199999999999,138.75 520.3199999999999,173.44 485.63,173.44" fill="#F44261"/><rect x="520.31" y="138.75" width="34.69" height="34.69" fill="#F44261"/><polygon points="520.31,138.75 555,173.44 520.31,173.44" fill="#4338CA"/><rect x="485.63" y="173.44" width="34.69" height="34.69" fill="#4338CA"/><polygon points="485.63,173.44 520.3199999999999,173.44 485.63,208.13" fill="#F44261"/><rect x="520.31" y="173.44" width="34.69" height="34.69" fill="#4338CA"/><polygon points="520.31,173.44 555,173.44 555,208.13" fill="#4338CA"/><rect x="555" y="138.75" width="69.38" height="69.38" fill="#F44261"/><polygon points="555,138.75 624.38,138.75 624.38,208.13" fill="#4338CA"/><rect x="624.38" y="138.75" width="69.38" height="69.38" fill="#4338CA"/><polygon points="624.38,138.75 693.76,138.75 693.76,208.13" fill="#F44261"/><rect x="693.75" y="138.75" width="69.375" height="69.375" fill="#ffffff"/><rect x="693.75" y="138.75" width="34.69" height="34.69" fill="#F44261"/><path d="M 693.75 173.44 A 34.69 34.69 0 0 1  728.44 138.75 L 728.44 173.44" fill="#F44261"/><rect x="728.44" y="138.75" width="34.69" height="34.69" fill="#F44261"/><path d="M 728.44 138.75 A 34.69 34.69 0 0 1 763.1300000000001 173.44 L 728.44 173.44" fill="#4338CA"/><rect x="693.75" y="173.44" width="34.69" height="34.69" fill="#4338CA"/><path d="M 693.75 173.44 A 34.69 34.69 0 0 0 728.44 208.13 L 728.44 173.44" fill="#4338CA"/><rect x="728.44" y="173.44" width="34.69" height="34.69" fill="#4338CA"/><path d="M 728.44 208.13 A 34.69 34.69 0 0 0 763.1300000000001 173.44 L 728.44 173.44" fill="#4338CA"/><rect x="0" y="208.125" width="69.375" height="69.375" fill="#ffffff"/><rect x="0" y="208.13" width="34.69" height="34.69" fill="#4338CA"/><polygon points="34.69,208.13 34.69,242.82 0,242.82" fill="#F44261"/><rect x="34.69" y="208.13" width="34.69" height="34.69" fill="#4338CA"/><polygon points="34.69,208.13 69.38,208.13 34.69,242.82" fill="#F44261"/><rect x="0" y="242.81" width="34.69" height="34.69" fill="#F44261"/><polygon points="0,242.81 34.69,242.81 34.69,277.5" fill="#F44261"/><rect x="34.69" y="242.81" width="34.69" height="34.69" fill="#F44261"/><polygon points="34.69,242.81 69.38,277.5 34.69,277.5" fill="#4338CA"/><rect x="69.38" y="208.13" width="69.38" height="69.38" fill="#4338CA"/><path d="M 69.38 208.13 A 69.38 69.38 0 0 1 138.76 277.51 L 69.38 277.51" fill="#F44261"/><rect x="138.75" y="208.125" width="69.375" height="69.375" fill="#ffffff"/><rect x="138.75" y="208.13" width="34.69" height="34.69" fill="#F44261"/><circle cx="156.095" cy="225.475" r="17.345" fill="#F44261"/><rect x="173.44" y="208.13" width="34.69" height="34.69" fill="#4338CA"/><rect x="173.44" y="208.13" width="34.69" height="34.69" fill="#4338CA"/><rect x="138.75" y="242.81" width="34.69" height="34.69" fill="#4338CA"/><circle cx="156.095" cy="260.155" r="17.345" fill="#4338CA"/><rect x="173.44" y="242.81" width="34.69" height="34.69" fill="#F44261"/><rect x="173.44" y="242.81" width="34.69" height="34.69" fill="#F44261"/><rect x="208.125" y="208.125" width="69.375" height="69.375" fill="#ffffff"/><rect x="208.13" y="208.13" width="34.69" height="34.69" fill="#F44261"/><path d="M 208.13 208.13 A 34.69 34.69 0 0 0 242.82 242.82 L 242.82 208.13" fill="#4338CA"/><rect x="242.81" y="208.13" width="34.69" height="34.69" fill="#4338CA"/><path d="M 242.81 242.82 A 34.69 34.69 0 0 0 277.5 208.13 L 242.81 208.13" fill="#F44261"/><rect x="208.13" y="242.81" width="34.69" height="34.69" fill="#4338CA"/><path d="M 208.13 277.5 A 34.69 34.69 0 0 1  242.82 242.81 L 242.82 277.5" fill="#F44261"/><rect x="242.81" y="242.81" width="34.69" height="34.69" fill="#4338CA"/><path d="M 242.81 242.81 A 34.69 34.69 0 0 1 277.5 277.5 L 242.81 277.5" fill="#4338CA"/><rect x="277.5" y="208.13" width="69.38" height="69.38" fill="#4338CA"/><path d="M 277.5 208.13 A 69.38 69.38 0 0 1  346.88 277.51 L 277.5 208.13 A 69.38 69.38 0 0 0 346.88 277.51" fill="#F44261"/><rect x="346.875" y="208.125" width="69.375" height="69.375" fill="#ffffff"/><rect x="346.88" y="208.13" width="34.69" height="34.69" fill="#F44261"/><path d="M 346.88 242.82 A 34.69 34.69 0 0 0 381.57 208.13 L 346.88 208.13" fill="#4338CA"/><rect x="381.56" y="208.13" width="34.69" height="34.69" fill="#F44261"/><path d="M 381.56 208.13 A 34.69 34.69 0 0 0 416.25 242.82 L 416.25 208.13" fill="#4338CA"/><rect x="346.88" y="242.81" width="34.69" height="34.69" fill="#F44261"/><path d="M 346.88 242.81 A 34.69 34.69 0 0 1 381.57 277.5 L 346.88 277.5" fill="#F44261"/><rect x="381.56" y="242.81" width="34.69" height="34.69" fill="#4338CA"/><path d="M 381.56 277.5 A 34.69 34.69 0 0 1  416.25 242.81 L 416.25 277.5" fill="#F44261"/><rect x="416.25" y="208.13" width="69.38" height="69.38" fill="#4338CA"/><polygon points="416.25,208.13 485.63,277.51 416.25,277.51" fill="#F44261"/><rect x="485.63" y="208.13" width="69.38" height="69.38" fill="#4338CA"/><rect x="485.63" y="208.13" width="69.38" height="69.38" fill="#4338CA"/><rect x="555" y="208.13" width="69.38" height="69.38" fill="#4338CA"/><path d="M 555 208.13 A 69.38 69.38 0 0 0 624.38 277.51 L 624.38 208.13" fill="#4338CA"/><rect x="624.38" y="208.13" width="69.38" height="69.38" fill="#4338CA"/><polygon points="693.76,208.13 693.76,277.51 624.38,277.51" fill="#4338CA"/><rect x="693.75" y="208.13" width="69.38" height="69.38" fill="#F44261"/><path d="M 693.75 277.51 A 69.38 69.38 0 0 1  763.13 208.13 L 693.75 277.51 A 69.38 69.38 0 0 0 763.13 208.13" fill="#F44261"/><rect x="0" y="277.5" width="69.38" height="69.38" fill="#F44261"/><path d="M 0 277.5 A 69.38 69.38 0 0 1  69.38 346.88 L 0 277.5 A 69.38 69.38 0 0 0 69.38 346.88" fill="#F44261"/><rect x="69.38" y="277.5" width="69.38" height="69.38" fill="#4338CA"/><rect x="69.38" y="277.5" width="69.38" height="69.38" fill="#4338CA"/><rect x="138.75" y="277.5" width="69.38" height="69.38" fill="#4338CA"/><path d="M 138.75 277.5 A 69.38 69.38 0 0 1 208.13 346.88 L 138.75 346.88" fill="#4338CA"/><rect x="208.13" y="277.5" width="69.38" height="69.38" fill="#F44261"/><path d="M 208.13 346.88 A 69.38 69.38 0 0 0 277.51 277.5 L 208.13 277.5" fill="#4338CA"/><rect x="277.5" y="277.5" width="69.375" height="69.375" fill="#ffffff"/><rect x="277.5" y="277.5" width="34.69" height="34.69" fill="#F44261"/><path d="M 277.5 312.19 A 34.69 34.69 0 0 1 312.19 277.5 L 312.19 286.1725 A 26.0175 26.0175 0 0 0 286.1725 312.19" fill="#4338CA"/><rect x="312.19" y="277.5" width="34.69" height="34.69" fill="#4338CA"/><path d="M 312.19 277.5 A 34.69 34.69 0 0 1 346.88 312.19 L 338.2075 312.19 A 26.0175 26.0175 0 0 0 312.19 286.1725" fill="#4338CA"/><rect x="277.5" y="312.19" width="34.69" height="34.69" fill="#4338CA"/><path d="M 277.5 312.19 A 34.69 34.69 0 0 0 312.19 346.88 L 312.19 338.2075 A 26.0175 26.0175 0 0 1 286.1725 312.19" fill="#4338CA"/><rect x="312.19" y="312.19" width="34.69" height="34.69" fill="#F44261"/><path d="M 312.19 346.88 A 34.69 34.69 0 0 0 346.88 312.19 L 338.2075 312.19 A 26.0175 26.0175 0 0 1 312.19 338.2075" fill="#F44261"/><rect x="346.875" y="277.5" width="69.375" height="69.375" fill="#ffffff"/><rect x="346.88" y="277.5" width="34.69" height="34.69" fill="#4338CA"/><path d="M 346.88 312.19 A 34.69 34.69 0 0 1  381.57 277.5 L 381.57 312.19" fill="#4338CA"/><rect x="381.56" y="277.5" width="34.69" height="34.69" fill="#F44261"/><path d="M 381.56 277.5 A 34.69 34.69 0 0 1 416.25 312.19 L 381.56 312.19" fill="#4338CA"/><rect x="346.88" y="312.19" width="34.69" height="34.69" fill="#4338CA"/><path d="M 346.88 312.19 A 34.69 34.69 0 0 0 381.57 346.88 L 381.57 312.19" fill="#F44261"/><rect x="381.56" y="312.19" width="34.69" height="34.69" fill="#4338CA"/><path d="M 381.56 346.88 A 34.69 34.69 0 0 0 416.25 312.19 L 381.56 312.19" fill="#4338CA"/><rect x="416.25" y="277.5" width="69.375" height="69.375" fill="#ffffff"/><rect x="416.25" y="277.5" width="34.69" height="34.69" fill="#F44261"/><polygon points="450.94,277.5 450.94,312.19 416.25,312.19" fill="#4338CA"/><rect x="450.94" y="277.5" width="34.69" height="34.69" fill="#4338CA"/><polygon points="450.94,277.5 485.63,277.5 450.94,312.19" fill="#4338CA"/><rect x="416.25" y="312.19" width="34.69" height="34.69" fill="#4338CA"/><polygon points="416.25,312.19 450.94,312.19 450.94,346.88" fill="#F44261"/><rect x="450.94" y="312.19" width="34.69" height="34.69" fill="#F44261"/><polygon points="450.94,312.19 485.63,346.88 450.94,346.88" fill="#4338CA"/><rect x="485.63" y="277.5" width="69.38" height="69.38" fill="#4338CA"/><path d="M 485.63 277.5 A 69.38 69.38 0 0 1 555.01 346.88 L 485.63 346.88" fill="#4338CA"/><rect x="555" y="277.5" width="69.375" height="69.375" fill="#ffffff"/><rect x="555" y="277.5" width="34.69" height="34.69" fill="#F44261"/><circle cx="572.345" cy="294.845" r="17.345" fill="#F44261"/><rect x="589.69" y="277.5" width="34.69" height="34.69" fill="#F44261"/><rect x="589.69" y="277.5" width="34.69" height="34.69" fill="#F44261"/><rect x="555" y="312.19" width="34.69" height="34.69" fill="#F44261"/><circle cx="572.345" cy="329.53499999999997" r="17.345" fill="#4338CA"/><rect x="589.69" y="312.19" width="34.69" height="34.69" fill="#F44261"/><rect x="589.69" y="312.19" width="34.69" height="34.69" fill="#4338CA"/><rect x="624.38" y="277.5" width="69.38" height="69.38" fill="#F44261"/><polygon points="624.38,277.5 693.76,277.5 693.76,346.88" fill="#F44261"/><rect x="693.75" y="277.5" width="69.375" height="69.375" fill="#ffffff"/><rect x="693.75" y="277.5" width="34.69" height="34.69" fill="#F44261"/><path d="M 693.75 277.5 A 34.69 34.69 0 0 0 728.44 312.19 L 728.44 277.5" fill="#4338CA"/><rect x="728.44" y="277.5" width="34.69" height="34.69" fill="#F44261"/><path d="M 728.44 312.19 A 34.69 34.69 0 0 0 763.1300000000001 277.5 L 728.44 277.5" fill="#4338CA"/><rect x="693.75" y="312.19" width="34.69" height="34.69" fill="#F44261"/><path d="M 693.75 346.88 A 34.69 34.69 0 0 1  728.44 312.19 L 728.44 346.88" fill="#4338CA"/><rect x="728.44" y="312.19" width="34.69" height="34.69" fill="#F44261"/><path d="M 728.44 312.19 A 34.69 34.69 0 0 1 763.1300000000001 346.88 L 728.44 346.88" fill="#F44261"/><rect x="0" y="346.88" width="69.38" height="69.38" fill="#4338CA"/><path d="M 0 416.26 A 69.38 69.38 0 0 0 69.38 346.88 L 0 346.88" fill="#F44261"/><rect x="69.38" y="346.88" width="69.38" height="69.38" fill="#4338CA"/><polygon points="69.38,346.88 138.76,346.88 138.76,416.26" fill="#4338CA"/><rect x="138.75" y="346.88" width="69.38" height="69.38" fill="#F44261"/><path d="M 138.75 416.26 A 69.38 69.38 0 0 1  208.13 346.88 L 208.13 416.26" fill="#4338CA"/><rect x="208.125" y="346.875" width="69.375" height="69.375" fill="#ffffff"/><rect x="208.13" y="346.88" width="34.69" height="34.69" fill="#4338CA"/><path d="M 208.13 346.88 A 34.69 34.69 0 0 0 242.82 381.57 L 242.82 346.88" fill="#F44261"/><rect x="242.81" y="346.88" width="34.69" height="34.69" fill="#F44261"/><path d="M 242.81 381.57 A 34.69 34.69 0 0 0 277.5 346.88 L 242.81 346.88" fill="#F44261"/><rect x="208.13" y="381.56" width="34.69" height="34.69" fill="#F44261"/><path d="M 208.13 416.25 A 34.69 34.69 0 0 1  242.82 381.56 L 242.82 416.25" fill="#4338CA"/><rect x="242.81" y="381.56" width="34.69" height="34.69" fill="#4338CA"/><path d="M 242.81 381.56 A 34.69 34.69 0 0 1 277.5 416.25 L 242.81 416.25" fill="#4338CA"/><rect x="277.5" y="346.88" width="69.38" height="69.38" fill="#4338CA"/><path d="M 277.5 346.88 A 69.38 69.38 0 0 0 346.88 416.26 L 346.88 346.88" fill="#F44261"/><rect x="346.875" y="346.875" width="69.375" height="69.375" fill="#ffffff"/><rect x="346.88" y="346.88" width="34.69" height="34.69" fill="#4338CA"/><polygon points="381.57,346.88 381.57,381.57 346.88,381.57" fill="#4338CA"/><rect x="381.56" y="346.88" width="34.69" height="34.69" fill="#4338CA"/><polygon points="381.56,346.88 416.25,346.88 381.56,381.57" fill="#4338CA"/><rect x="346.88" y="381.56" width="34.69" height="34.69" fill="#4338CA"/><polygon points="346.88,381.56 381.57,381.56 381.57,416.25" fill="#4338CA"/><rect x="381.56" y="381.56" width="34.69" height="34.69" fill="#F44261"/><polygon points="381.56,381.56 416.25,416.25 381.56,416.25" fill="#4338CA"/><rect x="416.25" y="346.88" width="69.38" height="69.38" fill="#F44261"/><polygon points="416.25,346.88 485.63,346.88 485.63,416.26" fill="#F44261"/><rect x="485.63" y="346.88" width="69.38" height="69.38" fill="#4338CA"/><polygon points="485.63,346.88 555.01,346.88 485.63,416.26" fill="#4338CA"/><rect x="555" y="346.875" width="69.375" height="69.375" fill="#ffffff"/><rect x="555" y="346.88" width="34.69" height="34.69" fill="#4338CA"/><path d="M 555 346.88 A 34.69 34.69 0 0 0 589.69 381.57 L 589.69 346.88" fill="#4338CA"/><rect x="589.69" y="346.88" width="34.69" height="34.69" fill="#4338CA"/><path d="M 589.69 381.57 A 34.69 34.69 0 0 0 624.3800000000001 346.88 L 589.69 346.88" fill="#F44261"/><rect x="555" y="381.56" width="34.69" height="34.69" fill="#F44261"/><path d="M 555 416.25 A 34.69 34.69 0 0 1  589.69 381.56 L 589.69 416.25" fill="#F44261"/><rect x="589.69" y="381.56" width="34.69" height="34.69" fill="#4338CA"/><path d="M 589.69 381.56 A 34.69 34.69 0 0 1 624.3800000000001 416.25 L 589.69 416.25" fill="#4338CA"/><rect x="624.38" y="346.88" width="69.38" height="69.38" fill="#4338CA"/><polygon points="624.38,346.88 693.76,346.88 693.76,416.26" fill="#F44261"/><rect x="693.75" y="346.88" width="69.38" height="69.38" fill="#F44261"/><path d="M 693.75 346.88 A 69.38 69.38 0 0 1  763.13 416.26 L 693.75 346.88 A 69.38 69.38 0 0 0 763.13 416.26" fill="#4338CA"/><rect x="0" y="416.25" width="69.375" height="69.375" fill="#ffffff"/><rect x="0" y="416.25" width="34.69" height="34.69" fill="#F44261"/><path d="M 0 450.94 A 34.69 34.69 0 0 1 34.69 416.25 L 34.69 424.9225 A 26.0175 26.0175 0 0 0 8.6725 450.94" fill="#F44261"/><rect x="34.69" y="416.25" width="34.69" height="34.69" fill="#F44261"/><path d="M 34.69 416.25 A 34.69 34.69 0 0 1 69.38 450.94 L 60.707499999999996 450.94 A 26.0175 26.0175 0 0 0 34.69 424.9225" fill="#F44261"/><rect x="0" y="450.94" width="34.69" height="34.69" fill="#F44261"/><path d="M 0 450.94 A 34.69 34.69 0 0 0 34.69 485.63 L 34.69 476.9575 A 26.0175 26.0175 0 0 1 8.6725 450.94" fill="#4338CA"/><rect x="34.69" y="450.94" width="34.69" height="34.69" fill="#F44261"/><path d="M 34.69 485.63 A 34.69 34.69 0 0 0 69.38 450.94 L 60.707499999999996 450.94 A 26.0175 26.0175 0 0 1 34.69 476.9575" fill="#4338CA"/><rect x="69.38" y="416.25" width="69.38" height="69.38" fill="#4338CA"/><polygon points="138.76,416.25 138.76,485.63 69.38,485.63" fill="#F44261"/><rect x="138.75" y="416.25" width="69.375" height="69.375" fill="#ffffff"/><rect x="138.75" y="416.25" width="34.69" height="34.69" fill="#F44261"/><polygon points="173.44,416.25 173.44,450.94 138.75,450.94" fill="#4338CA"/><rect x="173.44" y="416.25" width="34.69" height="34.69" fill="#4338CA"/><polygon points="173.44,416.25 208.13,450.94 173.44,450.94" fill="#4338CA"/><rect x="138.75" y="450.94" width="34.69" height="34.69" fill="#F44261"/><polygon points="138.75,450.94 173.44,450.94 173.44,485.63" fill="#4338CA"/><rect x="173.44" y="450.94" width="34.69" height="34.69" fill="#4338CA"/><polygon points="173.44,450.94 208.13,450.94 173.44,485.63" fill="#F44261"/><rect x="208.125" y="416.25" width="69.375" height="69.375" fill="#ffffff"/><rect x="208.13" y="416.25" width="34.69" height="34.69" fill="#4338CA"/><path d="M 208.13 450.94 A 34.69 34.69 0 0 1  242.82 416.25 L 242.82 450.94" fill="#F44261"/><rect x="242.81" y="416.25" width="34.69" height="34.69" fill="#F44261"/><path d="M 242.81 416.25 A 34.69 34.69 0 0 1 277.5 450.94 L 242.81 450.94" fill="#4338CA"/><rect x="208.13" y="450.94" width="34.69" height="34.69" fill="#F44261"/><path d="M 208.13 450.94 A 34.69 34.69 0 0 0 242.82 485.63 L 242.82 450.94" fill="#4338CA"/><rect x="242.81" y="450.94" width="34.69" height="34.69" fill="#F44261"/><path d="M 242.81 485.63 A 34.69 34.69 0 0 0 277.5 450.94 L 242.81 450.94" fill="#4338CA"/><rect x="277.5" y="416.25" width="69.375" height="69.375" fill="#ffffff"/><rect x="277.5" y="416.25" width="34.69" height="34.69" fill="#4338CA"/><circle cx="294.845" cy="433.595" r="17.345" fill="#F44261"/><rect x="312.19" y="416.25" width="34.69" height="34.69" fill="#4338CA"/><rect x="312.19" y="416.25" width="34.69" height="34.69" fill="#4338CA"/><rect x="277.5" y="450.94" width="34.69" height="34.69" fill="#4338CA"/><circle cx="294.845" cy="468.28499999999997" r="17.345" fill="#4338CA"/><rect x="312.19" y="450.94" width="34.69" height="34.69" fill="#F44261"/><rect x="312.19" y="450.94" width="34.69" height="34.69" fill="#F44261"/><rect x="346.875" y="416.25" width="69.375" height="69.375" fill="#ffffff"/><rect x="346.88" y="416.25" width="34.69" height="34.69" fill="#F44261"/><path d="M 346.88 416.25 A 34.69 34.69 0 0 1 381.57 450.94 L 346.88 450.94" fill="#4338CA"/><rect x="381.56" y="416.25" width="34.69" height="34.69" fill="#F44261"/><path d="M 381.56 450.94 A 34.69 34.69 0 0 1  416.25 416.25 L 416.25 450.94" fill="#4338CA"/><rect x="346.88" y="450.94" width="34.69" height="34.69" fill="#4338CA"/><path d="M 346.88 485.63 A 34.69 34.69 0 0 0 381.57 450.94 L 346.88 450.94" fill="#F44261"/><rect x="381.56" y="450.94" width="34.69" height="34.69" fill="#F44261"/><path d="M 381.56 450.94 A 34.69 34.69 0 0 0 416.25 485.63 L 416.25 450.94" fill="#4338CA"/><rect x="416.25" y="416.25" width="69.38" height="69.38" fill="#4338CA"/><path d="M 416.25 416.25 A 69.38 69.38 0 0 1  485.63 485.63 L 416.25 416.25 A 69.38 69.38 0 0 0 485.63 485.63" fill="#4338CA"/><rect x="485.625" y="416.25" width="69.375" height="69.375" fill="#ffffff"/><rect x="485.63" y="416.25" width="34.69" height="34.69" fill="#4338CA"/><path d="M 485.63 416.25 A 34.69 34.69 0 0 1 520.3199999999999 450.94 L 485.63 450.94" fill="#4338CA"/><rect x="520.31" y="416.25" width="34.69" height="34.69" fill="#4338CA"/><path d="M 520.31 450.94 A 34.69 34.69 0 0 1  555 416.25 L 555 450.94" fill="#F44261"/><rect x="485.63" y="450.94" width="34.69" height="34.69" fill="#F44261"/><path d="M 485.63 485.63 A 34.69 34.69 0 0 0 520.3199999999999 450.94 L 485.63 450.94" fill="#4338CA"/><rect x="520.31" y="450.94" width="34.69" height="34.69" fill="#4338CA"/><path d="M 520.31 450.94 A 34.69 34.69 0 0 0 555 485.63 L 555 450.94" fill="#4338CA"/><rect x="555" y="416.25" width="69.38" height="69.38" fill="#4338CA"/><path d="M 555 485.63 A 69.38 69.38 0 0 1  624.38 416.25 L 624.38 485.63" fill="#F44261"/><rect x="624.38" y="416.25" width="69.38" height="69.38" fill="#4338CA"/><rect x="624.38" y="416.25" width="69.38" height="69.38" fill="#4338CA"/><rect x="693.75" y="416.25" width="69.375" height="69.375" fill="#ffffff"/><rect x="693.75" y="416.25" width="34.69" height="34.69" fill="#F44261"/><path d="M 693.75 416.25 A 34.69 34.69 0 0 1 728.44 450.94 L 693.75 450.94" fill="#4338CA"/><rect x="728.44" y="416.25" width="34.69" height="34.69" fill="#4338CA"/><path d="M 728.44 450.94 A 34.69 34.69 0 0 1  763.1300000000001 416.25 L 763.1300000000001 450.94" fill="#4338CA"/><rect x="693.75" y="450.94" width="34.69" height="34.69" fill="#4338CA"/><path d="M 693.75 485.63 A 34.69 34.69 0 0 0 728.44 450.94 L 693.75 450.94" fill="#F44261"/><rect x="728.44" y="450.94" width="34.69" height="34.69" fill="#4338CA"/><path d="M 728.44 450.94 A 34.69 34.69 0 0 0 763.1300000000001 485.63 L 763.1300000000001 450.94" fill="#F44261"/><rect x="0" y="485.625" width="69.375" height="69.375" fill="#ffffff"/><rect x="0" y="485.63" width="34.69" height="34.69" fill="#F44261"/><circle cx="17.345" cy="502.975" r="17.345" fill="#4338CA"/><rect x="34.69" y="485.63" width="34.69" height="34.69" fill="#4338CA"/><rect x="34.69" y="485.63" width="34.69" height="34.69" fill="#F44261"/><rect x="0" y="520.31" width="34.69" height="34.69" fill="#4338CA"/><circle cx="17.345" cy="537.655" r="17.345" fill="#4338CA"/><rect x="34.69" y="520.31" width="34.69" height="34.69" fill="#4338CA"/><rect x="34.69" y="520.31" width="34.69" height="34.69" fill="#4338CA"/><rect x="69.38" y="485.63" width="69.38" height="69.38" fill="#F44261"/><path d="M 69.38 555.01 A 69.38 69.38 0 0 1  138.76 485.63 L 138.76 555.01" fill="#4338CA"/><rect x="138.75" y="485.63" width="69.38" height="69.38" fill="#4338CA"/><path d="M 138.75 555.01 A 69.38 69.38 0 0 0 208.13 485.63 L 138.75 485.63" fill="#F44261"/><rect x="208.125" y="485.625" width="69.375" height="69.375" fill="#ffffff"/><rect x="208.13" y="485.63" width="34.69" height="34.69" fill="#F44261"/><path d="M 208.13 520.3199999999999 A 34.69 34.69 0 0 1 242.82 485.63 L 242.82 494.3025 A 26.0175 26.0175 0 0 0 216.8025 520.3199999999999" fill="#F44261"/><rect x="242.81" y="485.63" width="34.69" height="34.69" fill="#F44261"/><path d="M 242.81 485.63 A 34.69 34.69 0 0 1 277.5 520.3199999999999 L 268.8275 520.3199999999999 A 26.0175 26.0175 0 0 0 242.81 494.3025" fill="#F44261"/><rect x="208.13" y="520.31" width="34.69" height="34.69" fill="#4338CA"/><path d="M 208.13 520.31 A 34.69 34.69 0 0 0 242.82 555 L 242.82 546.3275 A 26.0175 26.0175 0 0 1 216.8025 520.31" fill="#F44261"/><rect x="242.81" y="520.31" width="34.69" height="34.69" fill="#F44261"/><path d="M 242.81 555 A 34.69 34.69 0 0 0 277.5 520.31 L 268.8275 520.31 A 26.0175 26.0175 0 0 1 242.81 546.3275" fill="#4338CA"/><rect x="277.5" y="485.625" width="69.375" height="69.375" fill="#ffffff"/><rect x="277.5" y="485.63" width="34.69" height="34.69" fill="#4338CA"/><circle cx="294.845" cy="502.975" r="17.345" fill="#F44261"/><rect x="312.19" y="485.63" width="34.69" height="34.69" fill="#4338CA"/><rect x="312.19" y="485.63" width="34.69" height="34.69" fill="#F44261"/><rect x="277.5" y="520.31" width="34.69" height="34.69" fill="#F44261"/><circle cx="294.845" cy="537.655" r="17.345" fill="#4338CA"/><rect x="312.19" y="520.31" width="34.69" height="34.69" fill="#4338CA"/><rect x="312.19" y="520.31" width="34.69" height="34.69" fill="#4338CA"/><rect x="346.875" y="485.625" width="69.375" height="69.375" fill="#ffffff"/><rect x="346.88" y="485.63" width="34.69" height="34.69" fill="#4338CA"/><path d="M 346.88 520.3199999999999 A 34.69 34.69 0 0 1 381.57 485.63 L 381.57 494.3025 A 26.0175 26.0175 0 0 0 355.5525 520.3199999999999" fill="#4338CA"/><rect x="381.56" y="485.63" width="34.69" height="34.69" fill="#4338CA"/><path d="M 381.56 485.63 A 34.69 34.69 0 0 1 416.25 520.3199999999999 L 407.5775 520.3199999999999 A 26.0175 26.0175 0 0 0 381.56 494.3025" fill="#4338CA"/><rect x="346.88" y="520.31" width="34.69" height="34.69" fill="#F44261"/><path d="M 346.88 520.31 A 34.69 34.69 0 0 0 381.57 555 L 381.57 546.3275 A 26.0175 26.0175 0 0 1 355.5525 520.31" fill="#4338CA"/><rect x="381.56" y="520.31" width="34.69" height="34.69" fill="#F44261"/><path d="M 381.56 555 A 34.69 34.69 0 0 0 416.25 520.31 L 407.5775 520.31 A 26.0175 26.0175 0 0 1 381.56 546.3275" fill="#F44261"/><rect x="416.25" y="485.63" width="69.38" height="69.38" fill="#F44261"/><rect x="416.25" y="485.63" width="69.38" height="69.38" fill="#F44261"/><rect x="485.63" y="485.63" width="69.38" height="69.38" fill="#F44261"/><rect x="485.63" y="485.63" width="69.38" height="69.38" fill="#F44261"/><rect x="555" y="485.625" width="69.375" height="69.375" fill="#ffffff"/><rect x="555" y="485.63" width="34.69" height="34.69" fill="#F44261"/><path d="M 555 520.3199999999999 A 34.69 34.69 0 0 1 589.69 485.63 L 589.69 494.3025 A 26.0175 26.0175 0 0 0 563.6725 520.3199999999999" fill="#4338CA"/><rect x="589.69" y="485.63" width="34.69" height="34.69" fill="#4338CA"/><path d="M 589.69 485.63 A 34.69 34.69 0 0 1 624.3800000000001 520.3199999999999 L 615.7075000000001 520.3199999999999 A 26.0175 26.0175 0 0 0 589.69 494.3025" fill="#F44261"/><rect x="555" y="520.31" width="34.69" height="34.69" fill="#F44261"/><path d="M 555 520.31 A 34.69 34.69 0 0 0 589.69 555 L 589.69 546.3275 A 26.0175 26.0175 0 0 1 563.6725 520.31" fill="#4338CA"/><rect x="589.69" y="520.31" width="34.69" height="34.69" fill="#4338CA"/><path d="M 589.69 555 A 34.69 34.69 0 0 0 624.3800000000001 520.31 L 615.7075000000001 520.31 A 26.0175 26.0175 0 0 1 589.69 546.3275" fill="#4338CA"/><rect x="624.38" y="485.63" width="69.38" height="69.38" fill="#F44261"/><rect x="624.38" y="485.63" width="69.38" height="69.38" fill="#F44261"/><rect x="693.75" y="485.625" width="69.375" height="69.375" fill="#ffffff"/><rect x="693.75" y="485.63" width="34.69" height="34.69" fill="#4338CA"/><path d="M 693.75 520.3199999999999 A 34.69 34.69 0 0 1 728.44 485.63 L 728.44 494.3025 A 26.0175 26.0175 0 0 0 702.4225 520.3199999999999" fill="#F44261"/><rect x="728.44" y="485.63" width="34.69" height="34.69" fill="#4338CA"/><path d="M 728.44 485.63 A 34.69 34.69 0 0 1 763.1300000000001 520.3199999999999 L 754.4575000000001 520.3199999999999 A 26.0175 26.0175 0 0 0 728.44 494.3025" fill="#F44261"/><rect x="693.75" y="520.31" width="34.69" height="34.69" fill="#F44261"/><path d="M 693.75 520.31 A 34.69 34.69 0 0 0 728.44 555 L 728.44 546.3275 A 26.0175 26.0175 0 0 1 702.4225 520.31" fill="#F44261"/><rect x="728.44" y="520.31" width="34.69" height="34.69" fill="#F44261"/><path d="M 728.44 555 A 34.69 34.69 0 0 0 763.1300000000001 520.31 L 754.4575000000001 520.31 A 26.0175 26.0175 0 0 1 728.44 546.3275" fill="#4338CA"/></g></svg>