<svg width="41" height="40" viewBox="0 0 41 40" fill="none" xmlns="http://www.w3.org/2000/svg">
<path fill-rule="evenodd" clip-rule="evenodd" d="M4.31438 20.9933C5.5567 15.8244 5.47534 10.8468 5.62423 5.60393C5.65316 4.58002 4.86714 3.72877 3.86955 3.69793C2.87136 3.66709 2.03831 4.47514 2.00878 5.49904C1.86773 10.4705 1.98167 15.2014 0.802645 20.1112C0.563948 21.1043 1.15769 22.1097 2.12695 22.3502C3.0956 22.5969 4.07629 21.9863 4.31438 20.9933Z" fill="black"/>
<path fill-rule="evenodd" clip-rule="evenodd" d="M14.8694 31.0103C23.2973 23.1274 31.2383 12.9871 36.7886 2.7481C37.2726 1.85373 36.9573 0.72492 36.0845 0.231472C35.2117 -0.261974 34.1099 0.0587921 33.6258 0.953165C28.2588 10.8529 20.5789 20.6602 12.4294 28.2778C11.6928 28.9687 11.6416 30.1406 12.3149 30.8931C12.9882 31.6456 14.1328 31.7011 14.8694 31.0103Z" fill="black"/>
<path fill-rule="evenodd" clip-rule="evenodd" d="M17.004 39.6209C24.7123 40.9224 32.6574 38.7019 39.6664 35.5624C40.5808 35.1491 40.9979 34.0574 40.5983 33.126C40.1981 32.1884 39.1305 31.7628 38.2161 32.1699C31.8328 35.0319 24.6134 37.1537 17.5929 35.9695C16.608 35.8029 15.6767 36.4876 15.5146 37.493C15.3518 38.4984 16.0197 39.4544 17.004 39.6209Z" fill="black"/>
</svg>
