<svg id="visual" viewBox="0 0 960 100" width="960" height="100" xmlns="http://www.w3.org/2000/svg" xmlns:xlink="http://www.w3.org/1999/xlink" version="1.1"><path d="M0 67L20 67.5C40 68 80 69 120 71.2C160 73.3 200 76.7 240 77.8C280 79 320 78 360 76.3C400 74.7 440 72.3 480 72.5C520 72.7 560 75.3 600 75C640 74.7 680 71.3 720 71.3C760 71.3 800 74.7 840 75.5C880 76.3 920 74.7 940 73.8L960 73L960 101L940 101C920 101 880 101 840 101C800 101 760 101 720 101C680 101 640 101 600 101C560 101 520 101 480 101C440 101 400 101 360 101C320 101 280 101 240 101C200 101 160 101 120 101C80 101 40 101 20 101L0 101Z" fill="#e11d48"></path><path d="M0 85L20 85C40 85 80 85 120 84.5C160 84 200 83 240 83.3C280 83.7 320 85.3 360 84.3C400 83.3 440 79.7 480 79.3C520 79 560 82 600 83C640 84 680 83 720 83C760 83 800 84 840 83.8C880 83.7 920 82.3 940 81.7L960 81L960 101L940 101C920 101 880 101 840 101C800 101 760 101 720 101C680 101 640 101 600 101C560 101 520 101 480 101C440 101 400 101 360 101C320 101 280 101 240 101C200 101 160 101 120 101C80 101 40 101 20 101L0 101Z" fill="#ef4e67"></path><path d="M0 91L20 90C40 89 80 87 120 86.2C160 85.3 200 85.7 240 86.7C280 87.7 320 89.3 360 90.5C400 91.7 440 92.3 480 91.8C520 91.3 560 89.7 600 89C640 88.3 680 88.7 720 89C760 89.3 800 89.7 840 89.8C880 90 920 90 940 90L960 90L960 101L940 101C920 101 880 101 840 101C800 101 760 101 720 101C680 101 640 101 600 101C560 101 520 101 480 101C440 101 400 101 360 101C320 101 280 101 240 101C200 101 160 101 120 101C80 101 40 101 20 101L0 101Z" fill="#fb7185"></path></svg>